{
.appVersion = "1230";
copyright = "Copyright 2014 - 2017 Adobe Systems Incorporated (http://www.adobe.com/), with Reserved Font Name 'Source'. Copyright 2019 Google LLC.";
customParameters = (
{
name = trademark;
value = "Source is a trademark of Adobe Systems Incorporated in the United States and/or other countries.";
},
{
name = "Family Alignment Zones";
value = (
"{729, 20}",
"{669, 15}",
"{646, 13}",
"{549, 14}",
"{527, 13}",
"{475, 13}",
"{0, -15}",
"{-239, -10}"
);
},
{
name = Axes;
value = (
{
Name = Weight;
Tag = wght;
},
{
Name = Contrast;
Tag = CONT;
},
{
Name = Serif;
Tag = SERF;
}
);
},
{
name = "Virtual Master";
value = (
{
Axis = Weight;
Location = "150";
},
{
Axis = Contrast;
Location = "100";
},
{
Axis = Serif;
Location = "100";
}
);
},
{
name = vendorID;
value = GOOG;
},
{
name = fsType;
value = (
);
},
{
name = note;
value = "# DeepMind Serif Modification Notes\012\012* Design space uses the main Weight Axis taken from Source Serif.\012* Additional axis include a contrast layer, which is done with existing masters\012* A further virtual master alters the Serif curvature.\012* All glyphs can be output with a sharp or curved serif.";
},
{
name = license;
value = "This Font Software is licensed under the SIL Open Font License, Version 1.1. This license is available with a FAQ at: http://scripts.sil.org/OFL";
},
{
name = licenseURL;
value = "http://scripts.sil.org/OFL";
}
);
date = "2019-06-03 20:57:24 +0000";
designer = "Colophon Foundry, Frank Grießhammer";
designerURL = "http://www.adobe.com/type";
familyName = "DM Serif Display";
featurePrefixes = (
{
automatic = 1;
code = "languagesystem DFLT dflt;\012languagesystem latn dflt;\012languagesystem latn ROM;\012languagesystem latn MOL;\012languagesystem latn CAT;\012";
name = Languagesystems;
}
);
features = (
{
automatic = 1;
code = "feature locl;\012feature sups;\012feature frac;\012feature ordn;\012";
name = aalt;
},
{
automatic = 1;

glyphs = (
{
color = 4;
glyphname = A;
layers = (
{
anchors = (
{
name = aboveUC;
position = "{315, 686}";
},
{
name = belowLC;
position = "{289, -22}";
},
{
name = ogonek;
position = "{546, 0}";
}
);
layerId = "78A9F7DD-241B-40F2-ADB9-3345ED68833B";
paths = (
{
closed = 1;
nodes = (
"146 0 LINE",
"146 10 LINE",
"124 19 LINE SMOOTH",
"96 30 OFFCURVE",
"96 46 OFFCURVE",
"105 75 CURVE SMOOTH",
"153 216 LINE",
"375 216 LINE",
"422 72 LINE SMOOTH",
"430 45 OFFCURVE",
"426 25 OFFCURVE",
"398 15 CURVE SMOOTH",
"383 10 LINE",
"383 0 LINE",
"637 0 LINE",
"637 10 LINE",
"625 14 LINE SMOOTH",
"597 24 OFFCURVE",
"586 38 OFFCURVE",
"576 67 CURVE SMOOTH",
"373 662 LINE",
"288 662 LINE",
"82 71 LINE SMOOTH",
"72 43 OFFCURVE",
"60 29 OFFCURVE",
"33 19 CURVE SMOOTH",
"8 10 LINE",
"8 0 LINE"
);
},
{
closed = 1;
nodes = (
"268 547 LINE",
"369 236 LINE",
"160 236 LINE"
);
}
);
width = 650;
}
);
leftKerningGroup = LAT_A;
rightKerningGroup = LAT_A;
unicode = 0041;
},
{
color = 4;
glyphname = AE;
layers = (
{
anchors = (
{
name = aboveUC;
position = "{577, 686}";
}
);
layerId = "78A9F7DD-241B-40F2-ADB9-3345ED68833B";
paths = (
{
closed = 1;
nodes = (
"192 0 LINE",
"192 10 LINE",
"162 20 LINE SMOOTH",
"134 30 OFFCURVE",
"125 49 OFFCURVE",
"139 77 CURVE SMOOTH",
"230 264 LINE",
"419 264 LINE",
"419 200 OFFCURVE",
"419 139 OFFCURVE",
"418 68 CURVE SMOOTH",
"417 41 OFFCURVE",
"406 25 OFFCURVE",
"382 16 CURVE SMOOTH",
"367 10 LINE",
"367 0 LINE",
"864 0 LINE",
"870 154 LINE",
"860 154 LINE",
"818 55 LINE SMOOTH",
"808 31 OFFCURVE",
"790 20 OFFCURVE",
"765 20 CURVE SMOOTH",
"569 20 LINE",
"567 94 OFFCURVE",
"567 165 OFFCURVE",
"567 331 CURVE",
"672 331 LINE SMOOTH",
"692 331 OFFCURVE",
"706 323 OFFCURVE",
"716 304 CURVE SMOOTH",
"744 250 LINE",
"754 250 LINE",
"754 430 LINE",
"744 430 LINE",
"716 378 LINE",
"707 360 OFFCURVE",
"692 351 OFFCURVE",
"672 351 CURVE SMOOTH",
"567 351 LINE",
"567 470 OFFCURVE",
"567 555 OFFCURVE",
"569 640 CURVE",
"743 640 LINE SMOOTH",
"768 640 OFFCURVE",
"784 630 OFFCURVE",
"794 607 CURVE SMOOTH",
"840 506 LINE",
"850 506 LINE",
"844 660 LINE",
"313 660 LINE",
"313 650 LINE",
"343 641 LINE SMOOTH",
"370 633 OFFCURVE",
"378 613 OFFCURVE",
"366 589 CURVE SMOOTH",
"114 80 LINE SMOOTH",
"98 49 OFFCURVE",
"78 31 OFFCURVE",
"44 19 CURVE SMOOTH",
"17 10 LINE",
"17 0 LINE"
);
},
{
closed = 1;
nodes = (
"412 636 LINE",
"419 636 LINE",
"419 285 LINE",
"240 285 LINE"
);
}
);
width = 898;
}
);
rightKerningGroup = LAT_E;
unicode = 00C6;
},
{
color = 4;
glyphname = B;
layers = (
{
anchors = (
{
name = aboveUC;
position = "{262, 686}";
},
{
name = belowLC;
position = "{298, -22}";
}
);
layerId = "78A9F7DD-241B-40F2-ADB9-3345ED68833B";
paths = (
{
closed = 1;
nodes = (
"276 0 LINE SMOOTH",
"512 0 OFFCURVE",
"576 99 OFFCURVE",
"576 184 CURVE SMOOTH",
"576 271 OFFCURVE",
"511 336 OFFCURVE",
"364 352 CURVE",
"492 375 OFFCURVE",
"539 435 OFFCURVE",
"539 503 CURVE SMOOTH",
"539 593 OFFCURVE",
"472 660 OFFCURVE",
"309 660 CURVE SMOOTH",
"22 660 LINE",
"22 650 LINE",
"40 643 LINE SMOOTH",
"66 634 OFFCURVE",
"75 619 OFFCURVE",
"75 591 CURVE SMOOTH",
"75 510 OFFCURVE",
"75 428 OFFCURVE",
"75 347 CURVE SMOOTH",
"75 313 LINE SMOOTH",
"75 230 OFFCURVE",
"75 149 OFFCURVE",
"75 69 CURVE SMOOTH",
"75 42 OFFCURVE",
"66 27 OFFCURVE",
"40 17 CURVE SMOOTH",
"22 10 LINE",
"22 0 LINE"
);
},
{
closed = 1;
nodes = (
"223 95 OFFCURVE",
"223 167 OFFCURVE",
"223 333 CURVE",
"271 333 LINE SMOOTH",
"378 333 OFFCURVE",
"421 292 OFFCURVE",
"421 185 CURVE SMOOTH",
"421 71 OFFCURVE",
"373 20 OFFCURVE",
"273 20 CURVE SMOOTH",
"223 20 LINE"
);
},
{
closed = 1;
nodes = (
"223 471 OFFCURVE",
"223 555 OFFCURVE",
"223 640 CURVE",
"277 640 LINE SMOOTH",
"358 640 OFFCURVE",
"392 599 OFFCURVE",
"392 492 CURVE SMOOTH",
"392 389 OFFCURVE",
"355 353 OFFCURVE",
"266 353 CURVE SMOOTH",
"223 353 LINE"
);
}
);
width = 598;
}
);
leftKerningGroup = LAT_E;
leftMetricsKey = H;
unicode = 0042;
},
{
color = 4;
glyphname = C;
layers = (
{
anchors = (
{
name = aboveUC;
position = "{350, 686}";
},
{
name = baseLC;
position = "{371, 0}";
},
{
name = belowLC;
position = "{370, -22}";
}
);
layerId = "78A9F7DD-241B-40F2-ADB9-3345ED68833B";
paths = (
{
closed = 1;
nodes = (
"448 -18 OFFCURVE",
"518 2 OFFCURVE",
"574 32 CURVE",
"577 175 LINE",
"567 175 LINE",
"523 77 LINE SMOOTH",
"512 53 OFFCURVE",
"501 31 OFFCURVE",
"476 20 CURVE SMOOTH",
"450 8 OFFCURVE",
"429 2 OFFCURVE",
"387 2 CURVE SMOOTH",
"271 2 OFFCURVE",
"182 83 OFFCURVE",
"182 329 CURVE SMOOTH",
"182 576 OFFCURVE",
"276 658 OFFCURVE",
"392 658 CURVE SMOOTH",
"421 658 OFFCURVE",
"438 653 OFFCURVE",
"458 644 CURVE SMOOTH",
"482 633 OFFCURVE",
"496 611 OFFCURVE",
"510 586 CURVE SMOOTH",
"560 506 LINE",
"570 506 LINE",
"566 629 LINE",
"510 660 OFFCURVE",
"447 678 OFFCURVE",
"371 678 CURVE SMOOTH",
"181 678 OFFCURVE",
"20 559 OFFCURVE",
"20 330 CURVE SMOOTH",
"20 103 OFFCURVE",
"171 -18 OFFCURVE",
"366 -18 CURVE SMOOTH"
);
}
);
width = 603;
}
);
leftKerningGroup = LAT_O;
leftMetricsKey = O;
rightKerningGroup = LAT_C;
unicode = 0043;
},
{
color = 4;
glyphname = D;
layers = (
{
anchors = (
{
name = aboveUC;
position = "{282, 686}";
},
{
name = belowLC;
position = "{284, -22}";
}
);
layerId = "78A9F7DD-241B-40F2-ADB9-3345ED68833B";
paths = (
{
closed = 1;
nodes = (
"268 0 LINE SMOOTH",
"485 0 OFFCURVE",
"628 121 OFFCURVE",
"628 331 CURVE SMOOTH",
"628 537 OFFCURVE",
"498 660 OFFCURVE",
"286 660 CURVE SMOOTH",
"22 660 LINE",
"22 650 LINE",
"43 642 LINE SMOOTH",
"66 634 OFFCURVE",
"75 619 OFFCURVE",
"75 591 CURVE SMOOTH",
"75 511 OFFCURVE",
"75 430 OFFCURVE",
"75 350 CURVE SMOOTH",
"75 315 LINE SMOOTH",
"75 230 OFFCURVE",
"75 148 OFFCURVE",
"75 69 CURVE SMOOTH",
"75 42 OFFCURVE",
"65 27 OFFCURVE",
"43 18 CURVE SMOOTH",
"22 10 LINE",
"22 0 LINE"
);
},
{
closed = 1;
nodes = (
"225 116 OFFCURVE",
"225 214 OFFCURVE",
"225 316 CURVE SMOOTH",
"225 350 LINE SMOOTH",
"225 448 OFFCURVE",
"225 545 OFFCURVE",
"225 640 CURVE",
"272 640 LINE SMOOTH",
"411 640 OFFCURVE",
"469 566 OFFCURVE",
"469 330 CURVE SMOOTH",
"469 94 OFFCURVE",
"411 20 OFFCURVE",
"268 20 CURVE SMOOTH",
"225 20 LINE"
);
}
);
width = 648;
}
);
leftKerningGroup = LAT_E;
leftMetricsKey = H;
rightKerningGroup = LAT_D;
rightMetricsKey = O;
unicode = 0044;
},
{
color = 4;
glyphname = Eth;
layers = (
{
components = (
{
alignment = -1;
name = D;
}
);
layerId = "78A9F7DD-241B-40F2-ADB9-3345ED68833B";
paths = (
{
closed = 1;
nodes = (
"392 325 LINE",
"392 352 LINE",
"35 352 LINE",
"35 325 LINE"
);
}
);
width = 648;
}
);
leftKerningGroup = LAT_E;
rightKerningGroup = LAT_D;
rightMetricsKey = O;
unicode = 00D0;
},
{
color = 4;
glyphname = E;
layers = (
{
anchors = (
{
name = aboveUC;
position = "{276, 686}";
},
{
name = belowLC;
position = "{295, -22}";
},
{
name = ogonek;
position = "{423, 0}";
}
);
layerId = "78A9F7DD-241B-40F2-ADB9-3345ED68833B";
paths = (
{
closed = 1;
nodes = (
"521 0 LINE",
"527 154 LINE",
"517 154 LINE",
"476 60 LINE SMOOTH",
"466 35 OFFCURVE",
"454 20 OFFCURVE",
"427 20 CURVE SMOOTH",
"225 20 LINE",
"225 94 OFFCURVE",
"225 165 OFFCURVE",
"225 331 CURVE",
"332 331 LINE SMOOTH",
"358 331 OFFCURVE",
"369 316 OFFCURVE",
"381 292 CURVE SMOOTH",
"401 250 LINE",
"411 250 LINE",
"411 430 LINE",
"401 430 LINE",
"381 390 LINE SMOOTH",
"370 366 OFFCURVE",
"358 351 OFFCURVE",
"332 351 CURVE SMOOTH",
"225 351 LINE",
"225 470 OFFCURVE",
"225 555 OFFCURVE",
"225 640 CURVE",
"405 640 LINE SMOOTH",
"432 640 OFFCURVE",
"442 624 OFFCURVE",
"454 600 CURVE SMOOTH",
"497 506 LINE",
"507 506 LINE",
"501 660 LINE",
"22 660 LINE",
"22 650 LINE",
"45 641 LINE SMOOTH",
"70 632 OFFCURVE",
"75 618 OFFCURVE",
"75 591 CURVE SMOOTH",
"75 511 OFFCURVE",
"75 430 OFFCURVE",
"75 350 CURVE SMOOTH",
"75 310 LINE SMOOTH",
"75 229 OFFCURVE",
"75 148 OFFCURVE",
"75 69 CURVE SMOOTH",
"75 42 OFFCURVE",
"68 28 OFFCURVE",
"45 19 CURVE SMOOTH",
"22 10 LINE",
"22 0 LINE"
);
}
);
width = 555;
}
);
leftKerningGroup = LAT_E;
leftMetricsKey = H;
rightKerningGroup = LAT_E;
unicode = 0045;
},
{
color = 4;
glyphname = F;
layers = (
{
anchors = (
{
name = aboveUC;
position = "{281, 686}";
},
{
name = belowLC;
position = "{156, -22}";
}
);
layerId = "78A9F7DD-241B-40F2-ADB9-3345ED68833B";
paths = (
{
closed = 1;
nodes = (
"294 0 LINE",
"294 10 LINE",
"264 19 LINE SMOOTH",
"238 27 OFFCURVE",
"226 43 OFFCURVE",
"226 70 CURVE SMOOTH",
"225 151 OFFCURVE",
"225 234 OFFCURVE",
"225 328 CURVE",
"329 328 LINE SMOOTH",
"359 328 OFFCURVE",
"369 312 OFFCURVE",
"383 288 CURVE SMOOTH",
"405 250 LINE",
"415 250 LINE",
"415 425 LINE",
"405 425 LINE",
"384 387 LINE SMOOTH",
"370 362 OFFCURVE",
"359 348 OFFCURVE",
"329 348 CURVE SMOOTH",
"225 348 LINE",
"225 445 OFFCURVE",
"225 545 OFFCURVE",
"226 640 CURVE",
"387 640 LINE SMOOTH",
"418 640 OFFCURVE",
"432 624 OFFCURVE",
"446 599 CURVE SMOOTH",
"503 494 LINE",
"513 494 LINE",
"506 660 LINE",
"22 660 LINE",
"22 650 LINE",
"44 642 LINE SMOOTH",
"69 632 OFFCURVE",
"74 618 OFFCURVE",
"74 591 CURVE SMOOTH",
"75 511 OFFCURVE",
"75 430 OFFCURVE",
"75 350 CURVE SMOOTH",
"75 310 LINE SMOOTH",
"75 228 OFFCURVE",
"75 147 OFFCURVE",
"74 67 CURVE SMOOTH",
"74 40 OFFCURVE",
"67 25 OFFCURVE",
"40 16 CURVE SMOOTH",
"22 10 LINE",
"22 0 LINE"
);
}
);
width = 538;
}
);
leftKerningGroup = LAT_E;
leftMetricsKey = H;
unicode = 0046;
},
{
color = 4;
glyphname = G;
layers = (
{
anchors = (
{
name = aboveUC;
position = "{359, 686}";
},
{
name = belowLC;
position = "{380, -22}";
}
);
layerId = "78A9F7DD-241B-40F2-ADB9-3345ED68833B";
paths = (
{
closed = 1;
nodes = (
"452 -18 OFFCURVE",
"520 2 OFFCURVE",
"589 41 CURVE",
"589 83 LINE SMOOTH",
"589 143 OFFCURVE",
"589 201 OFFCURVE",
"589 258 CURVE SMOOTH",
"589 285 OFFCURVE",
"602 300 OFFCURVE",
"627 308 CURVE SMOOTH",
"641 312 LINE",
"641 322 LINE",
"359 322 LINE",
"359 312 LINE",
"405 300 LINE SMOOTH",
"431 294 OFFCURVE",
"445 278 OFFCURVE",
"445 252 CURVE SMOOTH",
"445 193 OFFCURVE",
"445 113 OFFCURVE",
"445 54 CURVE SMOOTH",
"445 30 OFFCURVE",
"439 11 OFFCURVE",
"414 7 CURVE SMOOTH",
"403 4 OFFCURVE",
"392 2 OFFCURVE",
"380 2 CURVE SMOOTH",
"261 2 OFFCURVE",
"182 98 OFFCURVE",
"182 331 CURVE SMOOTH",
"182 565 OFFCURVE",
"266 658 OFFCURVE",
"391 658 CURVE SMOOTH",
"420 658 OFFCURVE",
"435 655 OFFCURVE",
"456 648 CURVE SMOOTH",
"479 640 OFFCURVE",
"491 628 OFFCURVE",
"508 595 CURVE SMOOTH",
"564 491 LINE",
"574 491 LINE",
"570 631 LINE",
"515 662 OFFCURVE",
"456 678 OFFCURVE",
"385 678 CURVE SMOOTH",
"153 678 OFFCURVE",
"20 539 OFFCURVE",
"20 331 CURVE SMOOTH",
"20 117 OFFCURVE",
"160 -18 OFFCURVE",
"364 -18 CURVE SMOOTH"
);
}
);
width = 656;
}
);
leftKerningGroup = LAT_O;
leftMetricsKey = O;
rightKerningGroup = LAT_G;
unicode = 0047;
},
{
color = 4;
glyphname = H;
layers = (
{
anchors = (
{
name = aboveUC;
position = "{345, 686}";
},
{
name = belowLC;
position = "{345, -22}";
}
);
layerId = "78A9F7DD-241B-40F2-ADB9-3345ED68833B";
paths = (
{
closed = 1;
nodes = (
"276 0 LINE",
"276 10 LINE",
"259 16 LINE SMOOTH",
"235 26 OFFCURVE",
"226 40 OFFCURVE",
"226 67 CURVE SMOOTH",
"226 128 OFFCURVE",
"226 198 OFFCURVE",
"226 330 CURVE",
"465 330 LINE",
"465 198 OFFCURVE",
"465 128 OFFCURVE",
"465 67 CURVE SMOOTH",
"465 40 OFFCURVE",
"458 26 OFFCURVE",
"432 16 CURVE SMOOTH",
"414 10 LINE",
"414 0 LINE",
"669 0 LINE",
"669 10 LINE",
"649 18 LINE SMOOTH",
"623 27 OFFCURVE",
"616 42 OFFCURVE",
"616 68 CURVE SMOOTH",
"616 149 OFFCURVE",
"616 230 OFFCURVE",
"616 310 CURVE SMOOTH",
"616 350 LINE SMOOTH",
"616 431 OFFCURVE",
"616 512 OFFCURVE",
"616 591 CURVE SMOOTH",
"616 618 OFFCURVE",
"623 632 OFFCURVE",
"649 642 CURVE SMOOTH",
"669 650 LINE",
"669 660 LINE",
"414 660 LINE",
"414 650 LINE",
"432 643 LINE SMOOTH",
"458 634 OFFCURVE",
"465 619 OFFCURVE",
"465 593 CURVE SMOOTH",
"465 522 OFFCURVE",
"465 447 OFFCURVE",
"465 350 CURVE",
"226 350 LINE",
"226 443 OFFCURVE",
"226 517 OFFCURVE",
"226 593 CURVE SMOOTH",
"226 619 OFFCURVE",
"234 634 OFFCURVE",
"259 643 CURVE SMOOTH",
"276 650 LINE",
"276 660 LINE",
"22 660 LINE",
"22 650 LINE",
"42 642 LINE SMOOTH",
"68 632 OFFCURVE",
"75 618 OFFCURVE",
"75 591 CURVE SMOOTH",
"75 503 OFFCURVE",
"75 418 OFFCURVE",
"75 350 CURVE SMOOTH",
"75 310 LINE SMOOTH",
"75 228 OFFCURVE",
"75 148 OFFCURVE",
"75 68 CURVE SMOOTH",
"75 42 OFFCURVE",
"68 27 OFFCURVE",
"42 18 CURVE SMOOTH",
"22 10 LINE",
"22 0 LINE"
);
}
);
width = 691;
}
);
leftKerningGroup = LAT_E;
rightKerningGroup = LAT_H;
unicode = 0048;
},
{
color = 4;
glyphname = I;
layers = (
{
anchors = (
{
name = aboveUC;
position = "{151, 686}";
},
{
name = belowLC;
position = "{151, -22}";
},
{
name = ogonek;
position = "{197, 0}";
}
);
layerId = "78A9F7DD-241B-40F2-ADB9-3345ED68833B";
paths = (
{
closed = 1;
nodes = (
"279 0 LINE",
"279 10 LINE",
"259 18 LINE SMOOTH",
"232 28 OFFCURVE",
"226 42 OFFCURVE",
"226 69 CURVE SMOOTH",
"226 149 OFFCURVE",
"226 230 OFFCURVE",
"226 311 CURVE SMOOTH",
"226 350 LINE SMOOTH",
"226 431 OFFCURVE",
"226 512 OFFCURVE",
"226 591 CURVE SMOOTH",
"226 618 OFFCURVE",
"232 632 OFFCURVE",
"259 642 CURVE SMOOTH",
"279 650 LINE",
"279 660 LINE",
"22 660 LINE",
"22 650 LINE",
"42 642 LINE SMOOTH",
"70 632 OFFCURVE",
"75 618 OFFCURVE",
"75 591 CURVE SMOOTH",
"75 511 OFFCURVE",
"75 430 OFFCURVE",
"75 350 CURVE SMOOTH",
"75 310 LINE SMOOTH",
"75 229 OFFCURVE",
"75 148 OFFCURVE",
"75 69 CURVE SMOOTH",
"75 42 OFFCURVE",
"69 27 OFFCURVE",
"42 18 CURVE SMOOTH",
"22 10 LINE",
"22 0 LINE"
);
}
);
width = 301;
}
);
leftKerningGroup = LAT_E;
leftMetricsKey = H;
rightKerningGroup = LAT_H;
rightMetricsKey = H;
unicode = 0049;
},
{
color = 4;
glyphname = J;
layers = (
{
anchors = (
{
name = aboveUC;
position = "{272, 686}";
},
{
name = belowLC;
position = "{179, -167}";
}
);
layerId = "78A9F7DD-241B-40F2-ADB9-3345ED68833B";
paths = (
{
closed = 1;
nodes = (
"198 -18 OFFCURVE",
"280 31 OFFCURVE",
"314 120 CURVE SMOOTH",
"341 182 OFFCURVE",
"352 262 OFFCURVE",
"352 393 CURVE SMOOTH",
"352 412 LINE SMOOTH",
"352 472 OFFCURVE",
"352 533 OFFCURVE",
"352 591 CURVE SMOOTH",
"352 619 OFFCURVE",
"359 633 OFFCURVE",
"383 642 CURVE SMOOTH",
"405 650 LINE",
"405 660 LINE",
"143 660 LINE",
"143 650 LINE",
"166 642 LINE SMOOTH",
"189 634 OFFCURVE",
"198 616 OFFCURVE",
"198 588 CURVE SMOOTH",
"202 394 OFFCURVE",
"207 266 OFFCURVE",
"207 182 CURVE SMOOTH",
"207 108 OFFCURVE",
"204 57 OFFCURVE",
"196 30 CURVE SMOOTH",
"192 18 OFFCURVE",
"180 18 OFFCURVE",
"173 28 CURVE SMOOTH",
"155 59 LINE SMOOTH",
"132 96 OFFCURVE",
"106 110 OFFCURVE",
"72 110 CURVE SMOOTH",
"37 110 OFFCURVE",
"7 89 OFFCURVE",
"7 52 CURVE SMOOTH",
"7 9 OFFCURVE",
"43 -18 OFFCURVE",
"109 -18 CURVE SMOOTH"
);
}
);
width = 427;
}
);
leftKerningGroup = LAT_J;
rightKerningGroup = LAT_J;
unicode = 004A;
},
{
color = 4;
glyphname = K;
layers = (
{
anchors = (
{
name = aboveUC;
position = "{321, 686}";
},
{
name = belowLC;
position = "{329, -22}";
}
);
layerId = "78A9F7DD-241B-40F2-ADB9-3345ED68833B";
paths = (
{
closed = 1;
nodes = (
"271 0 LINE",
"271 10 LINE",
"252 18 LINE SMOOTH",
"227 27 OFFCURVE",
"220 40 OFFCURVE",
"220 67 CURVE",
"220 400 LINE",
"220 481 OFFCURVE",
"220 511 OFFCURVE",
"220 590 CURVE SMOOTH",
"220 618 OFFCURVE",
"226 633 OFFCURVE",
"249 641 CURVE SMOOTH",
"271 650 LINE",
"271 660 LINE",
"22 660 LINE",
"22 650 LINE",
"43 642 LINE SMOOTH",
"69 632 OFFCURVE",
"75 618 OFFCURVE",
"75 591 CURVE SMOOTH",
"75 511 OFFCURVE",
"75 430 OFFCURVE",
"75 350 CURVE SMOOTH",
"75 310 LINE SMOOTH",
"75 228 OFFCURVE",
"75 148 OFFCURVE",
"75 68 CURVE SMOOTH",
"75 42 OFFCURVE",
"69 27 OFFCURVE",
"43 18 CURVE SMOOTH",
"22 10 LINE",
"22 0 LINE"
);
},
{
closed = 1;
nodes = (
"645 0 LINE",
"645 10 LINE",
"631 14 LINE SMOOTH",
"598 25 OFFCURVE",
"584 42 OFFCURVE",
"564 72 CURVE SMOOTH",
"322 424 LINE",
"220 339 LINE",
"413 66 LINE SMOOTH",
"430 42 OFFCURVE",
"431 22 OFFCURVE",
"404 14 CURVE SMOOTH",
"391 10 LINE",
"391 0 LINE"
);
},
{
closed = 1;
nodes = (
"508 598 LINE SMOOTH",
"531 621 OFFCURVE",
"543 632 OFFCURVE",
"573 642 CURVE SMOOTH",
"599 650 LINE",
"599 660 LINE",
"453 660 LINE",
"453 650 LINE",
"470 644 LINE SMOOTH",
"498 634 OFFCURVE",
"493 616 OFFCURVE",
"474 597 CURVE SMOOTH",
"220 339 LINE",
"241 327 LINE"
);
}
);
width = 654;
}
);
leftKerningGroup = LAT_E;
leftMetricsKey = H;
rightKerningGroup = LAT_K;
unicode = 004B;
},
{
color = 4;
glyphname = L;
layers = (
{
anchors = (
{
name = aboveUC;
position = "{157, 686}";
},
{
name = belowLC;
position = "{273, -22}";
}
);
layerId = "78A9F7DD-241B-40F2-ADB9-3345ED68833B";
paths = (
{
closed = 1;
nodes = (
"508 0 LINE",
"517 174 LINE",
"507 174 LINE",
"468 90 LINE SMOOTH",
"447 44 OFFCURVE",
"429 20 OFFCURVE",
"380 20 CURVE SMOOTH",
"226 20 LINE",
"226 116 OFFCURVE",
"226 212 OFFCURVE",
"226 293 CURVE SMOOTH",
"226 350 LINE SMOOTH",
"226 430 OFFCURVE",
"226 510 OFFCURVE",
"226 590 CURVE SMOOTH",
"226 617 OFFCURVE",
"234 632 OFFCURVE",
"259 642 CURVE SMOOTH",
"277 650 LINE",
"277 660 LINE",
"22 660 LINE",
"22 650 LINE",
"43 642 LINE SMOOTH",
"69 633 OFFCURVE",
"75 618 OFFCURVE",
"75 591 CURVE SMOOTH",
"75 511 OFFCURVE",
"75 430 OFFCURVE",
"75 350 CURVE SMOOTH",
"75 294 LINE SMOOTH",
"75 226 OFFCURVE",
"75 148 OFFCURVE",
"75 69 CURVE SMOOTH",
"75 42 OFFCURVE",
"71 29 OFFCURVE",
"43 18 CURVE SMOOTH",
"22 10 LINE",
"22 0 LINE"
);
}
);
width = 540;
}
);
leftKerningGroup = LAT_E;
leftMetricsKey = H;
rightKerningGroup = LAT_L;
unicode = 004C;
},
{
color = 4;
glyphname = Lcaron;
layers = (
{
components = (
{
alignment = -1;
name = L;
}
);
layerId = "78A9F7DD-241B-40F2-ADB9-3345ED68833B";
paths = (
{
closed = 1;
nodes = (
"502 478 OFFCURVE",
"560 553 OFFCURVE",
"560 628 CURVE SMOOTH",
"560 678 OFFCURVE",
"530 711 OFFCURVE",
"488 711 CURVE SMOOTH",
"450 711 OFFCURVE",
"426 682 OFFCURVE",
"426 647 CURVE SMOOTH",
"426 615 OFFCURVE",
"451 589 OFFCURVE",
"489 579 CURVE SMOOTH",
"516 572 LINE",
"511 612 LINE",
"505 532 OFFCURVE",
"470 489 OFFCURVE",
"421 458 CURVE",
"429 444 LINE"
);
}
);
width = 584;
}
);
leftKerningGroup = LAT_E;
rightKerningGroup = LAT_L;
unicode = 013D;
},
{
color = 4;
glyphname = Lslash;
layers = (
{
components = (
{
alignment = -1;
name = L;
}
);
layerId = "78A9F7DD-241B-40F2-ADB9-3345ED68833B";
paths = (
{
closed = 1;
nodes = (
"400 421 LINE",
"400 447 LINE",
"209 343 LINE",
"209 318 LINE"
);
},
{
closed = 1;
nodes = (
"187 309 LINE",
"187 335 LINE",
"34 253 LINE",
"34 228 LINE"
);
}
);
width = 584;
}
);
leftKerningGroup = LAT_E;
rightKerningGroup = LAT_L;
unicode = 0141;
},
{
color = 4;
glyphname = M;
layers = (
{
anchors = (
{
name = aboveUC;
position = "{379, 686}";
},
{
name = belowLC;
position = "{345, -22}";
}
);
layerId = "78A9F7DD-241B-40F2-ADB9-3345ED68833B";
paths = (
{
closed = 1;
nodes = (
"152 0 LINE",
"152 10 LINE",
"130 17 LINE SMOOTH",
"105 25 OFFCURVE",
"98 42 OFFCURVE",
"98 72 CURVE SMOOTH",
"98 324 LINE",
"95 573 LINE",
"312.995 0 LINE",
"363 0 LINE",
"572 580 LINE",
"570 294 LINE SMOOTH",
"570 226 OFFCURVE",
"570 148 OFFCURVE",
"570 69 CURVE SMOOTH",
"570 42 OFFCURVE",
"566 29 OFFCURVE",
"541 19 CURVE SMOOTH",
"520 10 LINE",
"520 0 LINE",
"769 0 LINE",
"769 10 LINE",
"749 19 LINE SMOOTH",
"724 29 OFFCURVE",
"720 42 OFFCURVE",
"720 69 CURVE SMOOTH",
"720 148 OFFCURVE",
"720 229 OFFCURVE",
"720 310 CURVE SMOOTH",
"720 350 LINE SMOOTH",
"720 431 OFFCURVE",
"720 512 OFFCURVE",
"720 592 CURVE SMOOTH",
"720 619 OFFCURVE",
"727 634 OFFCURVE",
"753 644 CURVE SMOOTH",
"769 650 LINE",
"769 660 LINE",
"572 660 LINE",
"398 176 LINE",
"213 660 LINE",
"20 660 LINE",
"20 650 LINE",
"46 638 LINE SMOOTH",
"71 627 OFFCURVE",
"74 613 OFFCURVE",
"74 586 CURVE SMOOTH",
"74 74 LINE SMOOTH",
"74 43 OFFCURVE",
"64 25 OFFCURVE",
"40 17 CURVE SMOOTH",
"20 10 LINE",
"20 0 LINE"
);
}
);
width = 791;
}
);
leftKerningGroup = LAT_M;
rightKerningGroup = LAT_H;
rightMetricsKey = H;
unicode = 004D;
},
{
color = 4;
glyphname = N;
layers = (
{
anchors = (
{
name = aboveUC;
position = "{326, 686}";
},
{
name = belowLC;
position = "{345, -22}";
}
);
layerId = "78A9F7DD-241B-40F2-ADB9-3345ED68833B";
paths = (
{
closed = 1;
nodes = (
"187 0 LINE",
"187 10 LINE",
"157 20 LINE SMOOTH",
"132 28 OFFCURVE",
"126 47 OFFCURVE",
"126 74 CURVE SMOOTH",
"126 522 LINE",
"508 -3 LINE",
"564 -3 LINE",
"564 585 LINE SMOOTH",
"564 611 OFFCURVE",
"566 633 OFFCURVE",
"590 641 CURVE SMOOTH",
"617 650 LINE",
"617 660 LINE",
"474 660 LINE",
"474 650 LINE",
"507 641 LINE SMOOTH",
"534 634 OFFCURVE",
"540 611 OFFCURVE",
"540 584 CURVE SMOOTH",
"540 207 LINE",
"208 660 LINE",
"31 660 LINE",
"31 650 LINE",
"48 633 LINE SMOOTH",
"76 607 OFFCURVE",
"80 602 OFFCURVE",
"102 555 CURVE",
"102 74 LINE SMOOTH",
"102 47 OFFCURVE",
"92 27 OFFCURVE",
"68 20 CURVE SMOOTH",
"35 10 LINE",
"35 0 LINE"
);
}
);
width = 653;
}
);
leftKerningGroup = LAT_M;
rightKerningGroup = LAT_N;
unicode = 004E;
},
{
color = 4;
glyphname = O;
layers = (
{
anchors = (
{
name = aboveUC;
position = "{335, 686}";
},
{
name = belowLC;
position = "{335, -22}";
},
{
name = hornLC;
position = "{481, 664}";
},
{
name = ogonek;
position = "{425, 0}";
}
);
layerId = "78A9F7DD-241B-40F2-ADB9-3345ED68833B";
paths = (
{
closed = 1;
nodes = (
"498 -18 OFFCURVE",
"650 102 OFFCURVE",
"650 330 CURVE SMOOTH",
"650 562 OFFCURVE",
"497 678 OFFCURVE",
"335 678 CURVE SMOOTH",
"174 678 OFFCURVE",
"20 558 OFFCURVE",
"20 330 CURVE SMOOTH",
"20 98 OFFCURVE",
"173 -18 OFFCURVE",
"335 -18 CURVE SMOOTH"
);
},
{
closed = 1;
nodes = (
"226 3 OFFCURVE",
"182 79 OFFCURVE",
"182 330 CURVE SMOOTH",
"182 581 OFFCURVE",
"226 658 OFFCURVE",
"335 658 CURVE SMOOTH",
"445 658 OFFCURVE",
"489 581 OFFCURVE",
"489 330 CURVE SMOOTH",
"489 79 OFFCURVE",
"445 3 OFFCURVE",
"335 3 CURVE SMOOTH"
);
}
);
width = 670;
}
);
leftKerningGroup = LAT_O;
rightKerningGroup = LAT_O;
unicode = 004F;
},
{
color = 4;
glyphname = Oslash;
layers = (
{
anchors = (
{
name = aboveUC;
position = "{335, 686}";
}
);
layerId = "78A9F7DD-241B-40F2-ADB9-3345ED68833B";
paths = (
{
closed = 1;
nodes = (
"498 -18 OFFCURVE",
"650 102 OFFCURVE",
"650 330 CURVE SMOOTH",
"650 562 OFFCURVE",
"497 678 OFFCURVE",
"335 678 CURVE SMOOTH",
"174 678 OFFCURVE",
"20 558 OFFCURVE",
"20 330 CURVE SMOOTH",
"20 98 OFFCURVE",
"173 -18 OFFCURVE",
"335 -18 CURVE SMOOTH"
);
},
{
closed = 1;
nodes = (
"623 664 LINE",
"600 683 LINE",
"48 6 LINE",
"71 -13 LINE"
);
},
{
closed = 1;
nodes = (
"226 3 OFFCURVE",
"182 98 OFFCURVE",
"182 330 CURVE SMOOTH",
"182 562 OFFCURVE",
"226 658 OFFCURVE",
"335 658 CURVE SMOOTH",
"445 658 OFFCURVE",
"489 562 OFFCURVE",
"489 330 CURVE SMOOTH",
"489 98 OFFCURVE",
"445 3 OFFCURVE",
"335 3 CURVE SMOOTH"
);
}
);
width = 670;
}
);
leftKerningGroup = LAT_O;
leftMetricsKey = O;
rightKerningGroup = LAT_O;
rightMetricsKey = O;
unicode = 00D8;
},
{
color = 4;
glyphname = OE;
layers = (
{
anchors = (
{
name = aboveUC;
position = "{497, 686}";
}
);
layerId = "78A9F7DD-241B-40F2-ADB9-3345ED68833B";
paths = (
{
closed = 1;
nodes = (
"418 -18 OFFCURVE",
"466 -11 OFFCURVE",
"508 0 CURVE",
"882 0 LINE",
"888 154 LINE",
"878 154 LINE",
"834 53 LINE SMOOTH",
"825 30 OFFCURVE",
"808 20 OFFCURVE",
"784 20 CURVE SMOOTH",
"588 20 LINE",
"586 94 OFFCURVE",
"586 165 OFFCURVE",
"586 331 CURVE",
"690 331 LINE SMOOTH",
"710 331 OFFCURVE",
"724 323 OFFCURVE",
"733 304 CURVE SMOOTH",
"761 250 LINE",
"771 250 LINE",
"771 430 LINE",
"761 430 LINE",
"733 378 LINE SMOOTH",
"724 360 OFFCURVE",
"710 351 OFFCURVE",
"690 351 CURVE SMOOTH",
"586 351 LINE",
"586 470 OFFCURVE",
"586 555 OFFCURVE",
"588 640 CURVE",
"761 640 LINE SMOOTH",
"785 640 OFFCURVE",
"801 631 OFFCURVE",
"811 608 CURVE SMOOTH",
"858 506 LINE",
"868 506 LINE",
"862 660 LINE",
"508 660 LINE",
"463 672 OFFCURVE",
"416 678 OFFCURVE",
"372 678 CURVE SMOOTH",
"180 678 OFFCURVE",
"20 563 OFFCURVE",
"20 330 CURVE SMOOTH",
"20 97 OFFCURVE",
"180 -18 OFFCURVE",
"372 -18 CURVE SMOOTH"
);
},
{
closed = 1;
nodes = (
"247 2 OFFCURVE",
"182 142 OFFCURVE",
"182 330 CURVE SMOOTH",
"182 518 OFFCURVE",
"247 658 OFFCURVE",
"384 658 CURVE SMOOTH",
"391 658 OFFCURVE",
"398 657 OFFCURVE",
"403 656 CURVE SMOOTH",
"424 654 OFFCURVE",
"432 639 OFFCURVE",
"433 611 CURVE SMOOTH",
"435 508 OFFCURVE",
"435 420 OFFCURVE",
"435 350 CURVE SMOOTH",
"435 310 LINE SMOOTH",
"435 235 OFFCURVE",
"434 144 OFFCURVE",
"432 39 CURVE SMOOTH",
"432 19 OFFCURVE",
"421 5 OFFCURVE",
"403 4 CURVE SMOOTH",
"397 3 OFFCURVE",
"391 2 OFFCURVE",
"384 2 CURVE SMOOTH"
);
}
);
width = 915;
}
);
leftKerningGroup = LAT_O;
leftMetricsKey = O;
rightKerningGroup = LAT_E;
rightMetricsKey = E;
unicode = 0152;
},
{
color = 4;
glyphname = P;
layers = (
{
anchors = (
{
name = aboveUC;
position = "{255, 686}";
},
{
name = belowLC;
position = "{154, -22}";
}
);
layerId = "78A9F7DD-241B-40F2-ADB9-3345ED68833B";
paths = (
{
closed = 1;
nodes = (
"294 0 LINE",
"294 10 LINE",
"264 19 LINE SMOOTH",
"237 27 OFFCURVE",
"225 43 OFFCURVE",
"225 70 CURVE SMOOTH",
"225 134 OFFCURVE",
"225 197 OFFCURVE",
"225 254 CURVE",
"259 254 LINE SMOOTH",
"473 254 OFFCURVE",
"547 348 OFFCURVE",
"547 462 CURVE SMOOTH",
"547 581 OFFCURVE",
"464 660 OFFCURVE",
"265 660 CURVE SMOOTH",
"22 660 LINE",
"22 650 LINE",
"41 642 LINE SMOOTH",
"67 633 OFFCURVE",
"75 618 OFFCURVE",
"75 591 CURVE SMOOTH",
"75 511 OFFCURVE",
"75 430 OFFCURVE",
"75 350 CURVE SMOOTH",
"75 310 LINE SMOOTH",
"75 228 OFFCURVE",
"75 147 OFFCURVE",
"75 67 CURVE SMOOTH",
"75 40 OFFCURVE",
"68 25 OFFCURVE",
"42 17 CURVE SMOOTH",
"22 10 LINE",
"22 0 LINE"
);
},
{
closed = 1;
nodes = (
"225 350 LINE SMOOTH",
"225 448 OFFCURVE",
"225 545 OFFCURVE",
"225 640 CURVE",
"259 640 LINE SMOOTH",
"354 640 OFFCURVE",
"404 601 OFFCURVE",
"404 457 CURVE SMOOTH",
"404 314 OFFCURVE",
"360 274 OFFCURVE",
"263 274 CURVE SMOOTH",
"225 274 LINE"
);
}
);
width = 565;
}
);
leftKerningGroup = LAT_E;
leftMetricsKey = H;
unicode = 0050;
},
{
color = 4;
glyphname = Thorn;
layers = (
{
layerId = "78A9F7DD-241B-40F2-ADB9-3345ED68833B";
paths = (
{
closed = 1;
nodes = (
"276 0 LINE",
"276 10 LINE",
"261 16 LINE SMOOTH",
"237 24 OFFCURVE",
"225 41 OFFCURVE",
"225 67 CURVE SMOOTH",
"225 93 OFFCURVE",
"224 118 OFFCURVE",
"224 143 CURVE",
"268 143 LINE SMOOTH",
"495 143 OFFCURVE",
"559 232 OFFCURVE",
"559 344 CURVE SMOOTH",
"559 462 OFFCURVE",
"479 535 OFFCURVE",
"283 535 CURVE SMOOTH",
"224 535 LINE",
"224 554 OFFCURVE",
"225 574 OFFCURVE",
"225 593 CURVE SMOOTH",
"225 619 OFFCURVE",
"237 635 OFFCURVE",
"261 644 CURVE",
"276 650 LINE",
"276 660 LINE",
"22 660 LINE",
"22 650 LINE",
"38 644 LINE SMOOTH",
"62 636 OFFCURVE",
"74 619 OFFCURVE",
"74 593 CURVE SMOOTH",
"75 515 OFFCURVE",
"75 421 OFFCURVE",
"75 350 CURVE SMOOTH",
"75 310 LINE SMOOTH",
"75 238 OFFCURVE",
"75 143 OFFCURVE",
"74 67 CURVE SMOOTH",
"74 40 OFFCURVE",
"62 24 OFFCURVE",
"38 16 CURVE SMOOTH",
"22 10 LINE",
"22 0 LINE"
);
},
{
closed = 1;
nodes = (
"223 214 OFFCURVE",
"223 266 OFFCURVE",
"223 317 CURVE",
"223 350 LINE",
"223 405 OFFCURVE",
"223 460 OFFCURVE",
"224 515 CURVE",
"275 515 LINE SMOOTH",
"371 515 OFFCURVE",
"415 472 OFFCURVE",
"415 341 CURVE SMOOTH",
"415 212 OFFCURVE",
"364 163 OFFCURVE",
"276 163 CURVE SMOOTH",
"223 163 LINE"
);
}
);
width = 577;
}
);
leftKerningGroup = LAT_E;
leftMetricsKey = H;
rightMetricsKey = P;
unicode = 00DE;
},
{
color = 9;
glyphname = Q;
layers = (
{
anchors = (
{
name = aboveUC;
position = "{351, 686}";
}
);
components = (
{
alignment = -1;
name = O;
}
);
layerId = "78A9F7DD-241B-40F2-ADB9-3345ED68833B";
paths = (
{
closed = 1;
nodes = (
"506 -225 OFFCURVE",
"532 -204 OFFCURVE",
"561 -173 CURVE SMOOTH",
"612 -118 LINE",
"604 -107 LINE",
"577 -124 LINE SMOOTH",
"555 -138 OFFCURVE",
"535 -138 OFFCURVE",
"483 -127 CURVE SMOOTH",
"367 -103 OFFCURVE",
"238 -74 OFFCURVE",
"150 -52 CURVE",
"127 -117 LINE",
"225 21 LINE",
"200 34 LINE",
"63 -181 LINE",
"75 -190 LINE",
"87 -178 LINE SMOOTH",
"103 -161 OFFCURVE",
"119 -159 OFFCURVE",
"141 -164 CURVE SMOOTH",
"244 -186 OFFCURVE",
"415 -225 OFFCURVE",
"471 -225 CURVE SMOOTH"
);
}
);
width = 670;
}
);
leftKerningGroup = LAT_O;
leftMetricsKey = O;
widthMetricsKey = O;
rightKerningGroup = LAT_O;
unicode = 0051;
},
{
color = 4;
glyphname = R;
layers = (
{
anchors = (
{
name = aboveUC;
position = "{272, 686}";
},
{
name = belowLC;
position = "{331, -22}";
}
);
layerId = "78A9F7DD-241B-40F2-ADB9-3345ED68833B";
paths = (
{
closed = 1;
nodes = (
"278 0 LINE",
"278 10 LINE",
"254 19 LINE SMOOTH",
"229 27 OFFCURVE",
"223 42 OFFCURVE",
"223 68 CURVE SMOOTH",
"223 135 OFFCURVE",
"223 210 OFFCURVE",
"223 315 CURVE",
"291 315 LINE",
"439 0 LINE",
"618 0 LINE",
"618 9 LINE",
"605 14 LINE SMOOTH",
"579 24 OFFCURVE",
"566 37 OFFCURVE",
"554 60 CURVE SMOOTH",
"410 346 LINE",
"325 318 LINE",
"483 331 OFFCURVE",
"552 418 OFFCURVE",
"552 492 CURVE SMOOTH",
"552 597 OFFCURVE",
"465 660 OFFCURVE",
"308 660 CURVE SMOOTH",
"22 660 LINE",
"22 650 LINE",
"45 641 LINE SMOOTH",
"70 632 OFFCURVE",
"75 618 OFFCURVE",
"75 591 CURVE SMOOTH",
"75 511 OFFCURVE",
"75 430 OFFCURVE",
"75 350 CURVE SMOOTH",
"75 310 LINE SMOOTH",
"75 228 OFFCURVE",
"75 147 OFFCURVE",
"75 68 CURVE SMOOTH",
"75 40 OFFCURVE",
"69 26 OFFCURVE",
"43 17 CURVE SMOOTH",
"22 10 LINE",
"22 0 LINE"
);
},
{
closed = 1;
nodes = (
"223 494 OFFCURVE",
"223 563 OFFCURVE",
"223 640 CURVE",
"276 640 LINE SMOOTH",
"370 640 OFFCURVE",
"407 590 OFFCURVE",
"407 488 CURVE SMOOTH",
"407 386 OFFCURVE",
"367 335 OFFCURVE",
"271 335 CURVE SMOOTH",
"223 335 LINE"
);
}
);
width = 628;
}
);
leftKerningGroup = LAT_E;
leftMetricsKey = H;
rightKerningGroup = LAT_R;
unicode = 0052;
},
{
color = 4;
glyphname = S;
layers = (
{
anchors = (
{
name = aboveUC;
position = "{262, 686}";
},
{
name = baseLC;
position = "{244, 0}";
},
{
name = belowLC;
position = "{246, -22}";
}
);
layerId = "78A9F7DD-241B-40F2-ADB9-3345ED68833B";
paths = (
{
closed = 1;
nodes = (
"400 -18 OFFCURVE",
"492 63 OFFCURVE",
"492 181 CURVE SMOOTH",
"492 281 OFFCURVE",
"440 337 OFFCURVE",
"312 393 CURVE SMOOTH",
"266 413 LINE SMOOTH",
"197 445 OFFCURVE",
"160 481 OFFCURVE",
"160 549 CURVE SMOOTH",
"160 616 OFFCURVE",
"213 658 OFFCURVE",
"281 658 CURVE SMOOTH",
"304 658 OFFCURVE",
"315 656 OFFCURVE",
"333 651 CURVE SMOOTH",
"362 643 OFFCURVE",
"383 627 OFFCURVE",
"406 581 CURVE SMOOTH",
"447 506 LINE",
"457 506 LINE",
"463 626 LINE",
"416 658 OFFCURVE",
"351 678 OFFCURVE",
"280 678 CURVE SMOOTH",
"134 678 OFFCURVE",
"37 605 OFFCURVE",
"37 487 CURVE SMOOTH",
"37 378 OFFCURVE",
"105 319 OFFCURVE",
"220 268 CURVE SMOOTH",
"261 250 LINE SMOOTH",
"332 215 OFFCURVE",
"362 185 OFFCURVE",
"362 120 CURVE SMOOTH",
"362 51 OFFCURVE",
"311 2 OFFCURVE",
"230 2 CURVE SMOOTH",
"199 2 OFFCURVE",
"177 6 OFFCURVE",
"150 19 CURVE SMOOTH",
"113 35 OFFCURVE",
"95 65 OFFCURVE",
"76 102 CURVE SMOOTH",
"45 167 LINE",
"35 167 LINE",
"30 31 LINE",
"80 2 OFFCURVE",
"163 -18 OFFCURVE",
"237 -18 CURVE SMOOTH"
);
}
);
width = 521;
}
);
leftKerningGroup = LAT_S;
rightKerningGroup = LAT_S;
unicode = 0053;
},
{
color = 4;
glyphname = T;
layers = (
{
anchors = (
{
name = aboveUC;
position = "{313, 686}";
},
{
name = baseLC;
position = "{313, 0}";
},
{
name = belowLC;
position = "{313, -22}";
}
);
layerId = "78A9F7DD-241B-40F2-ADB9-3345ED68833B";
paths = (
{
closed = 1;
nodes = (
"471 0 LINE",
"471 10 LINE",
"430 20 LINE SMOOTH",
"403 26 OFFCURVE",
"389 43 OFFCURVE",
"389 70 CURVE SMOOTH",
"389 150 OFFCURVE",
"389 230 OFFCURVE",
"389 311 CURVE SMOOTH",
"389 350 LINE SMOOTH",
"389 448 OFFCURVE",
"389 545 OFFCURVE",
"389 640 CURVE",
"474 640 LINE SMOOTH",
"523 640 OFFCURVE",
"537 612 OFFCURVE",
"560 567 CURVE SMOOTH",
"596 497 LINE",
"606 497 LINE",
"602 660 LINE",
"25 660 LINE",
"20 497 LINE",
"30 497 LINE",
"66 567 LINE SMOOTH",
"90 612 OFFCURVE",
"104 640 OFFCURVE",
"153 640 CURVE SMOOTH",
"238 640 LINE",
"238 544 OFFCURVE",
"238 446 OFFCURVE",
"238 350 CURVE SMOOTH",
"238 310 LINE SMOOTH",
"238 229 OFFCURVE",
"238 149 OFFCURVE",
"238 70 CURVE SMOOTH",
"238 43 OFFCURVE",
"224 26 OFFCURVE",
"197 20 CURVE SMOOTH",
"156 10 LINE",
"156 0 LINE"
);
}
);
width = 627;
}
);
leftKerningGroup = LAT_T;
rightKerningGroup = LAT_T;
unicode = 0054;
},
{
color = 4;
glyphname = U;
layers = (
{
anchors = (
{
name = aboveUC;
position = "{400, 686}";
},
{
name = belowLC;
position = "{353, -22}";
},
{
name = hornLC;
position = "{574, 680}";
},
{
name = ogonek;
position = "{425, 0}";
}
);
layerId = "78A9F7DD-241B-40F2-ADB9-3345ED68833B";
paths = (
{
closed = 1;
nodes = (
"478 -18 OFFCURVE",
"571 76 OFFCURVE",
"571 223 CURVE SMOOTH",
"571 589 LINE SMOOTH",
"571 616 OFFCURVE",
"576 637 OFFCURVE",
"602 643 CURVE SMOOTH",
"629 650 LINE",
"629 660 LINE",
"489 660 LINE",
"489 650 LINE",
"514 644 LINE SMOOTH",
"541 637 OFFCURVE",
"547 615 OFFCURVE",
"547 588 CURVE SMOOTH",
"547 221 LINE SMOOTH",
"547 106 OFFCURVE",
"483 41 OFFCURVE",
"382 41 CURVE SMOOTH",
"284 41 OFFCURVE",
"231 99 OFFCURVE",
"231 223 CURVE SMOOTH",
"231 358 LINE SMOOTH",
"231 436 OFFCURVE",
"231 515 OFFCURVE",
"231 592 CURVE SMOOTH",
"231 619 OFFCURVE",
"243 636 OFFCURVE",
"268 642 CURVE SMOOTH",
"297 650 LINE",
"297 660 LINE",
"20 660 LINE",
"20 650 LINE",
"42 644 LINE SMOOTH",
"68 636 OFFCURVE",
"81 621 OFFCURVE",
"81 594 CURVE SMOOTH",
"81 515 OFFCURVE",
"81 436 OFFCURVE",
"81 358 CURVE SMOOTH",
"81 249 LINE SMOOTH",
"81 57 OFFCURVE",
"186 -18 OFFCURVE",
"339 -18 CURVE SMOOTH"
);
}
);
width = 649;
}
);
leftKerningGroup = LAT_U;
rightKerningGroup = LAT_U;
unicode = 0055;
},
{
color = 4;
glyphname = V;
layers = (
{
anchors = (
{
name = aboveUC;
position = "{353, 686}";
},
{
name = belowLC;
position = "{330, -22}";
}
);
layerId = "78A9F7DD-241B-40F2-ADB9-3345ED68833B";
paths = (
{
closed = 1;
nodes = (
"358 -3 LINE",
"558 592 LINE SMOOTH",
"567 619 OFFCURVE",
"574 635 OFFCURVE",
"600 642 CURVE SMOOTH",
"627 650 LINE",
"627 660 LINE",
"487 660 LINE",
"487 650 LINE",
"513 643 LINE SMOOTH",
"543 635 OFFCURVE",
"539 614 OFFCURVE",
"529 584 CURVE SMOOTH",
"380 144 LINE",
"232 583 LINE SMOOTH",
"222 612 OFFCURVE",
"222 633 OFFCURVE",
"253 641 CURVE SMOOTH",
"284 650 LINE",
"284 660 LINE",
"-4 660 LINE",
"-4 650 LINE",
"20 642 LINE SMOOTH",
"47 634 OFFCURVE",
"61 619 OFFCURVE",
"70 593 CURVE SMOOTH",
"284 -3 LINE"
);
}
);
width = 632;
}
);
unicode = 0056;
},
{
color = 4;
glyphname = W;
layers = (
{
anchors = (
{
name = aboveUC;
position = "{509, 686}";
},
{
name = belowLC;
position = "{475, -22}";
}
);
layerId = "78A9F7DD-241B-40F2-ADB9-3345ED68833B";
paths = (
{
closed = 1;
nodes = (
"678 -3 LINE",
"844 581 LINE SMOOTH",
"852 610 OFFCURVE",
"859 630 OFFCURVE",
"886 640 CURVE SMOOTH",
"912 650 LINE",
"912 660 LINE",
"773 660 LINE",
"773 650 LINE",
"794 643 LINE SMOOTH",
"824 632 OFFCURVE",
"823 607 OFFCURVE",
"814 575 CURVE SMOOTH",
"694 158 LINE",
"567 583 LINE SMOOTH",
"558 611 OFFCURVE",
"558 628 OFFCURVE",
"585 638 CURVE SMOOTH",
"616 650 LINE",
"616 660 LINE",
"365 660 LINE",
"365 650 LINE",
"387 638 LINE SMOOTH",
"405 628 OFFCURVE",
"411 616 OFFCURVE",
"420 588 CURVE SMOOTH",
"609 -3 LINE"
);
},
{
closed = 1;
nodes = (
"305 -3 LINE",
"468 496 LINE",
"450 538 LINE",
"325 168 LINE",
"216 584 LINE SMOOTH",
"207 615 OFFCURVE",
"217 630 OFFCURVE",
"248 642 CURVE SMOOTH",
"269 650 LINE",
"269 660 LINE",
"4 660 LINE",
"4 650 LINE",
"16 645 LINE SMOOTH",
"43 633 OFFCURVE",
"50 622 OFFCURVE",
"59 592 CURVE SMOOTH",
"236 -3 LINE"
);
}
);
width = 921;
}
);
leftKerningGroup = LAT_W;
rightKerningGroup = LAT_W;
unicode = 0057;
},
{
color = 4;
glyphname = X;
layers = (
{
anchors = (
{
name = aboveUC;
position = "{307, 686}";
},
{
name = belowLC;
position = "{281, -22}";
}
);
layerId = "78A9F7DD-241B-40F2-ADB9-3345ED68833B";
paths = (
{
closed = 1;
nodes = (
"145 0 LINE",
"145 10 LINE",
"131 14 LINE SMOOTH",
"106 21 OFFCURVE",
"103 44 OFFCURVE",
"120 71 CURVE SMOOTH",
"251 278 LINE",
"370 75 LINE SMOOTH",
"387 47 OFFCURVE",
"385 24 OFFCURVE",
"353 16 CURVE SMOOTH",
"330 10 LINE",
"330 0 LINE",
"610.005 0 LINE",
"610.005 10 LINE",
"591 18 LINE SMOOTH",
"567 29 OFFCURVE",
"556 39 OFFCURVE",
"542 63 CURVE SMOOTH",
"352 388 LINE",
"486 597 LINE SMOOTH",
"501 619 OFFCURVE",
"512 635 OFFCURVE",
"537 642 CURVE SMOOTH",
"563 650 LINE",
"563 660 LINE",
"424 660 LINE",
"424 650 LINE",
"444 645 LINE SMOOTH",
"475 637 OFFCURVE",
"466 612 OFFCURVE",
"449 584 CURVE SMOOTH",
"339 410 LINE",
"236 585 LINE SMOOTH",
"220 613 OFFCURVE",
"221 634 OFFCURVE",
"249 643 CURVE SMOOTH",
"272 650 LINE",
"272 660 LINE",
"4 660 LINE",
"4 650 LINE",
"20 643 LINE SMOOTH",
"45 632 OFFCURVE",
"49 622 OFFCURVE",
"63 599 CURVE SMOOTH",
"238 301 LINE",
"84 63 LINE SMOOTH",
"68 39 OFFCURVE",
"55 24 OFFCURVE",
"27 15 CURVE SMOOTH",
"10 10 LINE",
"10 0 LINE"
);
}
);
width = 614;
}
);
unicode = 0058;
},
{
color = 4;
glyphname = Y;
layers = (
{
anchors = (
{
name = aboveUC;
position = "{337, 686}";
},
{
name = belowLC;
position = "{303, -22}";
}
);
layerId = "78A9F7DD-241B-40F2-ADB9-3345ED68833B";
paths = (
{
closed = 1;
nodes = (
"446 0 LINE",
"446 10 LINE",
"415 18 LINE SMOOTH",
"390 25 OFFCURVE",
"381 41 OFFCURVE",
"381 68 CURVE SMOOTH",
"381 133 OFFCURVE",
"381 202 OFFCURVE",
"381 304 CURVE",
"518 592 LINE SMOOTH",
"530 617 OFFCURVE",
"538 634 OFFCURVE",
"564 643 CURVE SMOOTH",
"583 650 LINE",
"583 660 LINE",
"463 660 LINE",
"463 650 LINE",
"477 645 LINE SMOOTH",
"503 638 OFFCURVE",
"502 611 OFFCURVE",
"492 590 CURVE SMOOTH",
"360 318 LINE",
"242 580 LINE SMOOTH",
"228 611 OFFCURVE",
"229 631 OFFCURVE",
"258 643 CURVE SMOOTH",
"276 650 LINE",
"276 660 LINE",
"8 660 LINE",
"8 650 LINE",
"26 641 LINE SMOOTH",
"46 632 OFFCURVE",
"53 620 OFFCURVE",
"65 594 CURVE SMOOTH",
"230 258 LINE",
"230 180 OFFCURVE",
"230 119 OFFCURVE",
"230 68 CURVE SMOOTH",
"230 41 OFFCURVE",
"220 25 OFFCURVE",
"195 18 CURVE SMOOTH",
"165 10 LINE",
"165 0 LINE"
);
}
);
width = 590;
}
);
leftKerningGroup = LAT_Y;
rightKerningGroup = LAT_Y;
unicode = 0059;
},
{
color = 4;
glyphname = Z;
layers = (
{
anchors = (
{
name = aboveUC;
position = "{292, 686}";
},
{
name = belowLC;
position = "{288, -22}";
}
);
layerId = "78A9F7DD-241B-40F2-ADB9-3345ED68833B";
paths = (
{
closed = 1;
nodes = (
"532 0 LINE",
"539 160 LINE",
"529 160 LINE",
"486 80 LINE SMOOTH",
"465 41 OFFCURVE",
"442 20 OFFCURVE",
"398 20 CURVE SMOOTH",
"180 20 LINE",
"527 648 LINE",
"527 660 LINE",
"38 660 LINE",
"31 500 LINE",
"41 500 LINE",
"87 581 LINE SMOOTH",
"108 619 OFFCURVE",
"133 640 OFFCURVE",
"177 640 CURVE SMOOTH",
"367 640 LINE",
"20 12 LINE",
"20 0 LINE"
);
}
);
width = 560;
}
);
leftKerningGroup = LAT_Z;
rightKerningGroup = LAT_Z;
unicode = 005A;
},
{
color = 0;
export = 0;
glyphname = Hbar;
layers = (
{
layerId = "78A9F7DD-241B-40F2-ADB9-3345ED68833B";
paths = (
{
closed = 1;
nodes = (
"593 594 LINE",
"733 609 LINE",
"733 660 LINE",
"426 660 LINE",
"426 609 LINE",
"566 594 LINE"
);
},
{
closed = 1;
nodes = (
"426 51 LINE",
"426 0 LINE",
"733 0 LINE",
"733 51 LINE",
"593 66 LINE",
"566 66 LINE"
);
},
{
closed = 1;
nodes = (
"503 205 OFFCURVE",
"503 101 OFFCURVE",
"500 0 CURVE",
"656 0 LINE",
"653 103 OFFCURVE",
"653 207 OFFCURVE",
"653 310 CURVE SMOOTH",
"653 350 LINE SMOOTH",
"653 455 OFFCURVE",
"653 559 OFFCURVE",
"656 660 CURVE",
"500 660 LINE",
"503 557 OFFCURVE",
"503 453 OFFCURVE",
"503 355 CURVE SMOOTH",
"503 319 LINE SMOOTH"
);
},
{
closed = 1;
nodes = (
"115 205 OFFCURVE",
"115 101 OFFCURVE",
"112 0 CURVE",
"269 0 LINE",
"266 103 OFFCURVE",
"266 207 OFFCURVE",
"266 319 CURVE SMOOTH",
"266 355 LINE SMOOTH",
"266 455 OFFCURVE",
"266 559 OFFCURVE",
"269 660 CURVE",
"112 660 LINE",
"115 557 OFFCURVE",
"115 453 OFFCURVE",
"115 350 CURVE SMOOTH",
"115 310 LINE SMOOTH"
);
},
{
closed = 1;
nodes = (
"201 594 LINE",
"343 609 LINE",
"343 660 LINE",
"35 660 LINE",
"35 609 LINE",
"173 594 LINE"
);
},
{
closed = 1;
nodes = (
"35 51 LINE",
"35 0 LINE",
"343 0 LINE",
"343 51 LINE",
"201 66 LINE",
"173 66 LINE"
);
},
{
closed = 1;
nodes = (
"578 341 LINE",
"191 341 LINE",
"191 285 LINE",
"578 285 LINE"
);
},
{
closed = 1;
nodes = (
"745 447 LINE",
"745 503 LINE",
"23 503 LINE",
"23 447 LINE"
);
}
);
width = 769;
}
);
leftKerningGroup = LAT_E;
rightKerningGroup = LAT_H;
unicode = 0126;
},
{
color = 0;
export = 0;
glyphname = Germandbls;
layers = (
{
layerId = "78A9F7DD-241B-40F2-ADB9-3345ED68833B";
paths = (
{
closed = 1;
nodes = (
"196 0 LINE",
"196 63 LINE",
"177 63 LINE",
"35 48 LINE",
"35 0 LINE"
);
},
{
closed = 1;
nodes = (
"270 0 LINE",
"267 102 OFFCURVE",
"267 206 OFFCURVE",
"267 294 CURVE SMOOTH",
"267 427 LINE SMOOTH",
"267 568 OFFCURVE",
"307 620 OFFCURVE",
"433 620 CURVE SMOOTH",
"494 620 OFFCURVE",
"534 612 OFFCURVE",
"589 597 CURVE",
"589 623 LINE",
"472 594 OFFCURVE",
"398 515 OFFCURVE",
"398 425 CURVE SMOOTH",
"398 358 OFFCURVE",
"424 317 OFFCURVE",
"480 265 CURVE SMOOTH",
"509 239 LINE SMOOTH",
"551 199 OFFCURVE",
"568 171 OFFCURVE",
"568 130 CURVE SMOOTH",
"568 77 OFFCURVE",
"536 38 OFFCURVE",
"484 38 CURVE SMOOTH",
"462 38 OFFCURVE",
"442 43 OFFCURVE",
"412 60 CURVE",
"461 7 LINE",
"430 173 LINE",
"355 173 LINE",
"349 30 LINE",
"389 -3 OFFCURVE",
"447 -18 OFFCURVE",
"502 -18 CURVE SMOOTH",
"640 -18 OFFCURVE",
"707 78 OFFCURVE",
"707 167 CURVE SMOOTH",
"707 235 OFFCURVE",
"677 289 OFFCURVE",
"611 346 CURVE SMOOTH",
"583 370 LINE SMOOTH",
"552 397 OFFCURVE",
"533 424 OFFCURVE",
"533 476 CURVE SMOOTH",
"533 532 OFFCURVE",
"559 570 OFFCURVE",
"612 595 CURVE",
"612 630 LINE",
"559 659 OFFCURVE",
"488 678 OFFCURVE",
"417 678 CURVE SMOOTH",
"204 678 OFFCURVE",
"116 600 OFFCURVE",
"116 408 CURVE SMOOTH",
"116 316 LINE SMOOTH",
"116 211 OFFCURVE",
"116 102 OFFCURVE",
"113 0 CURVE"
);
}
);
width = 728;
}
);
unicode = 1E9E;
},
{
color = 0;
export = 0;
glyphname = Schwa;
layers = (
{
anchors = (
{
name = aboveUC;
position = "{329, 686}";
},
{
name = belowLC;
position = "{335, -22}";
}
);
layerId = "78A9F7DD-241B-40F2-ADB9-3345ED68833B";
paths = (
{
closed = 1;
nodes = (
"37 103 OFFCURVE",
"140 -18 OFFCURVE",
"330 -18 CURVE SMOOTH",
"486 -18 OFFCURVE",
"625 104 OFFCURVE",
"625 333 CURVE SMOOTH",
"625 551 OFFCURVE",
"493 678 OFFCURVE",
"311 678 CURVE SMOOTH",
"220 678 OFFCURVE",
"137 641 OFFCURVE",
"83 574 CURVE",
"113 536 LINE",
"157 581 OFFCURVE",
"218 609 OFFCURVE",
"286 609 CURVE SMOOTH",
"397 609 OFFCURVE",
"466 517 OFFCURVE",
"466 325 CURVE SMOOTH",
"466 128 OFFCURVE",
"416 38 OFFCURVE",
"332 38 CURVE SMOOTH",
"254 38 OFFCURVE",
"193 106 OFFCURVE",
"193 228 CURVE SMOOTH",
"193 259 OFFCURVE",
"195 283 OFFCURVE",
"199 309 CURVE",
"541 309 LINE",
"541 365 LINE",
"43 365 LINE",
"39 341 OFFCURVE",
"37 310 OFFCURVE",
"37 277 CURVE SMOOTH"
);
}
);
width = 662;
}
);
leftKerningGroup = LAT_O;
rightKerningGroup = LAT_O;
unicode = 018F;
},
{
color = 0;
export = 0;
glyphname = Uhorn;
layers = (
{
anchors = (
{
name = aboveUC;
position = "{392, 686}";
},
{
name = belowLC;
position = "{380, -22}";
}
);
layerId = "78A9F7DD-241B-40F2-ADB9-3345ED68833B";
paths = (
{
closed = 1;
nodes = (
"259 358 LINE SMOOTH",
"259 459 OFFCURVE",
"259 561 OFFCURVE",
"262 660 CURVE",
"105 660 LINE",
"108 559 OFFCURVE",
"108 457 OFFCURVE",
"108 358 CURVE SMOOTH",
"108 249 LINE SMOOTH",
"108 57 OFFCURVE",
"213 -18 OFFCURVE",
"361 -18 CURVE SMOOTH",
"519 -18 OFFCURVE",
"618 69 OFFCURVE",
"618 281 CURVE SMOOTH",
"618 660 LINE",
"557 660 LINE",
"557 287 LINE SMOOTH",
"557 130 OFFCURVE",
"502 68 OFFCURVE",
"407 68 CURVE SMOOTH",
"310 68 OFFCURVE",
"259 123 OFFCURVE",
"259 280 CURVE SMOOTH"
);
},
{
closed = 1;
nodes = (
"203 594 LINE",
"348 609 LINE",
"348 660 LINE",
"32 660 LINE",
"32 609 LINE",
"176 594 LINE"
);
},
{
closed = 1;
nodes = (
"598 660 LINE",
"463 660 LINE",
"463 609 LINE",
"570 599 LINE",
"598 599 LINE"
);
},
{
closed = 1;
nodes = (
"691 604 OFFCURVE",
"756 647 OFFCURVE",
"756 746 CURVE SMOOTH",
"756 765 OFFCURVE",
"754 780 OFFCURVE",
"745 800 CURVE",
"731 812 OFFCURVE",
"716 815 OFFCURVE",
"701 815 CURVE SMOOTH",
"670 815 OFFCURVE",
"648 791 OFFCURVE",
"648 768 CURVE SMOOTH",
"648 731 OFFCURVE",
"679 713 OFFCURVE",
"679 690 CURVE SMOOTH",
"679 669 OFFCURVE",
"652 660 OFFCURVE",
"584 660 CURVE",
"584 600 LINE"
);
}
);
width = 730;
}
);
leftKerningGroup = LAT_U;
rightKerningGroup = LAT_U;
unicode = 01AF;
},
{
color = 8;
export = 0;
glyphname = K.001;
lastChange = "2019-06-06 17:29:56 +0000";
layers = (
{
anchors = (
{
name = aboveUC;
position = "{335, 686}";
},
{
name = belowLC;
position = "{343, -22}";
}
);
layerId = "78A9F7DD-241B-40F2-ADB9-3345ED68833B";
paths = (
{
closed = 1;
nodes = (
"284.992 0 LINE",
"284.992 10 LINE",
"265 18 LINE SMOOTH",
"240 27 OFFCURVE",
"233 40 OFFCURVE",
"233 67 CURVE SMOOTH",
"233 132 OFFCURVE",
"233 196 OFFCURVE",
"233 257 CURVE",
"293 330 LINE",
"425 69 LINE SMOOTH",
"439 42 OFFCURVE",
"435 22 OFFCURVE",
"407 14 CURVE SMOOTH",
"393 10 LINE",
"393 0 LINE",
"655 0 LINE",
"655 10 LINE",
"642 14 LINE SMOOTH",
"610 26 OFFCURVE",
"601 39 OFFCURVE",
"584 72 CURVE SMOOTH",
"386 441 LINE",
"516 597 LINE SMOOTH",
"537 622 OFFCURVE",
"546 632 OFFCURVE",
"577 642 CURVE SMOOTH",
"602 650 LINE",
"602 660 LINE",
"457 660 LINE",
"457 650 LINE",
"473 645 LINE SMOOTH",
"503 635 OFFCURVE",
"499 614 OFFCURVE",
"479 590 CURVE SMOOTH",
"233 293 LINE",
"233 350 LINE SMOOTH",
"233 431 OFFCURVE",
"233 511 OFFCURVE",
"233 590 CURVE SMOOTH",
"233 618 OFFCURVE",
"239 633 OFFCURVE",
"262 641 CURVE SMOOTH",
"285 650 LINE",
"285 660 LINE",
"35 660 LINE",
"35 650 LINE",
"57 642 LINE SMOOTH",
"83 632 OFFCURVE",
"89 618 OFFCURVE",
"89 591 CURVE SMOOTH",
"89 511 OFFCURVE",
"89 430 OFFCURVE",
"89 350 CURVE SMOOTH",
"89 310 LINE SMOOTH",
"89 228 OFFCURVE",
"89 148 OFFCURVE",
"89 68 CURVE SMOOTH",
"89 42 OFFCURVE",
"83 27 OFFCURVE",
"57 18 CURVE SMOOTH",
"35 10 LINE",
"35 0 LINE"
);
}
);
width = 634;
}
);
leftKerningGroup = LAT_E;
leftMetricsKey = H;
rightKerningGroup = LAT_K;
},
{
color = 8;
export = 0;
glyphname = Q.001;
lastChange = "2019-06-06 17:29:56 +0000";
layers = (
{
anchors = (
{
name = aboveUC;
position = "{351, 686}";
}
);
components = (
{
alignment = -1;
name = O;
}
);
layerId = "78A9F7DD-241B-40F2-ADB9-3345ED68833B";
paths = (
{
closed = 1;
nodes = (
"614 -191 OFFCURVE",
"661 -170 OFFCURVE",
"693 -148 CURVE",
"684 -130 LINE",
"656 -145 OFFCURVE",
"628 -154 OFFCURVE",
"595 -154 CURVE SMOOTH",
"511 -154 OFFCURVE",
"445 -117 OFFCURVE",
"428 12 CURVE",
"347 -10 LINE",
"279 18 LINE",
"300 -97 OFFCURVE",
"388 -191 OFFCURVE",
"554 -191 CURVE SMOOTH"
);
}
);
width = 703;
}
);
leftKerningGroup = LAT_O;
leftMetricsKey = O;
widthMetricsKey = O;
rightKerningGroup = LAT_O;
},
{
color = 8;
export = 0;
glyphname = W.002;
lastChange = "2019-06-06 17:29:56 +0000";
layers = (
{
anchors = (
{
name = aboveUC;
position = "{508, 686}";
},
{
name = belowLC;
position = "{474, -22}";
}
);
layerId = "78A9F7DD-241B-40F2-ADB9-3345ED68833B";
paths = (
{
closed = 1;
nodes = (
"303 -3 LINE",
"453 500 LINE",
"612 -3 LINE",
"682 -3 LINE",
"851 581 LINE SMOOTH",
"859 610 OFFCURVE",
"866 630 OFFCURVE",
"893 640 CURVE SMOOTH",
"919 650 LINE",
"919 660 LINE",
"779 660 LINE",
"779 650 LINE",
"801 643 LINE SMOOTH",
"831 632 OFFCURVE",
"831 607 OFFCURVE",
"822 575 CURVE SMOOTH",
"701 158 LINE",
"574 583 LINE SMOOTH",
"566 611 OFFCURVE",
"568 629 OFFCURVE",
"595 638 CURVE SMOOTH",
"631 650 LINE",
"631 660 LINE",
"398 660 LINE",
"398 650 LINE",
"423 641 LINE SMOOTH",
"450 632 OFFCURVE",
"458 612 OFFCURVE",
"450 584 CURVE SMOOTH",
"324 168 LINE",
"216 584 LINE SMOOTH",
"207 615 OFFCURVE",
"216 636 OFFCURVE",
"248 644 CURVE SMOOTH",
"269 650 LINE",
"269 660 LINE",
"3 660 LINE",
"3 650 LINE",
"14 646 LINE SMOOTH",
"42 637 OFFCURVE",
"49 622 OFFCURVE",
"58 592 CURVE SMOOTH",
"234 -3 LINE"
);
}
);
width = 923;
}
);
leftKerningGroup = LAT_W;
rightKerningGroup = LAT_W;
},
{
color = 4;
glyphname = a;
layers = (
{
anchors = (
{
name = aboveLC;
position = "{255, 514}";
},
{
name = belowLC;
position = "{251, -22}";
},
{
name = ogonek;
position = "{466, 6}";
}
);
layerId = "78A9F7DD-241B-40F2-ADB9-3345ED68833B";
paths = (
{
closed = 1;
nodes = (
"232 -15 OFFCURVE",
"269 19 OFFCURVE",
"309 62 CURVE",
"320 16 OFFCURVE",
"353 -13 OFFCURVE",
"412 -13 CURVE SMOOTH",
"466 -13 OFFCURVE",
"492 5 OFFCURVE",
"517 37 CURVE",
"508 45 LINE",
"486 45 LINE SMOOTH",
"457 45 OFFCURVE",
"444 60 OFFCURVE",
"444 90 CURVE SMOOTH",
"444 311 LINE SMOOTH",
"444 442 OFFCURVE",
"377 496 OFFCURVE",
"258 496 CURVE SMOOTH",
"147 496 OFFCURVE",
"52 453 OFFCURVE",
"52 371 CURVE SMOOTH",
"52 335 OFFCURVE",
"77 312 OFFCURVE",
"112 312 CURVE SMOOTH",
"149 312 OFFCURVE",
"177 337 OFFCURVE",
"180 395 CURVE SMOOTH",
"182 406 LINE SMOOTH",
"187 456 OFFCURVE",
"206 475 OFFCURVE",
"238 475 CURVE SMOOTH",
"238 475 OFFCURVE",
"238 475 OFFCURVE",
"238 475 CURVE SMOOTH",
"285 475 OFFCURVE",
"306 443 OFFCURVE",
"306 352 CURVE SMOOTH",
"306 273 LINE",
"277 268 OFFCURVE",
"249 263 OFFCURVE",
"228 259 CURVE SMOOTH",
"90 232 OFFCURVE",
"29 176 OFFCURVE",
"29 113 CURVE SMOOTH",
"29 30 OFFCURVE",
"89 -15 OFFCURVE",
"166 -15 CURVE SMOOTH"
);
},
{
closed = 1;
nodes = (
"191 46 OFFCURVE",
"162 73 OFFCURVE",
"162 128 CURVE SMOOTH",
"162 192 OFFCURVE",
"202 229 OFFCURVE",
"263 245 CURVE SMOOTH",
"280 248 OFFCURVE",
"292 250 OFFCURVE",
"306 253 CURVE",
"306 85 LINE",
"274 58 OFFCURVE",
"253 46 OFFCURVE",
"227 46 CURVE SMOOTH"
);
}
);
width = 518;
}
);
leftKerningGroup = LAT_a;
leftMetricsKey = a;
rightKerningGroup = LAT_a;
rightMetricsKey = a;
unicode = 0061;
},
{
color = 4;
glyphname = ae;
layers = (
{
anchors = (
{
name = aboveLC;
position = "{401, 514}";
}
);
layerId = "78A9F7DD-241B-40F2-ADB9-3345ED68833B";
paths = (
{
closed = 1;
nodes = (
"231 -15 OFFCURVE",
"278 22 OFFCURVE",
"343 90 CURVE",
"384 22 OFFCURVE",
"456 -15 OFFCURVE",
"545 -15 CURVE SMOOTH",
"641 -15 OFFCURVE",
"709 29 OFFCURVE",
"751 102 CURVE",
"741 111 LINE",
"706 70 OFFCURVE",
"669 48 OFFCURVE",
"607 48 CURVE SMOOTH",
"509 48 OFFCURVE",
"454 111 OFFCURVE",
"452 251 CURVE",
"750 251 LINE",
"754 263 OFFCURVE",
"755 279 OFFCURVE",
"755 294 CURVE SMOOTH",
"755 410 OFFCURVE",
"679 496 OFFCURVE",
"550 496 CURVE SMOOTH",
"495 496 OFFCURVE",
"442 477 OFFCURVE",
"398 437 CURVE",
"370 479 OFFCURVE",
"321 496 OFFCURVE",
"258 496 CURVE SMOOTH",
"147 496 OFFCURVE",
"52 453 OFFCURVE",
"52 371 CURVE SMOOTH",
"52 335 OFFCURVE",
"77 312 OFFCURVE",
"112 312 CURVE SMOOTH",
"149 312 OFFCURVE",
"177 337 OFFCURVE",
"180 395 CURVE SMOOTH",
"184 420 LINE SMOOTH",
"187 456 OFFCURVE",
"202 474 OFFCURVE",
"239 475 CURVE SMOOTH",
"239 475 OFFCURVE",
"239 475 OFFCURVE",
"239 475 CURVE SMOOTH",
"282 475 OFFCURVE",
"306 445 OFFCURVE",
"306 350 CURVE SMOOTH",
"306 273 LINE",
"277 268 OFFCURVE",
"249 263 OFFCURVE",
"228 259 CURVE SMOOTH",
"90 232 OFFCURVE",
"29 176 OFFCURVE",
"29 113 CURVE SMOOTH",
"29 30 OFFCURVE",
"89 -15 OFFCURVE",
"166 -15 CURVE SMOOTH"
);
},
{
closed = 1;
nodes = (
"191 46 OFFCURVE",
"162 73 OFFCURVE",
"162 128 CURVE SMOOTH",
"162 192 OFFCURVE",
"202 229 OFFCURVE",
"263 245 CURVE",
"281 248 OFFCURVE",
"292 250 OFFCURVE",
"306 253 CURVE",
"306 248 OFFCURVE",
"306 244 OFFCURVE",
"306 239 CURVE SMOOTH",
"306 189 OFFCURVE",
"315 144 OFFCURVE",
"334 108 CURVE",
"287 57 OFFCURVE",
"254 46 OFFCURVE",
"227 46 CURVE SMOOTH"
);
},
{
closed = 1;
nodes = (
"456 432 OFFCURVE",
"497 476 OFFCURVE",
"546 476 CURVE SMOOTH",
"614 476 OFFCURVE",
"635 393 OFFCURVE",
"623 271 CURVE",
"453 271 LINE"
);
}
);
width = 785;
}
);
leftKerningGroup = LAT_a;
leftMetricsKey = a;
rightKerningGroup = LAT_e;
rightMetricsKey = e;
unicode = 00E6;
},
{
color = 4;
glyphname = b;
layers = (
{
anchors = (
{
name = aboveLC;
position = "{130, 701}";
},
{
name = belowLC;
position = "{290, -22}";
}
);
layerId = "78A9F7DD-241B-40F2-ADB9-3345ED68833B";
paths = (
{
closed = 1;
nodes = (
"207 23 LINE",
"246 -1 OFFCURVE",
"299 -15 OFFCURVE",
"348 -15 CURVE SMOOTH",
"462 -15 OFFCURVE",
"557 71 OFFCURVE",
"557 245 CURVE SMOOTH",
"557 418 OFFCURVE",
"474 496 OFFCURVE",
"361 496 CURVE SMOOTH",
"308 496 OFFCURVE",
"254 480 OFFCURVE",
"210 450 CURVE",
"210 551 LINE",
"214 692 LINE",
"202 701 LINE",
"24 658 LINE",
"24 648 LINE",
"38 644 LINE SMOOTH",
"65 638 OFFCURVE",
"71 625 OFFCURVE",
"71 597 CURVE SMOOTH",
"71 209 LINE SMOOTH",
"71 177 OFFCURVE",
"71 112 OFFCURVE",
"71 62 CURVE SMOOTH",
"71 35 OFFCURVE",
"59 18 OFFCURVE",
"32 12 CURVE SMOOTH",
"22 10 LINE",
"22 0 LINE",
"191 -13 LINE"
);
},
{
closed = 1;
nodes = (
"263 19 OFFCURVE",
"238 28 OFFCURVE",
"213 44 CURVE",
"213 428 LINE",
"241 446 OFFCURVE",
"270 454 OFFCURVE",
"300 454 CURVE SMOOTH",
"365 454 OFFCURVE",
"406 411 OFFCURVE",
"406 241 CURVE SMOOTH",
"406 70 OFFCURVE",
"361 19 OFFCURVE",
"298 19 CURVE SMOOTH"
);
}
);
width = 581;
}
);
leftKerningGroup = LAT_h;
rightKerningGroup = LAT_b;
rightMetricsKey = o;
unicode = 0062;
},
{
color = 4;
glyphname = c;
layers = (
{
anchors = (
{
name = aboveLC;
position = "{277, 514}";
},
{
name = baseLC;
position = "{274, 0}";
},
{
name = belowLC;
position = "{274, -22}";
}
);
layerId = "78A9F7DD-241B-40F2-ADB9-3345ED68833B";
paths = (
{
closed = 1;
nodes = (
"362 -15 OFFCURVE",
"434 29 OFFCURVE",
"468 108 CURVE",
"458 116 LINE",
"422 71 OFFCURVE",
"389 48 OFFCURVE",
"326 48 CURVE SMOOTH",
"222 48 OFFCURVE",
"173 121 OFFCURVE",
"173 256 CURVE SMOOTH",
"173 411 OFFCURVE",
"219 478 OFFCURVE",
"301 478 CURVE SMOOTH",
"321 478 OFFCURVE",
"332 472 OFFCURVE",
"337 450 CURVE SMOOTH",
"339 429 OFFCURVE",
"334 410 OFFCURVE",
"336 381 CURVE SMOOTH",
"340 335 OFFCURVE",
"365 305 OFFCURVE",
"404 305 CURVE SMOOTH",
"440 305 OFFCURVE",
"465 327 OFFCURVE",
"465 364 CURVE SMOOTH",
"465 430 OFFCURVE",
"400 496 OFFCURVE",
"285 496 CURVE SMOOTH",
"143 496 OFFCURVE",
"24 401 OFFCURVE",
"24 239 CURVE SMOOTH",
"24 75 OFFCURVE",
"131 -15 OFFCURVE",
"268 -15 CURVE SMOOTH"
);
}
);
width = 494;
}
);
leftKerningGroup = LAT_o;
leftMetricsKey = o;
rightKerningGroup = LAT_c;
unicode = 0063;
},
{
color = 4;
glyphname = d;
layers = (
{
anchors = (
{
name = aboveLC;
position = "{415, 701}";
},
{
name = belowLC;
position = "{302, -22}";
}
);
layerId = "78A9F7DD-241B-40F2-ADB9-3345ED68833B";
paths = (
{
closed = 1;
nodes = (
"288 -15 OFFCURVE",
"334 1 OFFCURVE",
"370 25 CURVE",
"379 -11 LINE",
"550 0 LINE",
"550 10 LINE",
"541 13 LINE SMOOTH",
"516 20 OFFCURVE",
"508 36 OFFCURVE",
"508 63 CURVE SMOOTH",
"508 552 LINE",
"512 692 LINE",
"501 701 LINE",
"319 657 LINE",
"319 647 LINE",
"338 643 LINE SMOOTH",
"366 637 OFFCURVE",
"372 626 OFFCURVE",
"372 598 CURVE SMOOTH",
"372 468 LINE",
"339 487 OFFCURVE",
"295 496 OFFCURVE",
"248 496 CURVE SMOOTH",
"127 496 OFFCURVE",
"24 412 OFFCURVE",
"24 236 CURVE SMOOTH",
"24 61 OFFCURVE",
"114 -15 OFFCURVE",
"232 -15 CURVE SMOOTH"
);
},
{
closed = 1;
nodes = (
"222 22 OFFCURVE",
"175 79 OFFCURVE",
"175 238 CURVE SMOOTH",
"175 397 OFFCURVE",
"227 468 OFFCURVE",
"291 468 CURVE SMOOTH",
"317 468 OFFCURVE",
"341 461 OFFCURVE",
"367 444 CURVE",
"367 47 LINE",
"343 30 OFFCURVE",
"319 22 OFFCURVE",
"290 22 CURVE SMOOTH"
);
}
);
width = 574;
}
);
leftKerningGroup = LAT_o;
leftMetricsKey = o;
rightKerningGroup = LAT_l;
rightMetricsKey = l;
unicode = 0064;
},
{
color = 4;
glyphname = eth;
layers = (
{
layerId = "78A9F7DD-241B-40F2-ADB9-3345ED68833B";
paths = (
{
closed = 1;
nodes = (
"405 -15 OFFCURVE",
"517 81 OFFCURVE",
"517 279 CURVE SMOOTH",
"517 502 OFFCURVE",
"364 668 OFFCURVE",
"149 739 CURVE",
"141 722 LINE",
"284 642 OFFCURVE",
"343 559 OFFCURVE",
"371 379 CURVE",
"406 390 LINE",
"383 446 OFFCURVE",
"332 481 OFFCURVE",
"270 481 CURVE SMOOTH",
"148 481 OFFCURVE",
"33 393 OFFCURVE",
"33 238 CURVE SMOOTH",
"33 70 OFFCURVE",
"151 -15 OFFCURVE",
"267 -15 CURVE SMOOTH"
);
},
{
closed = 1;
nodes = (
"215 5 OFFCURVE",
"184 84 OFFCURVE",
"184 232 CURVE SMOOTH",
"184 384 OFFCURVE",
"216 461 OFFCURVE",
"277 461 CURVE SMOOTH",
"338 461 OFFCURVE",
"373 385 OFFCURVE",
"373 241 CURVE SMOOTH",
"373 86 OFFCURVE",
"344 5 OFFCURVE",
"277 5 CURVE SMOOTH"
);
},
{
closed = 1;
nodes = (
"486 695 LINE",
"474 716 LINE",
"118 545 LINE",
"130 524 LINE"
);
}
);
width = 552;
}
);
leftKerningGroup = LAT_o;
unicode = 00F0;
},
{
color = 4;
glyphname = dcaron;
layers = (
{
components = (
{
alignment = -1;
name = d;
}
);
layerId = "78A9F7DD-241B-40F2-ADB9-3345ED68833B";
paths = (
{
closed = 1;
nodes = (
"641 550 OFFCURVE",
"682 602 OFFCURVE",
"683 675 CURVE SMOOTH",
"684 719 OFFCURVE",
"661 745 OFFCURVE",
"624 745 CURVE SMOOTH",
"591 745 OFFCURVE",
"567 721 OFFCURVE",
"567 688 CURVE SMOOTH",
"567 659 OFFCURVE",
"588 636 OFFCURVE",
"621 630 CURVE SMOOTH",
"647 626 LINE",
"641 660 LINE",
"634 596 OFFCURVE",
"613 559 OFFCURVE",
"569 520 CURVE",
"575 510 LINE"
);
}
);
width = 608;
}
);
leftKerningGroup = LAT_o;
rightKerningGroup = LAT_dcaron;
unicode = 010F;
},
{
color = 4;
glyphname = dcroat;
layers = (
{
components = (
{
alignment = -1;
name = d;
}
);
layerId = "78A9F7DD-241B-40F2-ADB9-3345ED68833B";
paths = (
{
closed = 1;
nodes = (
"573 556 LINE",
"573 576 LINE",
"205 576 LINE",
"205 556 LINE"
);
}
);
width = 574;
}
);
leftKerningGroup = LAT_o;
leftMetricsKey = d;
widthMetricsKey = d;
rightKerningGroup = LAT_l;
unicode = 0111;
},
{
color = 4;
glyphname = e;
layers = (
{
anchors = (
{
name = aboveLC;
position = "{273, 514}";
},
{
name = belowLC;
position = "{281, -22}";
},
{
name = ogonek;
position = "{347, 0}";
}
);
layerId = "78A9F7DD-241B-40F2-ADB9-3345ED68833B";
paths = (
{
closed = 1;
nodes = (
"147 496 OFFCURVE",
"24 403 OFFCURVE",
"24 239 CURVE SMOOTH",
"24 80 OFFCURVE",
"124 -15 OFFCURVE",
"267 -15 CURVE SMOOTH",
"363 -15 OFFCURVE",
"431 29 OFFCURVE",
"473 102 CURVE",
"463 111 LINE",
"427 70 OFFCURVE",
"391 48 OFFCURVE",
"324 48 CURVE SMOOTH",
"224 48 OFFCURVE",
"174 109 OFFCURVE",
"174 255 CURVE SMOOTH",
"174 429 OFFCURVE",
"208 476 OFFCURVE",
"268 476 CURVE SMOOTH",
"336 476 OFFCURVE",
"358 416 OFFCURVE",
"345 271 CURVE",
"85 271 LINE",
"85 251 LINE",
"472 251 LINE",
"476 263 OFFCURVE",
"477 279 OFFCURVE",
"477 294 CURVE SMOOTH",
"477 410 OFFCURVE",
"401 496 OFFCURVE",
"271 496 CURVE SMOOTH"
);
}
);
width = 507;
}
);
leftKerningGroup = LAT_o;
leftMetricsKey = o;
rightKerningGroup = LAT_e;
unicode = 0065;
},
{
color = 4;
glyphname = f;
layers = (
{
anchors = (
{
name = aboveLC;
position = "{277, 744}";
},
{
name = belowLC;
position = "{149, -22}";
}
);
layerId = "78A9F7DD-241B-40F2-ADB9-3345ED68833B";
paths = (
{
closed = 1;
nodes = (
"284 0 LINE",
"284 10 LINE",
"259 16 LINE SMOOTH",
"233 23 OFFCURVE",
"219 38 OFFCURVE",
"219 65 CURVE SMOOTH",
"219 113 OFFCURVE",
"219 162 OFFCURVE",
"219 210 CURVE SMOOTH",
"219 461 LINE",
"331 461 LINE",
"331 481 LINE",
"219 481 LINE",
"219 541 OFFCURVE",
"223 608 OFFCURVE",
"233 655 CURVE SMOOTH",
"239 676 OFFCURVE",
"256 677 OFFCURVE",
"271 658 CURVE SMOOTH",
"285 641 LINE SMOOTH",
"310 597 OFFCURVE",
"336 582 OFFCURVE",
"368 582 CURVE SMOOTH",
"407 582 OFFCURVE",
"429 604 OFFCURVE",
"429 640 CURVE SMOOTH",
"429 690 OFFCURVE",
"376 711 OFFCURVE",
"323 711 CURVE SMOOTH",
"268 711 OFFCURVE",
"209 694 OFFCURVE",
"159 646 CURVE SMOOTH",
"125 612 OFFCURVE",
"98 575 OFFCURVE",
"85 523 CURVE SMOOTH",
"79 495 OFFCURVE",
"70 479 OFFCURVE",
"43 476 CURVE SMOOTH",
"21 472 LINE",
"21 461 LINE",
"77 461 LINE",
"77 210 LINE SMOOTH",
"77 161 OFFCURVE",
"76 112 OFFCURVE",
"76 63 CURVE SMOOTH",
"76 36 OFFCURVE",
"60 20 OFFCURVE",
"35 13 CURVE SMOOTH",
"22 10 LINE",
"22 0 LINE"
);
}
);
width = 343;
}
);
leftKerningGroup = LAT_f;
rightKerningGroup = LAT_f;
unicode = 0066;
},
{
color = 4;
glyphname = g;
layers = (
{
anchors = (
{
name = aboveLC;
position = "{255, 514}";
},
{
name = belowLC;
position = "{253, -236}";
}
);
layerId = "78A9F7DD-241B-40F2-ADB9-3345ED68833B";
paths = (
{
closed = 1;
nodes = (
"412 -230 OFFCURVE",
"509 -145 OFFCURVE",
"509 -47 CURVE SMOOTH",
"509 45 OFFCURVE",
"433 72 OFFCURVE",
"340 90 CURVE SMOOTH",
"152 125 LINE SMOOTH",
"132 129 OFFCURVE",
"121 141 OFFCURVE",
"121 162 CURVE SMOOTH",
"121 202 LINE",
"114 208 LINE",
"76 160 LINE SMOOTH",
"56 136 OFFCURVE",
"40 114 OFFCURVE",
"40 87 CURVE SMOOTH",
"40 50 OFFCURVE",
"68 18 OFFCURVE",
"136 5 CURVE SMOOTH",
"317 -29 LINE SMOOTH",
"382 -41 OFFCURVE",
"407 -63 OFFCURVE",
"407 -100 CURVE SMOOTH",
"407 -165 OFFCURVE",
"350 -203 OFFCURVE",
"240 -203 CURVE SMOOTH",
"134 -203 OFFCURVE",
"88 -163 OFFCURVE",
"88 -84 CURVE SMOOTH",
"88 -51 OFFCURVE",
"105 -7 OFFCURVE",
"128 18 CURVE",
"119 26 LINE",
"62 -1 OFFCURVE",
"14 -61 OFFCURVE",
"14 -116 CURVE SMOOTH",
"14 -174 OFFCURVE",
"66 -230 OFFCURVE",
"227 -230 CURVE SMOOTH"
);
},
{
closed = 1;
nodes = (
"186 193 OFFCURVE",
"164 231 OFFCURVE",
"164 334 CURVE SMOOTH",
"164 437 OFFCURVE",
"189 476 OFFCURVE",
"239 476 CURVE SMOOTH",
"290 476 OFFCURVE",
"314 438 OFFCURVE",
"314 336 CURVE SMOOTH",
"314 233 OFFCURVE",
"290 193 OFFCURVE",
"237 193 CURVE SMOOTH"
);
},
{
closed = 1;
nodes = (
"371 173 OFFCURVE",
"441 240 OFFCURVE",
"441 334 CURVE SMOOTH",
"441 374 OFFCURVE",
"429 410 OFFCURVE",
"405 437 CURVE",
"518 437 LINE",
"518 488 LINE",
"504 498 LINE",
"473 471 OFFCURVE",
"435 457 OFFCURVE",
"392 450 CURVE",
"358 479 OFFCURVE",
"307 496 OFFCURVE",
"239 496 CURVE SMOOTH",
"105 496 OFFCURVE",
"36 430 OFFCURVE",
"36 334 CURVE SMOOTH",
"36 238 OFFCURVE",
"105 173 OFFCURVE",
"238 173 CURVE SMOOTH"
);
}
);
width = 531;
}
);
leftKerningGroup = LAT_g;
rightKerningGroup = LAT_g;
unicode = 0067;
},
{
color = 4;
glyphname = gcommaaccent;
layers = (
{
components = (
{
alignment = -1;
name = g;
}
);
layerId = "78A9F7DD-241B-40F2-ADB9-3345ED68833B";
paths = (
{
closed = 1;
nodes = (
"290 568 OFFCURVE",
"320 595 OFFCURVE",
"320 629 CURVE SMOOTH",
"320 665 OFFCURVE",
"289 699 OFFCURVE",
"242 703 CURVE",
"234 653 LINE",
"253 720 OFFCURVE",
"280 741 OFFCURVE",
"334 765 CURVE",
"328 781 LINE",
"250 756 OFFCURVE",
"182 708 OFFCURVE",
"182 638 CURVE SMOOTH",
"182 597 OFFCURVE",
"209 568 OFFCURVE",
"252 568 CURVE SMOOTH"
);
}
);
width = 531;
}
);
leftKerningGroup = LAT_g;
leftMetricsKey = g;
rightKerningGroup = LAT_g;
rightMetricsKey = g;
unicode = 0123;
},
{
color = 4;
glyphname = h;
layers = (
{
anchors = (
{
name = aboveLC;
position = "{134, 701}";
},
{
name = belowLC;
position = "{309, -22}";
}
);
layerId = "78A9F7DD-241B-40F2-ADB9-3345ED68833B";
paths = (
{
closed = 1;
nodes = (
"257 0 LINE",
"257 10 LINE",
"249 12 LINE SMOOTH",
"223 20 OFFCURVE",
"213 35 OFFCURVE",
"213 62 CURVE SMOOTH",
"213 110 OFFCURVE",
"213 169 OFFCURVE",
"213 210 CURVE SMOOTH",
"213 410 LINE",
"249 438 OFFCURVE",
"284 448 OFFCURVE",
"314 448 CURVE SMOOTH",
"359 448 OFFCURVE",
"375 431 OFFCURVE",
"375 378 CURVE SMOOTH",
"375 210 LINE SMOOTH",
"375 168 OFFCURVE",
"375 111 OFFCURVE",
"375 64 CURVE SMOOTH",
"375 37 OFFCURVE",
"364 21 OFFCURVE",
"339 13 CURVE SMOOTH",
"327 10 LINE",
"327 0 LINE",
"561 0 LINE",
"561 10 LINE",
"553 13 LINE SMOOTH",
"526 21 OFFCURVE",
"517 36 OFFCURVE",
"517 63 CURVE SMOOTH",
"517 110 OFFCURVE",
"517 168 OFFCURVE",
"517 210 CURVE SMOOTH",
"517 345 LINE SMOOTH",
"517 448 OFFCURVE",
"462 496 OFFCURVE",
"375 496 CURVE SMOOTH",
"310 496 OFFCURVE",
"256 465 OFFCURVE",
"210 426 CURVE",
"210 551 LINE",
"214 692 LINE",
"198 701 LINE",
"22 658 LINE",
"22 648 LINE",
"37 644 LINE SMOOTH",
"64 637 OFFCURVE",
"71 626 OFFCURVE",
"71 598 CURVE SMOOTH",
"71 210 LINE SMOOTH",
"71 170 OFFCURVE",
"71 111 OFFCURVE",
"71 64 CURVE SMOOTH",
"71 37 OFFCURVE",
"59 22 OFFCURVE",
"35 14 CURVE SMOOTH",
"23 10 LINE",
"23 0 LINE"
);
}
);
width = 580;
}
);
leftKerningGroup = LAT_h;
leftMetricsKey = l;
rightKerningGroup = LAT_h;
rightMetricsKey = n;
unicode = 0068;
},
{
color = 4;
glyphname = i;
layers = (
{
anchors = (
{
name = aboveLC;
position = "{140, 718}";
},
{
name = belowLC;
position = "{144, -22}";
},
{
name = ogonek;
position = "{175, 0}";
}
);
layerId = "78A9F7DD-241B-40F2-ADB9-3345ED68833B";
paths = (
{
closed = 1;
nodes = (
"256 0 LINE",
"256 10 LINE",
"246 13 LINE SMOOTH",
"221 21 OFFCURVE",
"212 36 OFFCURVE",
"212 63 CURVE SMOOTH",
"212 110 OFFCURVE",
"212 169 OFFCURVE",
"212 210 CURVE SMOOTH",
"212 343 LINE",
"215 485 LINE",
"205 495 LINE",
"22 436 LINE",
"22 426 LINE",
"36 423 LINE SMOOTH",
"63 418 OFFCURVE",
"71 405 OFFCURVE",
"71 377 CURVE SMOOTH",
"71 333 OFFCURVE",
"71 299 OFFCURVE",
"71 258 CURVE SMOOTH",
"71 210 LINE SMOOTH",
"71 170 OFFCURVE",
"71 111 OFFCURVE",
"71 64 CURVE SMOOTH",
"71 37 OFFCURVE",
"62 22 OFFCURVE",
"36 14 CURVE SMOOTH",
"22 10 LINE",
"22 0 LINE"
);
},
{
closed = 1;
nodes = (
"185 548 OFFCURVE",
"220 580 OFFCURVE",
"220 624 CURVE SMOOTH",
"220 669 OFFCURVE",
"185 700 OFFCURVE",
"140 700 CURVE SMOOTH",
"95 700 OFFCURVE",
"59 669 OFFCURVE",
"59 624 CURVE SMOOTH",
"59 580 OFFCURVE",
"95 548 OFFCURVE",
"140 548 CURVE SMOOTH"
);
}
);
width = 280;
}
);
leftKerningGroup = LAT_i;
rightKerningGroup = LAT_i;
unicode = 0069;
},
{
color = 4;
glyphname = idotless;
layers = (
{
anchors = (
{
name = aboveLC;
position = "{137, 514}";
},
{
name = belowLC;
position = "{141, -22}";
},
{
name = ogonek;
position = "{175, 0}";
}
);
layerId = "78A9F7DD-241B-40F2-ADB9-3345ED68833B";
paths = (
{
closed = 1;
nodes = (
"256 0 LINE",
"256 10 LINE",
"246 13 LINE SMOOTH",
"221 21 OFFCURVE",
"213 36 OFFCURVE",
"212 63 CURVE SMOOTH",
"212 110 OFFCURVE",
"212 169 OFFCURVE",
"212 210 CURVE SMOOTH",
"212 343 LINE",
"215 485 LINE",
"205 495 LINE",
"22 436 LINE",
"22 426 LINE",
"36 423 LINE SMOOTH",
"63 418 OFFCURVE",
"69 405 OFFCURVE",
"70 377 CURVE SMOOTH",
"70 333 OFFCURVE",
"71 299 OFFCURVE",
"71 258 CURVE SMOOTH",
"71 210 LINE SMOOTH",
"71 170 OFFCURVE",
"70 111 OFFCURVE",
"70 64 CURVE SMOOTH",
"70 37 OFFCURVE",
"62 22 OFFCURVE",
"36 14 CURVE SMOOTH",
"22 10 LINE",
"22 0 LINE"
);
}
);
width = 280;
}
);
leftKerningGroup = LAT_m;
leftMetricsKey = i;
rightKerningGroup = LAT_i;
rightMetricsKey = i;
unicode = 0131;
},
{
color = 4;
glyphname = j;
layers = (
{
anchors = (
{
name = aboveLC;
position = "{148, 718}";
},
{
name = belowLC;
position = "{59, -250}";
}
);
layerId = "78A9F7DD-241B-40F2-ADB9-3345ED68833B";
paths = (
{
closed = 1;
nodes = (
"52 -240 OFFCURVE",
"109 -222 OFFCURVE",
"156 -175 CURVE SMOOTH",
"205 -124 OFFCURVE",
"219 -65 OFFCURVE",
"219 65 CURVE SMOOTH",
"219 343 LINE",
"222 485 LINE",
"210 495 LINE",
"23 436 LINE",
"23 426 LINE",
"38 424 LINE SMOOTH",
"65 419 OFFCURVE",
"79 407 OFFCURVE",
"79 376 CURVE SMOOTH",
"79 333 OFFCURVE",
"79 303 OFFCURVE",
"79 258 CURVE SMOOTH",
"79 88 LINE SMOOTH",
"79 -34 OFFCURVE",
"79 -84 OFFCURVE",
"79 -162 CURVE SMOOTH",
"79 -200 OFFCURVE",
"62 -201 OFFCURVE",
"53 -186 CURVE SMOOTH",
"43 -164 LINE SMOOTH",
"27 -126 OFFCURVE",
"-4 -108 OFFCURVE",
"-40 -108 CURVE SMOOTH",
"-76 -108 OFFCURVE",
"-107 -133 OFFCURVE",
"-107 -170 CURVE SMOOTH",
"-107 -211 OFFCURVE",
"-76 -240 OFFCURVE",
"0 -240 CURVE SMOOTH"
);
},
{
closed = 1;
nodes = (
"193 548 OFFCURVE",
"229 580 OFFCURVE",
"229 624 CURVE SMOOTH",
"229 669 OFFCURVE",
"193 700 OFFCURVE",
"148 700 CURVE SMOOTH",
"103 700 OFFCURVE",
"68 669 OFFCURVE",
"68 624 CURVE SMOOTH",
"68 580 OFFCURVE",
"103 548 OFFCURVE",
"148 548 CURVE SMOOTH"
);
}
);
width = 281;
}
);
leftKerningGroup = LAT_j;
rightKerningGroup = LAT_j;
unicode = 006A;
},
{
color = 4;
glyphname = k;
layers = (
{
anchors = (
{
name = aboveLC;
position = "{140, 701}";
},
{
name = belowLC;
position = "{307, -22}";
}
);
layerId = "78A9F7DD-241B-40F2-ADB9-3345ED68833B";
paths = (
{
closed = 1;
nodes = (
"261 0 LINE",
"261 10 LINE",
"247 14 LINE",
"224 21 OFFCURVE",
"214 37 OFFCURVE",
"214 64 CURVE",
"214 552 LINE",
"217 692 LINE",
"205 701 LINE",
"22 658 LINE",
"22 648 LINE",
"35 645 LINE SMOOTH",
"62 637 OFFCURVE",
"71 626 OFFCURVE",
"71 599 CURVE SMOOTH",
"71 210 LINE SMOOTH",
"71 161 OFFCURVE",
"71 112 OFFCURVE",
"71 64 CURVE SMOOTH",
"71 37 OFFCURVE",
"59 22 OFFCURVE",
"37 15 CURVE",
"22 10 LINE",
"22 0 LINE"
);
},
{
closed = 1;
nodes = (
"568.997 0 LINE",
"568.997 10 LINE",
"565 12 LINE",
"535 23 OFFCURVE",
"521 37 OFFCURVE",
"499 66 CURVE SMOOTH",
"315 320 LINE",
"214 250 LINE",
"393 0 LINE"
);
},
{
closed = 1;
nodes = (
"432 420 LINE SMOOTH",
"457 443 OFFCURVE",
"470 454 OFFCURVE",
"500 463 CURVE SMOOTH",
"530 471 LINE",
"530 481 LINE",
"381 481 LINE",
"381 471 LINE",
"398 466 LINE SMOOTH",
"425 458 OFFCURVE",
"417 437 OFFCURVE",
"400 421 CURVE SMOOTH",
"214 250 LINE",
"236 237 LINE"
);
}
);
width = 582;
}
);
leftKerningGroup = LAT_h;
leftMetricsKey = l;
rightKerningGroup = LAT_k;
unicode = 006B;
},
{
color = 4;
glyphname = l;
layers = (
{
anchors = (
{
name = aboveLC;
position = "{136, 701}";
},
{
name = belowLC;
position = "{147, -22}";
}
);
layerId = "78A9F7DD-241B-40F2-ADB9-3345ED68833B";
paths = (
{
closed = 1;
nodes = (
"262 0 LINE",
"262 10 LINE",
"249 13 LINE SMOOTH",
"223 21 OFFCURVE",
"214 37 OFFCURVE",
"214 64 CURVE SMOOTH",
"214 112 OFFCURVE",
"213 161 OFFCURVE",
"213 210 CURVE SMOOTH",
"213 552 LINE",
"217 692 LINE",
"205 701 LINE",
"22 658 LINE",
"22 648 LINE",
"35 645 LINE SMOOTH",
"61 638 OFFCURVE",
"71 626 OFFCURVE",
"71 599 CURVE SMOOTH",
"71 210 LINE SMOOTH",
"71 161 OFFCURVE",
"71 112 OFFCURVE",
"71 64 CURVE SMOOTH",
"71 37 OFFCURVE",
"60 22 OFFCURVE",
"35 14 CURVE SMOOTH",
"23 10 LINE",
"23 0 LINE"
);
}
);
width = 286;
}
);
leftKerningGroup = LAT_h;
rightKerningGroup = LAT_l;
unicode = 006C;
},
{
color = 4;
glyphname = lcaron;
layers = (
{
components = (
{
alignment = -1;
name = l;
}
);
layerId = "78A9F7DD-241B-40F2-ADB9-3345ED68833B";
paths = (
{
closed = 1;
nodes = (
"343 550 OFFCURVE",
"383 602 OFFCURVE",
"385 675 CURVE SMOOTH",
"386 719 OFFCURVE",
"363 745 OFFCURVE",
"325 745 CURVE SMOOTH",
"292 745 OFFCURVE",
"268 721 OFFCURVE",
"268 688 CURVE SMOOTH",
"268 659 OFFCURVE",
"289 636 OFFCURVE",
"322 630 CURVE SMOOTH",
"348 626 LINE",
"343 660 LINE",
"335 600 OFFCURVE",
"304 561 OFFCURVE",
"263 529 CURVE",
"276 510 LINE"
);
}
);
width = 328;
}
);
leftKerningGroup = LAT_h;
rightKerningGroup = LAT_dcaron;
unicode = 013E;
},
{
color = 4;
glyphname = lslash;
layers = (
{
components = (
{
alignment = -1;
name = l;
}
);
layerId = "78A9F7DD-241B-40F2-ADB9-3345ED68833B";
paths = (
{
closed = 1;
nodes = (
"117 330 LINE",
"117 323 LINE",
"284 415 LINE",
"284 448 LINE",
"166 384 LINE",
"166 392 LINE",
"3 302 LINE",
"3 269 LINE"
);
}
);
width = 286;
}
);
leftKerningGroup = LAT_h;
rightKerningGroup = LAT_l;
unicode = 0142;
},
{
color = 4;
glyphname = m;
layers = (
{
anchors = (
{
name = aboveLC;
position = "{436, 514}";
},
{
name = belowLC;
position = "{439, -22}";
}
);
layerId = "78A9F7DD-241B-40F2-ADB9-3345ED68833B";
paths = (
{
closed = 1;
nodes = (
"255 0 LINE",
"255 10 LINE",
"246 13 LINE",
"221 20 OFFCURVE",
"211 35 OFFCURVE",
"211 62 CURVE SMOOTH",
"211 110 OFFCURVE",
"211 169 OFFCURVE",
"211 210 CURVE SMOOTH",
"211 397 LINE",
"244 426 OFFCURVE",
"274 442 OFFCURVE",
"305 442 CURVE SMOOTH",
"352 442 OFFCURVE",
"369 421 OFFCURVE",
"369 368 CURVE SMOOTH",
"369 210 LINE SMOOTH",
"369 168 OFFCURVE",
"369 110 OFFCURVE",
"369 63 CURVE SMOOTH",
"369 36 OFFCURVE",
"360 22 OFFCURVE",
"335 14 CURVE SMOOTH",
"321 10 LINE",
"321 0 LINE",
"553.005 0 LINE",
"553.005 10 LINE",
"544 13 LINE",
"519 20 OFFCURVE",
"509 35 OFFCURVE",
"508 62 CURVE SMOOTH",
"508 110 OFFCURVE",
"508 168 OFFCURVE",
"508 210 CURVE SMOOTH",
"508 321 LINE SMOOTH",
"508 349 OFFCURVE",
"506 375 OFFCURVE",
"500 396 CURVE",
"536 427 OFFCURVE",
"567 442 OFFCURVE",
"602 442 CURVE SMOOTH",
"646 442 OFFCURVE",
"665 425 OFFCURVE",
"665 369 CURVE SMOOTH",
"665 210 LINE SMOOTH",
"665 168 OFFCURVE",
"665 110 OFFCURVE",
"665 63 CURVE SMOOTH",
"665 36 OFFCURVE",
"656 21 OFFCURVE",
"631 13 CURVE SMOOTH",
"621 10 LINE",
"621 0 LINE",
"852 0 LINE",
"852 10 LINE",
"841 13 LINE SMOOTH",
"816 20 OFFCURVE",
"805 35 OFFCURVE",
"805 62 CURVE SMOOTH",
"805 110 OFFCURVE",
"805 168 OFFCURVE",
"805 210 CURVE SMOOTH",
"805 355 LINE SMOOTH",
"805 452 OFFCURVE",
"761 496 OFFCURVE",
"667 496 CURVE SMOOTH",
"609 496 OFFCURVE",
"546 465 OFFCURVE",
"494 416 CURVE",
"474 470 OFFCURVE",
"437 496 OFFCURVE",
"373 496 CURVE SMOOTH",
"312 496 OFFCURVE",
"253 461 OFFCURVE",
"209 417 CURVE",
"201 485 LINE",
"191 495 LINE",
"20 437 LINE",
"20 427 LINE",
"35 423 LINE SMOOTH",
"62 418 OFFCURVE",
"69 405 OFFCURVE",
"69 376 CURVE SMOOTH",
"69 333 OFFCURVE",
"69 308 OFFCURVE",
"69 265 CURVE SMOOTH",
"69 210 LINE SMOOTH",
"69 169 OFFCURVE",
"69 111 OFFCURVE",
"69 63 CURVE SMOOTH",
"68 36 OFFCURVE",
"59 21 OFFCURVE",
"34 14 CURVE SMOOTH",
"20 10 LINE",
"20 0 LINE"
);
}
);
width = 871;
}
);
leftKerningGroup = LAT_m;
leftMetricsKey = n;
rightKerningGroup = LAT_h;
rightMetricsKey = n;
unicode = 006D;
},
{
color = 4;
glyphname = n;
layers = (
{
anchors = (
{
name = aboveLC;
position = "{297, 514}";
},
{
name = belowLC;
position = "{295, -22}";
}
);
layerId = "78A9F7DD-241B-40F2-ADB9-3345ED68833B";
paths = (
{
closed = 1;
nodes = (
"255 0 LINE",
"255 10 LINE",
"246 13 LINE",
"221 20 OFFCURVE",
"211 35 OFFCURVE",
"211 62 CURVE SMOOTH",
"211 110 OFFCURVE",
"211 169 OFFCURVE",
"211 210 CURVE SMOOTH",
"211 402 LINE",
"244 430 OFFCURVE",
"280 446 OFFCURVE",
"307 446 CURVE SMOOTH",
"351 446 OFFCURVE",
"371 424 OFFCURVE",
"371 382 CURVE SMOOTH",
"371 210 LINE SMOOTH",
"371 168 OFFCURVE",
"371 110 OFFCURVE",
"371 63 CURVE SMOOTH",
"371 36 OFFCURVE",
"361 22 OFFCURVE",
"336 14 CURVE",
"323 10 LINE",
"323 0 LINE",
"559 0 LINE",
"559 10 LINE",
"550 13 LINE SMOOTH",
"523 20 OFFCURVE",
"512 35 OFFCURVE",
"512 62 CURVE SMOOTH",
"512 110 OFFCURVE",
"512 168 OFFCURVE",
"512 210 CURVE SMOOTH",
"512 350 LINE SMOOTH",
"512 448 OFFCURVE",
"463 496 OFFCURVE",
"375 496 CURVE SMOOTH",
"318 496 OFFCURVE",
"256 466 OFFCURVE",
"209 425 CURVE",
"201 485 LINE",
"191 495 LINE",
"20 437 LINE",
"20 427 LINE",
"35 423 LINE SMOOTH",
"62 418 OFFCURVE",
"69 405 OFFCURVE",
"69 376 CURVE SMOOTH",
"69 337 OFFCURVE",
"69 306 OFFCURVE",
"69 265 CURVE SMOOTH",
"69 210 LINE SMOOTH",
"69 169 OFFCURVE",
"69 111 OFFCURVE",
"69 63 CURVE SMOOTH",
"69 36 OFFCURVE",
"59 21 OFFCURVE",
"34 14 CURVE SMOOTH",
"20 10 LINE",
"20 0 LINE"
);
}
);
width = 578;
}
);
leftKerningGroup = LAT_m;
rightKerningGroup = LAT_h;
unicode = 006E;
},
{
color = 4;
glyphname = o;
layers = (
{
anchors = (
{
name = aboveLC;
position = "{273, 514}";
},
{
name = belowLC;
position = "{271, -22}";
},
{
name = hornLC;
position = "{399, 485}";
},
{
name = ogonek;
position = "{351, 0}";
}
);
layerId = "78A9F7DD-241B-40F2-ADB9-3345ED68833B";
paths = (
{
closed = 1;
nodes = (
"425 -15 OFFCURVE",
"521 84 OFFCURVE",
"521 242 CURVE SMOOTH",
"521 400 OFFCURVE",
"414 496 OFFCURVE",
"273 496 CURVE SMOOTH",
"131 496 OFFCURVE",
"24 398 OFFCURVE",
"24 242 CURVE SMOOTH",
"24 85 OFFCURVE",
"121 -15 OFFCURVE",
"273 -15 CURVE SMOOTH"
);
},
{
closed = 1;
nodes = (
"203 5 OFFCURVE",
"176 53 OFFCURVE",
"176 240 CURVE SMOOTH",
"176 427 OFFCURVE",
"203 476 OFFCURVE",
"273 476 CURVE SMOOTH",
"342 476 OFFCURVE",
"369 427 OFFCURVE",
"369 240 CURVE SMOOTH",
"369 53 OFFCURVE",
"342 5 OFFCURVE",
"273 5 CURVE SMOOTH"
);
}
);
width = 545;
}
);
leftKerningGroup = LAT_o;
rightKerningGroup = LAT_b;
unicode = 006F;
},
{
color = 4;
glyphname = oslash;
layers = (
{
anchors = (
{
name = aboveLC;
position = "{281, 514}";
},
{
name = belowLC;
position = "{279, -22}";
},
{
name = hornLC;
position = "{407, 485}";
},
{
name = ogonek;
position = "{359, 0}";
}
);
layerId = "78A9F7DD-241B-40F2-ADB9-3345ED68833B";
paths = (
{
closed = 1;
nodes = (
"433 -15 OFFCURVE",
"529 84 OFFCURVE",
"529 242 CURVE SMOOTH",
"529 400 OFFCURVE",
"423 496 OFFCURVE",
"281 496 CURVE SMOOTH",
"139 496 OFFCURVE",
"33 398 OFFCURVE",
"33 242 CURVE SMOOTH",
"33 85 OFFCURVE",
"129 -15 OFFCURVE",
"281 -15 CURVE SMOOTH"
);
},
{
closed = 1;
nodes = (
"495 488 LINE",
"475 504 LINE",
"66 -7 LINE",
"87 -23 LINE"
);
},
{
closed = 1;
nodes = (
"210 5 OFFCURVE",
"179 62 OFFCURVE",
"179 240 CURVE SMOOTH",
"179 419 OFFCURVE",
"210 476 OFFCURVE",
"281 476 CURVE SMOOTH",
"352 476 OFFCURVE",
"383 419 OFFCURVE",
"383 240 CURVE SMOOTH",
"383 62 OFFCURVE",
"352 5 OFFCURVE",
"281 5 CURVE SMOOTH"
);
}
);
width = 561;
}
);
leftKerningGroup = LAT_o;
rightKerningGroup = LAT_b;
unicode = 00F8;
},
{
color = 4;
glyphname = oe;
layers = (
{
anchors = (
{
name = aboveLC;
position = "{439, 514}";
}
);
layerId = "78A9F7DD-241B-40F2-ADB9-3345ED68833B";
paths = (
{
closed = 1;
nodes = (
"425 -15 OFFCURVE",
"521 84 OFFCURVE",
"521 242 CURVE SMOOTH",
"521 400 OFFCURVE",
"414 496 OFFCURVE",
"273 496 CURVE SMOOTH",
"131 496 OFFCURVE",
"24 398 OFFCURVE",
"24 242 CURVE SMOOTH",
"24 85 OFFCURVE",
"121 -15 OFFCURVE",
"273 -15 CURVE SMOOTH"
);
},
{
closed = 1;
nodes = (
"205 5 OFFCURVE",
"176 62 OFFCURVE",
"176 240 CURVE SMOOTH",
"176 419 OFFCURVE",
"205 476 OFFCURVE",
"273 476 CURVE SMOOTH",
"340 476 OFFCURVE",
"369 419 OFFCURVE",
"369 240 CURVE SMOOTH",
"369 62 OFFCURVE",
"340 5 OFFCURVE",
"273 5 CURVE SMOOTH"
);
},
{
closed = 1;
nodes = (
"710 -15 OFFCURVE",
"778 29 OFFCURVE",
"820 102 CURVE",
"810 111 LINE",
"774 70 OFFCURVE",
"737 48 OFFCURVE",
"676 48 CURVE SMOOTH",
"580 48 OFFCURVE",
"521 109 OFFCURVE",
"521 255 CURVE SMOOTH",
"521 429 OFFCURVE",
"563 476 OFFCURVE",
"615 476 CURVE SMOOTH",
"682 476 OFFCURVE",
"704 393 OFFCURVE",
"691 271 CURVE",
"432 271 LINE",
"432 251 LINE",
"819 251 LINE",
"823 263 OFFCURVE",
"824 279 OFFCURVE",
"824 294 CURVE SMOOTH",
"824 410 OFFCURVE",
"748 496 OFFCURVE",
"618 496 CURVE SMOOTH",
"494 496 OFFCURVE",
"371 403 OFFCURVE",
"371 239 CURVE SMOOTH",
"371 80 OFFCURVE",
"471 -15 OFFCURVE",
"614 -15 CURVE SMOOTH"
);
}
);
width = 853;
}
);
leftKerningGroup = LAT_o;
leftMetricsKey = o;
rightKerningGroup = LAT_e;
rightMetricsKey = e;
unicode = 0153;
},
{
color = 4;
glyphname = p;
layers = (
{
anchors = (
{
name = aboveLC;
position = "{286, 514}";
},
{
name = belowLC;
position = "{144, -245}";
}
);
layerId = "78A9F7DD-241B-40F2-ADB9-3345ED68833B";
paths = (
{
closed = 1;
nodes = (
"263 -230 LINE",
"263 -220 LINE",
"244 -215 LINE SMOOTH",
"219 -208 OFFCURVE",
"208 -192 OFFCURVE",
"208 -165 CURVE SMOOTH",
"208 -107 OFFCURVE",
"208 -57 OFFCURVE",
"208 -16 CURVE SMOOTH",
"208 8 LINE",
"243 -7 OFFCURVE",
"288 -15 OFFCURVE",
"341 -15 CURVE SMOOTH",
"475 -15 OFFCURVE",
"553 83 OFFCURVE",
"553 243 CURVE SMOOTH",
"553 406 OFFCURVE",
"480 496 OFFCURVE",
"366 496 CURVE SMOOTH",
"308 496 OFFCURVE",
"253 480 OFFCURVE",
"209 454 CURVE",
"200 485 LINE",
"190 495 LINE",
"20 437 LINE",
"20 427 LINE",
"34 424 LINE SMOOTH",
"60 419 OFFCURVE",
"69 405 OFFCURVE",
"69 376 CURVE SMOOTH",
"69 332 OFFCURVE",
"69 308 OFFCURVE",
"69 265 CURVE SMOOTH",
"69 -9 LINE SMOOTH",
"69 -57 OFFCURVE",
"69 -108 OFFCURVE",
"69 -168 CURVE SMOOTH",
"69 -195 OFFCURVE",
"58 -209 OFFCURVE",
"32 -216 CURVE SMOOTH",
"20 -220 LINE",
"20 -230 LINE"
);
},
{
closed = 1;
nodes = (
"263 14 OFFCURVE",
"237 19 OFFCURVE",
"211 30 CURVE",
"211 433 LINE",
"241 449 OFFCURVE",
"269 457 OFFCURVE",
"293 457 CURVE SMOOTH",
"364 457 OFFCURVE",
"402 400 OFFCURVE",
"402 239 CURVE SMOOTH",
"402 77 OFFCURVE",
"360 14 OFFCURVE",
"293 14 CURVE SMOOTH"
);
}
);
width = 578;
}
);
leftMetricsKey = n;
rightKerningGroup = LAT_b;
rightMetricsKey = o;
unicode = 0070;
},
{
color = 4;
glyphname = thorn;
layers = (
{
layerId = "78A9F7DD-241B-40F2-ADB9-3345ED68833B";
paths = (
{
closed = 1;
nodes = (
"265 -230 LINE",
"265 -220 LINE",
"251 -216 LINE SMOOTH",
"226 -209 OFFCURVE",
"213 -192 OFFCURVE",
"212 -166 CURVE SMOOTH",
"212 -108 OFFCURVE",
"211 -57 OFFCURVE",
"211 -16 CURVE SMOOTH",
"211 8 LINE",
"245 -7 OFFCURVE",
"290 -15 OFFCURVE",
"343 -15 CURVE SMOOTH",
"478 -15 OFFCURVE",
"556 83 OFFCURVE",
"556 243 CURVE SMOOTH",
"556 406 OFFCURVE",
"483 496 OFFCURVE",
"368 496 CURVE SMOOTH",
"315 496 OFFCURVE",
"258 481 OFFCURVE",
"214 457 CURVE",
"214 571 LINE",
"218 711 LINE",
"206 720 LINE",
"23 677 LINE",
"23 667 LINE",
"34 664 LINE SMOOTH",
"59 657 OFFCURVE",
"72 640 OFFCURVE",
"72 613 CURVE SMOOTH",
"72 -9 LINE SMOOTH",
"72 -57 OFFCURVE",
"71 -109 OFFCURVE",
"70 -169 CURVE SMOOTH",
"69 -196 OFFCURVE",
"56 -211 OFFCURVE",
"30 -218 CURVE SMOOTH",
"22 -220 LINE",
"22 -230 LINE"
);
},
{
closed = 1;
nodes = (
"266 14 OFFCURVE",
"240 19 OFFCURVE",
"214 30 CURVE",
"214 433 LINE",
"243 449 OFFCURVE",
"271 457 OFFCURVE",
"296 457 CURVE SMOOTH",
"367 457 OFFCURVE",
"405 400 OFFCURVE",
"405 239 CURVE SMOOTH",
"405 77 OFFCURVE",
"363 14 OFFCURVE",
"295 14 CURVE SMOOTH"
);
}
);
width = 580;
}
);
leftMetricsKey = l;
rightKerningGroup = LAT_b;
rightMetricsKey = p;
unicode = 00FE;
},
{
color = 4;
glyphname = q;
layers = (
{
anchors = (
{
name = aboveLC;
position = "{318, 514}";
},
{
name = belowLC;
position = "{436, -245}";
}
);
layerId = "78A9F7DD-241B-40F2-ADB9-3345ED68833B";
paths = (
{
closed = 1;
nodes = (
"555 -230 LINE",
"555 -220 LINE",
"546 -217 LINE",
"520 -211 OFFCURVE",
"510 -195 OFFCURVE",
"510 -168 CURVE SMOOTH",
"510 -119 OFFCURVE",
"510 -69 OFFCURVE",
"510 -19 CURVE SMOOTH",
"510 351 LINE",
"513 486 LINE",
"503 496 LINE",
"389 450 LINE",
"352 477 OFFCURVE",
"303 496 OFFCURVE",
"244 496 CURVE SMOOTH",
"114 496 OFFCURVE",
"24 402 OFFCURVE",
"24 235 CURVE SMOOTH",
"24 72 OFFCURVE",
"107 -15 OFFCURVE",
"221 -15 CURVE SMOOTH",
"282 -15 OFFCURVE",
"332 5 OFFCURVE",
"371 34 CURVE",
"371 -19 LINE SMOOTH",
"371 -68 OFFCURVE",
"371 -117 OFFCURVE",
"371 -165 CURVE SMOOTH",
"371 -192 OFFCURVE",
"358 -208 OFFCURVE",
"333 -215 CURVE SMOOTH",
"312 -220 LINE",
"312 -230 LINE"
);
},
{
closed = 1;
nodes = (
"217 25 OFFCURVE",
"175 83 OFFCURVE",
"175 237 CURVE SMOOTH",
"175 394 OFFCURVE",
"219 458 OFFCURVE",
"290 458 CURVE SMOOTH",
"323 458 OFFCURVE",
"345 451 OFFCURVE",
"368 437 CURVE",
"368 57 LINE",
"341 35 OFFCURVE",
"314 25 OFFCURVE",
"287 25 CURVE SMOOTH"
);
}
);
width = 565;
}
);
leftKerningGroup = LAT_o;
leftMetricsKey = o;
unicode = 0071;
},
{
color = 4;
glyphname = r;
layers = (
{
anchors = (
{
name = aboveLC;
position = "{240, 514}";
},
{
name = belowLC;
position = "{149, -22}";
}
);
layerId = "78A9F7DD-241B-40F2-ADB9-3345ED68833B";
paths = (
{
closed = 1;
nodes = (
"279 0 LINE",
"279 10 LINE",
"247 19 LINE SMOOTH",
"222 26 OFFCURVE",
"212 42 OFFCURVE",
"212 69 CURVE SMOOTH",
"212 116 OFFCURVE",
"212 171 OFFCURVE",
"212 210 CURVE SMOOTH",
"212 348 LINE",
"220 369 OFFCURVE",
"228 386 OFFCURVE",
"241 398 CURVE SMOOTH",
"256 416 OFFCURVE",
"274 413 OFFCURVE",
"288 395 CURVE SMOOTH",
"290 393 LINE SMOOTH",
"312 364 OFFCURVE",
"335 351 OFFCURVE",
"364 351 CURVE SMOOTH",
"400 351 OFFCURVE",
"430 376 OFFCURVE",
"430 422 CURVE SMOOTH",
"430 465 OFFCURVE",
"403 496 OFFCURVE",
"352 496 CURVE SMOOTH",
"297 496 OFFCURVE",
"239 446 OFFCURVE",
"211 391 CURVE",
"211 399 LINE",
"202 485 LINE",
"192 495 LINE",
"20 437 LINE",
"20 427 LINE",
"35 423 LINE SMOOTH",
"61 418 OFFCURVE",
"70 405 OFFCURVE",
"70 376 CURVE SMOOTH",
"70 332 OFFCURVE",
"70 308 OFFCURVE",
"70 266 CURVE SMOOTH",
"70 210 LINE SMOOTH",
"70 169 OFFCURVE",
"70 111 OFFCURVE",
"70 63 CURVE SMOOTH",
"70 37 OFFCURVE",
"61 22 OFFCURVE",
"35 14 CURVE SMOOTH",
"20 10 LINE",
"20 0 LINE"
);
}
);
width = 441;
}
);
leftKerningGroup = LAT_m;
leftMetricsKey = n;
rightKerningGroup = LAT_r;
unicode = 0072;
},
{
color = 4;
glyphname = s;
layers = (
{
anchors = (
{
name = aboveLC;
position = "{226, 514}";
},
{
name = baseLC;
position = "{212, 0}";
},
{
name = belowLC;
position = "{214, -22}";
}
);
layerId = "78A9F7DD-241B-40F2-ADB9-3345ED68833B";
paths = (
{
closed = 1;
nodes = (
"331 -15 OFFCURVE",
"412 48 OFFCURVE",
"412 146 CURVE SMOOTH",
"412 218 OFFCURVE",
"374 269 OFFCURVE",
"278 299 CURVE SMOOTH",
"233 312 LINE SMOOTH",
"166 334 OFFCURVE",
"132 358 OFFCURVE",
"132 403 CURVE SMOOTH",
"132 449 OFFCURVE",
"180 476 OFFCURVE",
"226 476 CURVE SMOOTH",
"275 476 OFFCURVE",
"293 460 OFFCURVE",
"319 416 CURVE SMOOTH",
"354 354 LINE",
"364 354 LINE",
"370 462 LINE",
"327 484 OFFCURVE",
"282 496 OFFCURVE",
"230 496 CURVE SMOOTH",
"100 496 OFFCURVE",
"29 426 OFFCURVE",
"29 338 CURVE SMOOTH",
"29 264 OFFCURVE",
"79 213 OFFCURVE",
"160 189 CURVE SMOOTH",
"202 176 LINE SMOOTH",
"278 153 OFFCURVE",
"301 128 OFFCURVE",
"301 84 CURVE SMOOTH",
"301 36 OFFCURVE",
"258 5 OFFCURVE",
"194 5 CURVE SMOOTH",
"139 5 OFFCURVE",
"107 31 OFFCURVE",
"78 84 CURVE SMOOTH",
"44 144 LINE",
"34 144 LINE",
"33 25 LINE",
"77 2 OFFCURVE",
"127 -15 OFFCURVE",
"193 -15 CURVE SMOOTH"
);
}
);
width = 436;
}
);
leftKerningGroup = LAT_s;
rightKerningGroup = LAT_s;
unicode = 0073;
},
{
color = 4;
glyphname = germandbls;
layers = (
{
layerId = "78A9F7DD-241B-40F2-ADB9-3345ED68833B";
paths = (
{
closed = 1;
nodes = (
"524 -15 OFFCURVE",
"611 51 OFFCURVE",
"611 145 CURVE SMOOTH",
"611 219 OFFCURVE",
"576 268 OFFCURVE",
"490 307 CURVE SMOOTH",
"404 342 OFFCURVE",
"368 356 OFFCURVE",
"368 383 CURVE SMOOTH",
"368 405 OFFCURVE",
"392 424 OFFCURVE",
"452 454 CURVE SMOOTH",
"517 491 OFFCURVE",
"555 528 OFFCURVE",
"555 581 CURVE SMOOTH",
"555 652 OFFCURVE",
"480 711 OFFCURVE",
"349 711 CURVE SMOOTH",
"263 711 OFFCURVE",
"187 675 OFFCURVE",
"138 618 CURVE SMOOTH",
"102 579 OFFCURVE",
"71 521 OFFCURVE",
"71 427 CURVE SMOOTH",
"71 206 LINE SMOOTH",
"71 168 OFFCURVE",
"71 102 OFFCURVE",
"70 62 CURVE SMOOTH",
"69 35 OFFCURVE",
"56 20 OFFCURVE",
"31 12 CURVE SMOOTH",
"26 10 LINE",
"26 0 LINE",
"216 0 LINE",
"214 69 OFFCURVE",
"213 137 OFFCURVE",
"213 206 CURVE SMOOTH",
"213 404 LINE SMOOTH",
"213 504 OFFCURVE",
"218 559 OFFCURVE",
"231 601 CURVE",
"249 663 OFFCURVE",
"288 691 OFFCURVE",
"341 691 CURVE SMOOTH",
"412 691 OFFCURVE",
"450 647 OFFCURVE",
"450 577 CURVE SMOOTH",
"450 529 OFFCURVE",
"429 486 OFFCURVE",
"383 445 CURVE SMOOTH",
"333 403 OFFCURVE",
"289 380 OFFCURVE",
"289 324 CURVE SMOOTH",
"289 263 OFFCURVE",
"333 224 OFFCURVE",
"405 195 CURVE SMOOTH",
"473 165 OFFCURVE",
"501 143 OFFCURVE",
"501 95 CURVE SMOOTH",
"501 39 OFFCURVE",
"458 5 OFFCURVE",
"408 5 CURVE SMOOTH",
"390 5 OFFCURVE",
"374 9 OFFCURVE",
"359 14 CURVE SMOOTH",
"329 26 OFFCURVE",
"317 49 OFFCURVE",
"305 81 CURVE SMOOTH",
"282 140 LINE",
"271 140 LINE",
"270 16 LINE",
"316 -6 OFFCURVE",
"359 -15 OFFCURVE",
"410 -15 CURVE SMOOTH"
);
}
);
width = 644;
}
);
leftKerningGroup = LAT_f;
unicode = 00DF;
},
{
color = 4;
glyphname = t;
layers = (
{
anchors = (
{
name = aboveLC;
position = "{176, 644}";
},
{
name = baseLC;
position = "{204, 0}";
},
{
name = belowLC;
position = "{204, -22}";
}
);
layerId = "78A9F7DD-241B-40F2-ADB9-3345ED68833B";
paths = (
{
closed = 1;
nodes = (
"277 -15 OFFCURVE",
"323 13 OFFCURVE",
"350 59 CURVE",
"340 69 LINE",
"319 45 OFFCURVE",
"299 30 OFFCURVE",
"271 30 CURVE SMOOTH",
"239 30 OFFCURVE",
"216 54 OFFCURVE",
"216 101 CURVE SMOOTH",
"216 461 LINE",
"329 461 LINE",
"329 481 LINE",
"217 481 LINE",
"220 621 LINE",
"210 621 LINE",
"128 530 LINE SMOOTH",
"99 500 OFFCURVE",
"71 484 OFFCURVE",
"30 475 CURVE SMOOTH",
"6 471 LINE",
"6 461 LINE",
"75 461 LINE",
"75 215 LINE SMOOTH",
"75 176 OFFCURVE",
"75 151 OFFCURVE",
"75 119 CURVE SMOOTH",
"75 25 OFFCURVE",
"124 -15 OFFCURVE",
"210 -15 CURVE SMOOTH"
);
}
);
width = 361;
}
);
leftKerningGroup = LAT_t;
rightKerningGroup = LAT_t;
unicode = 0074;
},
{
color = 4;
glyphname = tcaron;
layers = (
{
components = (
{
alignment = -1;
name = t;
}
);
layerId = "78A9F7DD-241B-40F2-ADB9-3345ED68833B";
paths = (
{
closed = 1;
nodes = (
"355 555 OFFCURVE",
"395 610 OFFCURVE",
"396 675 CURVE SMOOTH",
"397 719 OFFCURVE",
"374 745 OFFCURVE",
"337 745 CURVE SMOOTH",
"304 745 OFFCURVE",
"280 721 OFFCURVE",
"280 688 CURVE SMOOTH",
"280 659 OFFCURVE",
"301 636 OFFCURVE",
"334 630 CURVE SMOOTH",
"360 626 LINE",
"354 660 LINE",
"347 597 OFFCURVE",
"325 565 OFFCURVE",
"280 536 CURVE",
"284 526 LINE"
);
}
);
width = 351;
}
);
leftKerningGroup = LAT_t;
rightKerningGroup = LAT_t;
unicode = 0165;
},
{
color = 4;
glyphname = u;
layers = (
{
anchors = (
{
name = aboveLC;
position = "{282, 514}";
},
{
name = belowLC;
position = "{291, -22}";
},
{
name = hornLC;
position = "{486, 468}";
},
{
name = ogonek;
position = "{484, 0}";
}
);
layerId = "78A9F7DD-241B-40F2-ADB9-3345ED68833B";
paths = (
{
closed = 1;
nodes = (
"270 -15 OFFCURVE",
"319 13 OFFCURVE",
"363 49 CURVE",
"372 -10 LINE",
"547 0 LINE",
"547 10 LINE",
"537 13 LINE SMOOTH",
"510 23 OFFCURVE",
"505 38 OFFCURVE",
"505 67 CURVE SMOOTH",
"505 338 LINE",
"508 480 LINE",
"498 490 LINE",
"323 452 LINE",
"323 442 LINE",
"333 439 LINE SMOOTH",
"358 434 OFFCURVE",
"366 423 OFFCURVE",
"366 393 CURVE SMOOTH",
"362 67 LINE",
"332 46 OFFCURVE",
"305 35 OFFCURVE",
"268 35 CURVE SMOOTH",
"230 35 OFFCURVE",
"203 54 OFFCURVE",
"203 97 CURVE SMOOTH",
"203 338 LINE",
"208 480 LINE",
"198 490 LINE",
"19 455 LINE",
"19 445 LINE",
"31 441 LINE SMOOTH",
"54 436 OFFCURVE",
"64 424 OFFCURVE",
"64 394 CURVE SMOOTH",
"61 137 LINE SMOOTH",
"59 26 OFFCURVE",
"122 -15 OFFCURVE",
"201 -15 CURVE SMOOTH"
);
}
);
width = 567;
}
);
leftKerningGroup = LAT_u;
leftMetricsKey = "=|n";
rightKerningGroup = LAT_u;
rightMetricsKey = "=|n";
unicode = 0075;
},
{
color = 4;
glyphname = v;
layers = (
{
anchors = (
{
name = aboveLC;
position = "{302, 514}";
},
{
name = belowLC;
position = "{277, -22}";
}
);
layerId = "78A9F7DD-241B-40F2-ADB9-3345ED68833B";
paths = (
{
closed = 1;
nodes = (
"302 -3 LINE",
"449 419 LINE SMOOTH",
"458 445 OFFCURVE",
"470 457 OFFCURVE",
"496 464 CURVE SMOOTH",
"525 471 LINE",
"525 481 LINE",
"380 481 LINE",
"380 471 LINE",
"405 465 LINE SMOOTH",
"431 457 OFFCURVE",
"435 440 OFFCURVE",
"425 413 CURVE SMOOTH",
"327 136 LINE",
"222 415 LINE SMOOTH",
"213 441 OFFCURVE",
"219 460 OFFCURVE",
"246 467 CURVE SMOOTH",
"264 471 LINE",
"264 481 LINE",
"5 481 LINE",
"5 471 LINE",
"19 467 LINE SMOOTH",
"44 459 OFFCURVE",
"57 447 OFFCURVE",
"67 422 CURVE SMOOTH",
"244 -3 LINE"
);
}
);
width = 530;
}
);
leftKerningGroup = LAT_v;
rightKerningGroup = LAT_v;
unicode = 0076;
},
{
color = 4;
glyphname = w;
layers = (
{
anchors = (
{
name = aboveLC;
position = "{426, 514}";
},
{
name = belowLC;
position = "{412, -22}";
}
);
layerId = "78A9F7DD-241B-40F2-ADB9-3345ED68833B";
paths = (
{
closed = 1;
nodes = (
"563 -3 LINE",
"707 420 LINE SMOOTH",
"715 444 OFFCURVE",
"722 457 OFFCURVE",
"745 464 CURVE SMOOTH",
"769 471 LINE",
"769 481 LINE",
"649 481 LINE",
"649 471 LINE",
"671 465 LINE SMOOTH",
"692 458 OFFCURVE",
"695 442 OFFCURVE",
"686 417 CURVE SMOOTH",
"591 141 LINE",
"499 419 LINE SMOOTH",
"490 446 OFFCURVE",
"493 457 OFFCURVE",
"513 465 CURVE SMOOTH",
"527 471 LINE",
"527 481 LINE",
"320 481 LINE",
"320 471 LINE",
"337 463 LINE SMOOTH",
"353 456 OFFCURVE",
"361 442 OFFCURVE",
"371 413 CURVE SMOOTH",
"512 -3 LINE"
);
},
{
closed = 1;
nodes = (
"283 -3 LINE",
"409 345 LINE",
"397 373 LINE",
"307 136 LINE",
"214 419 LINE SMOOTH",
"205 444 OFFCURVE",
"215 459 OFFCURVE",
"240 467 CURVE SMOOTH",
"255 471 LINE",
"255 481 LINE",
"10 481 LINE",
"10 471 LINE",
"27 465 LINE SMOOTH",
"50 456 OFFCURVE",
"63 443 OFFCURVE",
"71 420 CURVE SMOOTH",
"225 -3 LINE"
);
}
);
width = 781;
}
);
leftKerningGroup = LAT_v;
rightKerningGroup = LAT_v;
unicode = 0077;
},
{
color = 4;
glyphname = x;
layers = (
{
anchors = (
{
name = aboveLC;
position = "{284, 514}";
},
{
name = belowLC;
position = "{260, -22}";
}
);
layerId = "78A9F7DD-241B-40F2-ADB9-3345ED68833B";
paths = (
{
closed = 1;
nodes = (
"163 0 LINE",
"163 10 LINE",
"143 15 LINE SMOOTH",
"121 20 OFFCURVE",
"114 36 OFFCURVE",
"130 58 CURVE SMOOTH",
"225 196 LINE",
"313 59 LINE SMOOTH",
"326 38 OFFCURVE",
"320 19 OFFCURVE",
"297 14 CURVE SMOOTH",
"280 10 LINE",
"280 0 LINE",
"556 0 LINE",
"556 10 LINE",
"540 15 LINE SMOOTH",
"512 22 OFFCURVE",
"490 38 OFFCURVE",
"473 65 CURVE SMOOTH",
"336 278 LINE",
"441 420 LINE SMOOTH",
"460 446 OFFCURVE",
"471 457 OFFCURVE",
"501 465 CURVE SMOOTH",
"525 471 LINE",
"525 481 LINE",
"379 481 LINE",
"379 471 LINE",
"404 464 LINE SMOOTH",
"429 457 OFFCURVE",
"428 441 OFFCURVE",
"413 419 CURVE SMOOTH",
"324 296 LINE",
"242 423 LINE SMOOTH",
"229 444 OFFCURVE",
"233 460 OFFCURVE",
"256 467 CURVE SMOOTH",
"273 471 LINE",
"273 481 LINE",
"19 481 LINE",
"19 471 LINE",
"33 467 LINE SMOOTH",
"56 461 OFFCURVE",
"63 452 OFFCURVE",
"76 432 CURVE SMOOTH",
"212 216 LINE",
"104 61 LINE SMOOTH",
"86 35 OFFCURVE",
"70 22 OFFCURVE",
"39 16 CURVE SMOOTH",
"13 10 LINE",
"13 0 LINE"
);
}
);
width = 568;
}
);
unicode = 0078;
},
{
color = 4;
glyphname = y;
layers = (
{
anchors = (
{
name = aboveLC;
position = "{298, 514}";
},
{
name = belowLC;
position = "{151, -247}";
}
);
layerId = "78A9F7DD-241B-40F2-ADB9-3345ED68833B";
paths = (
{
closed = 1;
nodes = (
"194 -240 OFFCURVE",
"239 -171 OFFCURVE",
"291 -31 CURVE SMOOTH",
"452 408 LINE SMOOTH",
"463 439 OFFCURVE",
"470 455 OFFCURVE",
"501 464 CURVE SMOOTH",
"523 471 LINE",
"523 481 LINE",
"384 481 LINE",
"384 471 LINE",
"405 466 LINE SMOOTH",
"436 458 OFFCURVE",
"435 436 OFFCURVE",
"424 406 CURVE SMOOTH",
"325 133 LINE",
"221 403 LINE SMOOTH",
"210 433 OFFCURVE",
"207 454 OFFCURVE",
"236 464 CURVE SMOOTH",
"256 472 LINE",
"256 481 LINE",
"7 481 LINE",
"7 471 LINE",
"25 464 LINE SMOOTH",
"49 453 OFFCURVE",
"56 439 OFFCURVE",
"66 414 CURVE SMOOTH",
"260 -50 LINE",
"240 -105 OFFCURVE",
"225 -135 OFFCURVE",
"213 -155 CURVE SMOOTH",
"199 -175 OFFCURVE",
"183 -175 OFFCURVE",
"169 -156 CURVE SMOOTH",
"162 -148 LINE SMOOTH",
"145 -122 OFFCURVE",
"123 -107 OFFCURVE",
"90 -107 CURVE SMOOTH",
"57 -107 OFFCURVE",
"25 -132 OFFCURVE",
"25 -169 CURVE SMOOTH",
"25 -211 OFFCURVE",
"58 -240 OFFCURVE",
"112 -240 CURVE SMOOTH"
);
}
);
width = 536;
}
);
leftKerningGroup = LAT_y;
rightKerningGroup = LAT_v;
unicode = 0079;
},
{
color = 4;
glyphname = z;
layers = (
{
anchors = (
{
name = aboveLC;
position = "{247, 514}";
},
{
name = belowLC;
position = "{246, -22}";
}
);
layerId = "78A9F7DD-241B-40F2-ADB9-3345ED68833B";
paths = (
{
closed = 1;
nodes = (
"438 0 LINE",
"447 150 LINE",
"437 150 LINE",
"402 76 LINE SMOOTH",
"385 41 OFFCURVE",
"370 20 OFFCURVE",
"327 20 CURVE SMOOTH",
"170 20 LINE",
"437 467 LINE",
"437 481 LINE",
"37 481 LINE",
"30 343 LINE",
"40 343 LINE",
"76 410 LINE SMOOTH",
"93 441 OFFCURVE",
"110 461 OFFCURVE",
"145 461 CURVE SMOOTH",
"296 461 LINE",
"23 16 LINE",
"23 0 LINE"
);
}
);
width = 465;
}
);
leftKerningGroup = LAT_z;
rightKerningGroup = LAT_z;
unicode = 007A;
},
{
color = 0;
export = 0;
glyphname = "alpha-latin";
layers = (
{
anchors = (
{
name = aboveLC;
position = "{307, 514}";
},
{
name = belowLC;
position = "{308, -22}";
}
);
layerId = "78A9F7DD-241B-40F2-ADB9-3345ED68833B";
paths = (
{
closed = 1;
nodes = (
"304 -15 OFFCURVE",
"357 17 OFFCURVE",
"402 90 CURVE",
"388 115 LINE",
"357 81 OFFCURVE",
"330 65 OFFCURVE",
"296 65 CURVE SMOOTH",
"230 65 OFFCURVE",
"183 113 OFFCURVE",
"183 237 CURVE SMOOTH",
"183 368 OFFCURVE",
"237 418 OFFCURVE",
"306 418 CURVE SMOOTH",
"335 418 OFFCURVE",
"361 408 OFFCURVE",
"394 376 CURVE",
"413 403 LINE",
"371 469 OFFCURVE",
"322 496 OFFCURVE",
"266 496 CURVE SMOOTH",
"138 496 OFFCURVE",
"38 395 OFFCURVE",
"38 226 CURVE SMOOTH",
"38 68 OFFCURVE",
"121 -15 OFFCURVE",
"231 -15 CURVE SMOOTH"
);
},
{
closed = 1;
nodes = (
"379 75 LINE",
"388 24 OFFCURVE",
"424 -13 OFFCURVE",
"483 -13 CURVE SMOOTH",
"538 -13 OFFCURVE",
"572 6 OFFCURVE",
"596 57 CURVE",
"571 75 LINE",
"559 60 OFFCURVE",
"550 53 OFFCURVE",
"538 53 CURVE SMOOTH",
"522 53 OFFCURVE",
"513 64 OFFCURVE",
"513 90 CURVE SMOOTH",
"513 351 LINE",
"516 486 LINE",
"489 496 LINE",
"371 427 LINE",
"371 86 LINE"
);
}
);
width = 577;
}
);
unicode = 0251;
},
{
color = 0;
export = 0;
glyphname = schwa;
layers = (
{
anchors = (
{
name = aboveLC;
position = "{259, 512}";
},
{
name = belowLC;
position = "{263, -22}";
}
);
layerId = "78A9F7DD-241B-40F2-ADB9-3345ED68833B";
paths = (
{
closed = 1;
nodes = (
"375 -15 OFFCURVE",
"491 78 OFFCURVE",
"491 242 CURVE SMOOTH",
"491 403 OFFCURVE",
"394 496 OFFCURVE",
"250 496 CURVE SMOOTH",
"161 496 OFFCURVE",
"89 454 OFFCURVE",
"49 379 CURVE",
"81 350 LINE",
"112 383 OFFCURVE",
"153 408 OFFCURVE",
"204 408 CURVE SMOOTH",
"281 408 OFFCURVE",
"341 346 OFFCURVE",
"341 224 CURVE SMOOTH",
"341 82 OFFCURVE",
"296 35 OFFCURVE",
"250 35 CURVE SMOOTH",
"204 35 OFFCURVE",
"167 80 OFFCURVE",
"167 157 CURVE SMOOTH",
"167 200 OFFCURVE",
"179 217 OFFCURVE",
"230 217 CURVE SMOOTH",
"426 217 LINE",
"426 267 LINE",
"39 267 LINE",
"35 247 OFFCURVE",
"33 228 OFFCURVE",
"33 202 CURVE SMOOTH",
"33 72 OFFCURVE",
"110 -15 OFFCURVE",
"256 -15 CURVE SMOOTH"
);
}
);
width = 523;
}
);
leftKerningGroup = LAT_o;
rightKerningGroup = LAT_b;
unicode = 0259;
},
{
color = 0;
export = 0;
glyphname = hbar;
layers = (
{
layerId = "78A9F7DD-241B-40F2-ADB9-3345ED68833B";
paths = (
{
closed = 1;
nodes = (
"383 527 LINE",
"383 582 LINE",
"21 582 LINE",
"21 527 LINE"
);
},
{
closed = 1;
nodes = (
"234 0 LINE",
"232 45 OFFCURVE",
"231 148 OFFCURVE",
"231 210 CURVE SMOOTH",
"231 341 LINE",
"228 354 LINE",
"228 569 LINE",
"232 720 LINE",
"216 729 LINE",
"22 684 LINE",
"22 644 LINE",
"89 634 LINE",
"89 210 LINE SMOOTH",
"89 148 OFFCURVE",
"88 45 OFFCURVE",
"86 0 CURVE"
);
},
{
closed = 1;
nodes = (
"284 0 LINE",
"284 44 LINE",
"189 64 LINE",
"125 64 LINE",
"28 44 LINE",
"28 0 LINE"
);
},
{
closed = 1;
nodes = (
"537 0 LINE",
"535 45 OFFCURVE",
"534 146 OFFCURVE",
"534 210 CURVE SMOOTH",
"534 296 LINE SMOOTH",
"534 415 OFFCURVE",
"480 471 OFFCURVE",
"392 471 CURVE SMOOTH",
"320 471 OFFCURVE",
"259 435 OFFCURVE",
"194 342 CURVE",
"234 368 LINE",
"172 368 LINE",
"172 303 LINE",
"205 303 LINE",
"249 352 OFFCURVE",
"292 381 OFFCURVE",
"332 381 CURVE SMOOTH",
"377 381 OFFCURVE",
"392 357 OFFCURVE",
"392 286 CURVE SMOOTH",
"392 210 LINE SMOOTH",
"392 146 OFFCURVE",
"391 45 OFFCURVE",
"389 0 CURVE"
);
},
{
closed = 1;
nodes = (
"590 0 LINE",
"590 44 LINE",
"492 64 LINE",
"429 64 LINE",
"334 44 LINE",
"334 0 LINE"
);
}
);
width = 613;
}
);
leftKerningGroup = LAT_h;
rightKerningGroup = LAT_h;
unicode = 0127;
},
{
color = 0;
export = 0;
glyphname = jdotless;
layers = (
{
anchors = (
{
name = aboveLC;
position = "{153, 512}";
}
);
layerId = "78A9F7DD-241B-40F2-ADB9-3345ED68833B";
paths = (
{
closed = 1;
nodes = (
"89 -39 OFFCURVE",
"92 -105 OFFCURVE",
"73 -157 CURVE SMOOTH",
"66 -185 OFFCURVE",
"46 -204 OFFCURVE",
"17 -204 CURVE SMOOTH",
"-21 -204 OFFCURVE",
"-46 -190 OFFCURVE",
"-58 -169 CURVE",
"-55 -214 LINE",
"94 -211 LINE",
"57 -160 LINE SMOOTH",
"29 -120 OFFCURVE",
"0 -105 OFFCURVE",
"-36 -105 CURVE SMOOTH",
"-74 -105 OFFCURVE",
"-104 -131 OFFCURVE",
"-110 -173 CURVE",
"-98 -207 OFFCURVE",
"-61 -240 OFFCURVE",
"14 -240 CURVE SMOOTH",
"62 -240 OFFCURVE",
"119 -225 OFFCURVE",
"165 -178 CURVE SMOOTH",
"215 -126 OFFCURVE",
"229 -70 OFFCURVE",
"229 60 CURVE SMOOTH",
"229 343 LINE",
"232 485 LINE",
"216 496 LINE",
"20 431 LINE",
"20 393 LINE",
"86 384 LINE",
"88 344 OFFCURVE",
"89 313 OFFCURVE",
"89 258 CURVE SMOOTH",
"89 76 LINE SMOOTH"
);
}
);
width = 300;
}
);
leftKerningGroup = LAT_j;
rightKerningGroup = LAT_j;
unicode = 0237;
},
{
color = 0;
export = 0;
glyphname = kgreenlandic;
layers = (
{
layerId = "78A9F7DD-241B-40F2-ADB9-3345ED68833B";
paths = (
{
closed = 1;
nodes = (
"236 0 LINE",
"234 45 OFFCURVE",
"233 148 OFFCURVE",
"233 226 CURVE SMOOTH",
"233 373 LINE",
"236 485 LINE",
"219 496 LINE",
"23 431 LINE",
"23 393 LINE",
"88 384 LINE",
"90 344 OFFCURVE",
"91 320 OFFCURVE",
"91 265 CURVE SMOOTH",
"91 210 LINE SMOOTH",
"91 148 OFFCURVE",
"90 45 OFFCURVE",
"88 0 CURVE"
);
},
{
closed = 1;
nodes = (
"287 0 LINE",
"287 44 LINE",
"191 64 LINE",
"127 64 LINE",
"31 44 LINE",
"31 0 LINE"
);
},
{
closed = 1;
nodes = (
"529 481 LINE",
"454 481 LINE",
"160 190 LINE",
"160 129 LINE"
);
},
{
closed = 1;
nodes = (
"587 0 LINE",
"587 44 LINE",
"458 74 LINE",
"545 16 LINE",
"366 353 LINE",
"267 262 LINE",
"399 0 LINE"
);
},
{
closed = 1;
nodes = (
"430 419 LINE",
"450 422 LINE",
"561 438 LINE",
"561 481 LINE",
"328 481 LINE",
"328 438 LINE"
);
}
);
width = 588;
}
);
leftKerningGroup = LAT_m;
rightKerningGroup = LAT_k;
unicode = 0138;
},
{
color = 0;
export = 0;
glyphname = longs;
layers = (
{
layerId = "78A9F7DD-241B-40F2-ADB9-3345ED68833B";
paths = (
{
closed = 1;
nodes = (
"128 64 LINE",
"27 44 LINE",
"27 0 LINE",
"313 0 LINE",
"313 44 LINE",
"212 64 LINE"
);
},
{
closed = 1;
nodes = (
"89 140 OFFCURVE",
"88 70 OFFCURVE",
"86 0 CURVE",
"234 0 LINE",
"232 70 OFFCURVE",
"231 140 OFFCURVE",
"231 210 CURVE SMOOTH",
"231 417 LINE SMOOTH",
"231 535 OFFCURVE",
"231 608 OFFCURVE",
"256 657 CURVE SMOOTH",
"269 681 OFFCURVE",
"285 699 OFFCURVE",
"325 716 CURVE",
"264 707 LINE",
"293 672 LINE SMOOTH",
"319 627 OFFCURVE",
"346 608 OFFCURVE",
"377 608 CURVE SMOOTH",
"420 608 OFFCURVE",
"445 634 OFFCURVE",
"446 669 CURVE",
"434 718 OFFCURVE",
"386 739 OFFCURVE",
"332 739 CURVE SMOOTH",
"277 739 OFFCURVE",
"221 723 OFFCURVE",
"171 674 CURVE SMOOTH",
"129 632 OFFCURVE",
"89 569 OFFCURVE",
"89 442 CURVE SMOOTH",
"89 210 LINE SMOOTH"
);
}
);
width = 355;
}
);
leftKerningGroup = LAT_f;
rightKerningGroup = LAT_f;
unicode = 017F;
},
{
color = 8;
export = 0;
glyphname = k.001;
lastChange = "2019-06-06 17:29:56 +0000";
layers = (
{
anchors = (
{
name = aboveLC;
position = "{140, 701}";
},
{
name = belowLC;
position = "{307, -22}";
}
);
layerId = "78A9F7DD-241B-40F2-ADB9-3345ED68833B";
paths = (
{
closed = 1;
nodes = (
"261 0 LINE",
"261 10 LINE",
"247 14 LINE",
"224 21 OFFCURVE",
"213 37 OFFCURVE",
"213 64 CURVE SMOOTH",
"213 107 OFFCURVE",
"213 155 OFFCURVE",
"213 220 CURVE",
"249 258 LINE",
"379 0 LINE",
"561 0 LINE",
"561 10 LINE",
"557 12 LINE",
"528 22 OFFCURVE",
"515 35 OFFCURVE",
"498 67 CURVE SMOOTH",
"348 352 LINE",
"415 419 LINE SMOOTH",
"440 444 OFFCURVE",
"456 455 OFFCURVE",
"486 463 CURVE SMOOTH",
"515 471 LINE",
"515 481 LINE",
"360 481 LINE",
"360 471 LINE",
"378 467 LINE SMOOTH",
"404 459 OFFCURVE",
"398 435 OFFCURVE",
"382 419 CURVE SMOOTH",
"213 252 LINE",
"213 552 LINE",
"217 692 LINE",
"205 701 LINE",
"22 658 LINE",
"22 648 LINE",
"35 645 LINE SMOOTH",
"62 637 OFFCURVE",
"71 626 OFFCURVE",
"71 599 CURVE SMOOTH",
"71 210 LINE SMOOTH",
"71 161 OFFCURVE",
"71 112 OFFCURVE",
"71 64 CURVE SMOOTH",
"71 37 OFFCURVE",
"59 22 OFFCURVE",
"37 15 CURVE",
"22 10 LINE",
"22 0 LINE"
);
}
);
width = 562;
}
);
leftKerningGroup = LAT_h;
rightKerningGroup = LAT_k;
},
{
color = 8;
export = 0;
glyphname = g.ss01.001_old;
lastChange = "2019-06-06 17:29:56 +0000";
layers = (
{
anchors = (
{
name = aboveLC;
position = "{255, 514}";
},
{
name = belowLC;
position = "{253, -236}";
}
);
layerId = "78A9F7DD-241B-40F2-ADB9-3345ED68833B";
paths = (
{
closed = 1;
nodes = (
"412 -230 OFFCURVE",
"509 -145 OFFCURVE",
"509 -47 CURVE SMOOTH",
"509 43 OFFCURVE",
"457 102 OFFCURVE",
"314 102 CURVE SMOOTH",
"172 102 LINE SMOOTH",
"134 102 OFFCURVE",
"116 123 OFFCURVE",
"116 153 CURVE SMOOTH",
"116 171 OFFCURVE",
"116 183 OFFCURVE",
"116 206 CURVE",
"108 211 LINE",
"76 169 OFFCURVE",
"46 125 OFFCURVE",
"46 85 CURVE SMOOTH",
"46 48 OFFCURVE",
"64 17 OFFCURVE",
"104 -2 CURVE",
"49 -29 OFFCURVE",
"14 -66 OFFCURVE",
"14 -117 CURVE SMOOTH",
"14 -175 OFFCURVE",
"66 -230 OFFCURVE",
"227 -230 CURVE SMOOTH"
);
},
{
closed = 1;
nodes = (
"134 -203 OFFCURVE",
"88 -169 OFFCURVE",
"88 -90 CURVE SMOOTH",
"88 -58 OFFCURVE",
"96 -30 OFFCURVE",
"115 -10 CURVE",
"138 -19 OFFCURVE",
"170 -22 OFFCURVE",
"208 -22 CURVE SMOOTH",
"316 -22 LINE SMOOTH",
"383 -22 OFFCURVE",
"407 -41 OFFCURVE",
"407 -97 CURVE SMOOTH",
"407 -166 OFFCURVE",
"350 -203 OFFCURVE",
"240 -203 CURVE SMOOTH"
);
},
{
closed = 1;
nodes = (
"186 193 OFFCURVE",
"164 231 OFFCURVE",
"164 334 CURVE SMOOTH",
"164 437 OFFCURVE",
"189 476 OFFCURVE",
"239 476 CURVE SMOOTH",
"290 476 OFFCURVE",
"314 438 OFFCURVE",
"314 336 CURVE SMOOTH",
"314 233 OFFCURVE",
"290 193 OFFCURVE",
"237 193 CURVE SMOOTH"
);
},
{
closed = 1;
nodes = (
"371 173 OFFCURVE",
"441 240 OFFCURVE",
"441 334 CURVE SMOOTH",
"441 374 OFFCURVE",
"429 410 OFFCURVE",
"405 437 CURVE",
"518 437 LINE",
"518 488 LINE",
"504 498 LINE",
"475 473 OFFCURVE",
"436 458 OFFCURVE",
"392 450 CURVE",
"358 479 OFFCURVE",
"307 496 OFFCURVE",
"239 496 CURVE SMOOTH",
"105 496 OFFCURVE",
"36 430 OFFCURVE",
"36 334 CURVE SMOOTH",
"36 238 OFFCURVE",
"105 173 OFFCURVE",
"238 173 CURVE SMOOTH"
);
}
);
width = 531;
}
);
leftKerningGroup = LAT_g;
rightKerningGroup = LAT_g;
},
{
color = 8;
export = 0;
glyphname = a.002;
lastChange = "2019-06-06 17:29:56 +0000";
layers = (
{
anchors = (
{
name = aboveLC;
position = "{255, 514}";
},
{
name = belowLC;
position = "{251, -22}";
},
{
name = ogonek;
position = "{467, 6}";
}
);
layerId = "78A9F7DD-241B-40F2-ADB9-3345ED68833B";
paths = (
{
closed = 1;
nodes = (
"232 -15 OFFCURVE",
"269 19 OFFCURVE",
"309 62 CURVE",
"322 15 OFFCURVE",
"357 -13 OFFCURVE",
"415 -13 CURVE SMOOTH",
"469 -13 OFFCURVE",
"503 6 OFFCURVE",
"527 57 CURVE",
"518 64 LINE",
"503 42 OFFCURVE",
"491 29 OFFCURVE",
"471 29 CURVE SMOOTH",
"453 29 OFFCURVE",
"444 44 OFFCURVE",
"444 72 CURVE SMOOTH",
"444 311 LINE SMOOTH",
"444 442 OFFCURVE",
"377 496 OFFCURVE",
"258 496 CURVE SMOOTH",
"147 496 OFFCURVE",
"52 453 OFFCURVE",
"52 371 CURVE SMOOTH",
"52 335 OFFCURVE",
"77 312 OFFCURVE",
"112 312 CURVE SMOOTH",
"149 312 OFFCURVE",
"177 337 OFFCURVE",
"180 395 CURVE SMOOTH",
"182 406 LINE SMOOTH",
"187 455 OFFCURVE",
"205 475 OFFCURVE",
"238 475 CURVE SMOOTH",
"238 475 OFFCURVE",
"238 475 OFFCURVE",
"238 475 CURVE SMOOTH",
"285 475 OFFCURVE",
"306 443 OFFCURVE",
"306 352 CURVE SMOOTH",
"306 273 LINE",
"277 268 OFFCURVE",
"249 263 OFFCURVE",
"228 259 CURVE SMOOTH",
"90 232 OFFCURVE",
"29 176 OFFCURVE",
"29 113 CURVE SMOOTH",
"29 30 OFFCURVE",
"89 -15 OFFCURVE",
"166 -15 CURVE SMOOTH"
);
},
{
closed = 1;
nodes = (
"191 46 OFFCURVE",
"162 73 OFFCURVE",
"162 128 CURVE SMOOTH",
"162 192 OFFCURVE",
"202 229 OFFCURVE",
"263 245 CURVE SMOOTH",
"280 248 OFFCURVE",
"292 250 OFFCURVE",
"306 253 CURVE",
"306 85 LINE",
"274 58 OFFCURVE",
"253 46 OFFCURVE",
"227 46 CURVE SMOOTH"
);
}
);
width = 528;
}
);
leftKerningGroup = LAT_a;
rightKerningGroup = LAT_a;
},
{
color = 8;
export = 0;
glyphname = g.002;
lastChange = "2019-06-06 17:29:56 +0000";
layers = (
{
anchors = (
{
name = aboveLC;
position = "{255, 514}";
},
{
name = belowLC;
position = "{253, -236}";
}
);
layerId = "78A9F7DD-241B-40F2-ADB9-3345ED68833B";
paths = (
{
closed = 1;
nodes = (
"412 -230 OFFCURVE",
"509 -145 OFFCURVE",
"509 -47 CURVE SMOOTH",
"509 39 OFFCURVE",
"457 95 OFFCURVE",
"314 95 CURVE SMOOTH",
"183 95 LINE SMOOTH",
"130 95 OFFCURVE",
"115 113 OFFCURVE",
"115 138 CURVE SMOOTH",
"115 160 OFFCURVE",
"126 175 OFFCURVE",
"141 192 CURVE",
"127 198 LINE",
"81 157 OFFCURVE",
"46 116 OFFCURVE",
"46 75 CURVE SMOOTH",
"46 39 OFFCURVE",
"64 8 OFFCURVE",
"104 -9 CURVE",
"49 -36 OFFCURVE",
"14 -69 OFFCURVE",
"14 -117 CURVE SMOOTH",
"14 -175 OFFCURVE",
"66 -230 OFFCURVE",
"227 -230 CURVE SMOOTH"
);
},
{
closed = 1;
nodes = (
"134 -203 OFFCURVE",
"88 -169 OFFCURVE",
"88 -90 CURVE SMOOTH",
"88 -60 OFFCURVE",
"96 -37 OFFCURVE",
"115 -17 CURVE",
"138 -26 OFFCURVE",
"170 -29 OFFCURVE",
"208 -29 CURVE SMOOTH",
"316 -29 LINE SMOOTH",
"383 -29 OFFCURVE",
"407 -46 OFFCURVE",
"407 -97 CURVE SMOOTH",
"407 -166 OFFCURVE",
"350 -203 OFFCURVE",
"240 -203 CURVE SMOOTH"
);
},
{
closed = 1;
nodes = (
"186 193 OFFCURVE",
"164 231 OFFCURVE",
"164 334 CURVE SMOOTH",
"164 437 OFFCURVE",
"189 476 OFFCURVE",
"239 476 CURVE SMOOTH",
"290 476 OFFCURVE",
"314 438 OFFCURVE",
"314 336 CURVE SMOOTH",
"314 233 OFFCURVE",
"290 193 OFFCURVE",
"237 193 CURVE SMOOTH"
);
},
{
closed = 1;
nodes = (
"371 173 OFFCURVE",
"441 240 OFFCURVE",
"441 334 CURVE SMOOTH",
"441 374 OFFCURVE",
"429 410 OFFCURVE",
"405 437 CURVE",
"518 437 LINE",
"518 488 LINE",
"504 498 LINE",
"475 473 OFFCURVE",
"436 458 OFFCURVE",
"392 450 CURVE",
"358 479 OFFCURVE",
"307 496 OFFCURVE",
"239 496 CURVE SMOOTH",
"105 496 OFFCURVE",
"36 430 OFFCURVE",
"36 334 CURVE SMOOTH",
"36 238 OFFCURVE",
"105 173 OFFCURVE",
"238 173 CURVE SMOOTH"
);
}
);
width = 531;
}
);
leftKerningGroup = LAT_g;
rightKerningGroup = LAT_g;
},
{
color = 0;
glyphname = f_f;
lastChange = "2019-06-06 20:03:35 +0000";
layers = (
{
anchors = (
{
name = caret_1;
position = "{343, 0}";
}
);
layerId = "78A9F7DD-241B-40F2-ADB9-3345ED68833B";
paths = (
{
closed = 1;
nodes = (
"284.32 0 LINE",
"284.32 10 LINE",
"259.375 16.438 LINE SMOOTH",
"233.06 23.438 OFFCURVE",
"219.498 37.877 OFFCURVE",
"219.06 65.438 CURVE SMOOTH",
"219.06 113.438 OFFCURVE",
"218.622 162 OFFCURVE",
"218.622 210 CURVE SMOOTH",
"218.622 461.302 LINE",
"330.783 461.302 LINE",
"330.783 481.302 LINE",
"218.622 481.302 LINE",
"218.622 541.285 OFFCURVE",
"223.443 607.642 OFFCURVE",
"233.209 654.932 CURVE SMOOTH",
"238.907 676.179 OFFCURVE",
"256.222 677.358 OFFCURVE",
"270.604 658.302 CURVE SMOOTH",
"285.179 640.617 LINE SMOOTH",
"309.672 597.408 OFFCURVE",
"336.098 581.544 OFFCURVE",
"367.962 581.544 CURVE SMOOTH",
"407.388 581.544 OFFCURVE",
"429.32 603.6 OFFCURVE",
"429.32 639.587 CURVE SMOOTH",
"429.32 690.191 OFFCURVE",
"375.907 710.562 OFFCURVE",
"323.043 710.562 CURVE SMOOTH",
"268.494 710.562 OFFCURVE",
"209.37 693.753 OFFCURVE",
"159.068 645.63 CURVE SMOOTH",
"125.438 612.494 OFFCURVE",
"98.451 574.809 OFFCURVE",
"85.204 522.617 CURVE SMOOTH",
"78.519 495.179 OFFCURVE",
"70.328 479.494 OFFCURVE",
"43.204 475.617 CURVE SMOOTH",
"21.068 471.864 LINE",
"21.068 461.302 LINE",
"76.834 461.302 LINE",
"76.834 210 LINE SMOOTH",
"76.834 160.877 OFFCURVE",
"76.396 111.877 OFFCURVE",
"76.396 62.753 CURVE SMOOTH",
"75.957 35.753 OFFCURVE",
"60.396 20.438 OFFCURVE",
"34.957 13.315 CURVE SMOOTH",
"21.506 10 LINE",
"21.506 0 LINE"
);
},
{
closed = 1;
nodes = (
"627.609 0 LINE",
"627.609 10 LINE",
"602.665 16.438 LINE SMOOTH",
"576.35 23.438 OFFCURVE",
"562.788 37.877 OFFCURVE",
"562.35 65.438 CURVE SMOOTH",
"562.35 113.438 OFFCURVE",
"561.911 162 OFFCURVE",
"561.911 210 CURVE SMOOTH",
"561.911 461.302 LINE",
"674.073 461.302 LINE",
"674.073 481.302 LINE",
"561.911 481.302 LINE",
"561.911 541.285 OFFCURVE",
"566.733 607.642 OFFCURVE",
"576.498 654.932 CURVE SMOOTH",
"582.196 676.179 OFFCURVE",
"599.511 677.358 OFFCURVE",
"613.894 658.302 CURVE SMOOTH",
"628.468 640.617 LINE SMOOTH",
"652.962 597.408 OFFCURVE",
"679.388 581.544 OFFCURVE",
"711.252 581.544 CURVE SMOOTH",
"750.677 581.544 OFFCURVE",
"772.609 603.6 OFFCURVE",
"772.609 639.587 CURVE SMOOTH",
"772.609 690.191 OFFCURVE",
"719.196 710.562 OFFCURVE",
"666.332 710.562 CURVE SMOOTH",
"611.783 710.562 OFFCURVE",
"552.66 693.753 OFFCURVE",
"502.358 645.63 CURVE SMOOTH",
"468.728 612.494 OFFCURVE",
"441.741 574.809 OFFCURVE",
"428.494 522.617 CURVE SMOOTH",
"421.809 498.302 OFFCURVE",
"413.617 481.302 OFFCURVE",
"386.494 481.302 CURVE SMOOTH",
"281.209 481.302 LINE",
"281.209 461.302 LINE",
"420.123 461.302 LINE",
"420.123 210 LINE SMOOTH",
"420.123 160.877 OFFCURVE",
"419.685 111.877 OFFCURVE",
"419.685 62.753 CURVE SMOOTH",
"419.247 35.753 OFFCURVE",
"403.685 20.438 OFFCURVE",
"378.247 13.315 CURVE SMOOTH",
"364.796 10 LINE",
"364.796 0 LINE"
);
}
);
width = 687;
}
);
leftKerningGroup = LAT_f;
rightKerningGroup = LAT_f;
},
{
color = 8;
glyphname = f_i;
lastChange = "2019-06-06 17:29:56 +0000";
layers = (
{
anchors = (
{
name = bottom_1;
position = "{145, 0}";
},
{
name = bottom_2;
position = "{437, 0}";
},
{
name = caret_1;
position = "{291, 0}";
},
{
name = top_1;
position = "{145, 719}";
},
{
name = top_2;
position = "{437, 719}";
}
);
layerId = "78A9F7DD-241B-40F2-ADB9-3345ED68833B";
paths = (
{
closed = 1;
nodes = (
"278 0 LINE",
"278 10 LINE",
"259 15 LINE",
"232 22 OFFCURVE",
"219 38 OFFCURVE",
"219 66 CURVE",
"218 114 OFFCURVE",
"219 171 OFFCURVE",
"219 210 CURVE SMOOTH",
"219 461 LINE",
"374 461 LINE",
"375 418 OFFCURVE",
"376 337 OFFCURVE",
"376 277 CURVE SMOOTH",
"376 210 LINE SMOOTH",
"376 177 OFFCURVE",
"377 115 OFFCURVE",
"376 66 CURVE SMOOTH",
"376 39 OFFCURVE",
"363 22 OFFCURVE",
"337 14 CURVE SMOOTH",
"327 10 LINE",
"327 0 LINE",
"562 0 LINE",
"562 11 LINE",
"555 13 LINE",
"530 21 OFFCURVE",
"517 38 OFFCURVE",
"517 65 CURVE",
"516 113 OFFCURVE",
"517 167 OFFCURVE",
"517 205 CURVE SMOOTH",
"517 346 LINE",
"520 485 LINE",
"507 496 LINE",
"492 491 LINE SMOOTH",
"471 484 OFFCURVE",
"454 481 OFFCURVE",
"432 481 CURVE SMOOTH",
"219 481 LINE",
"221 589 OFFCURVE",
"248 654 OFFCURVE",
"299 680 CURVE SMOOTH",
"315 689 OFFCURVE",
"329 681 OFFCURVE",
"338 664 CURVE SMOOTH",
"361 620 LINE",
"378 587 OFFCURVE",
"400 560 OFFCURVE",
"440 560 CURVE SMOOTH",
"477 560 OFFCURVE",
"501 582 OFFCURVE",
"501 618 CURVE SMOOTH",
"501 671 OFFCURVE",
"442 711 OFFCURVE",
"360 711 CURVE SMOOTH",
"223 711 OFFCURVE",
"121 650 OFFCURVE",
"87 524 CURVE SMOOTH",
"80 496 OFFCURVE",
"65 480 OFFCURVE",
"37 475 CURVE SMOOTH",
"21 472 LINE",
"21 461 LINE",
"77 461 LINE",
"77 210 LINE SMOOTH",
"77 170 OFFCURVE",
"77 113 OFFCURVE",
"76 65 CURVE SMOOTH",
"76 37 OFFCURVE",
"62 20 OFFCURVE",
"36 13 CURVE",
"21 10 LINE",
"21 0 LINE"
);
}
);
width = 582;
}
);
leftKerningGroup = LAT_f;
leftMetricsKey = f;
rightKerningGroup = LAT_i;
},
{
glyphname = f_j;
lastChange = "2019-06-06 17:29:56 +0000";
layers = (
{
layerId = "78A9F7DD-241B-40F2-ADB9-3345ED68833B";
paths = (
{
closed = 1;
nodes = (
"350 -240 OFFCURVE",
"407 -222 OFFCURVE",
"453 -175 CURVE SMOOTH",
"502 -123 OFFCURVE",
"517 -65 OFFCURVE",
"517 65 CURVE",
"517 346 LINE",
"520 485 LINE",
"507 496 LINE",
"475 485 LINE",
"466 482 OFFCURVE",
"459 481 OFFCURVE",
"449 481 CURVE",
"219 481 LINE",
"221 597 OFFCURVE",
"252 662 OFFCURVE",
"307 686 CURVE",
"318 690 OFFCURVE",
"328 685 OFFCURVE",
"334 675 CURVE",
"361 620 LINE SMOOTH",
"378 587 OFFCURVE",
"400 560 OFFCURVE",
"440 560 CURVE SMOOTH",
"477 560 OFFCURVE",
"501 582 OFFCURVE",
"501 618 CURVE SMOOTH",
"501 671 OFFCURVE",
"442 711 OFFCURVE",
"360 711 CURVE SMOOTH",
"214 711 OFFCURVE",
"108 643 OFFCURVE",
"82 502 CURVE",
"79 488 OFFCURVE",
"72 481 OFFCURVE",
"60 479 CURVE",
"21 472 LINE",
"21 461 LINE",
"77 461 LINE",
"77 210 LINE SMOOTH",
"77 164 OFFCURVE",
"77 91 OFFCURVE",
"76 43 CURVE",
"76 30 OFFCURVE",
"69 22 OFFCURVE",
"57 19 CURVE",
"21 10 LINE",
"21 0 LINE",
"278 0 LINE",
"278 10 LINE",
"238 22 LINE",
"226 24 OFFCURVE",
"219 32 OFFCURVE",
"219 45 CURVE",
"218 93 OFFCURVE",
"219 165 OFFCURVE",
"219 210 CURVE SMOOTH",
"219 461 LINE",
"374 461 LINE",
"375 418 OFFCURVE",
"376 337 OFFCURVE",
"376 277 CURVE",
"376 88 LINE",
"376 -34 OFFCURVE",
"377 -84 OFFCURVE",
"377 -162 CURVE SMOOTH",
"377 -200 OFFCURVE",
"360 -201 OFFCURVE",
"351 -186 CURVE SMOOTH",
"341 -164 LINE SMOOTH",
"325 -126 OFFCURVE",
"293 -108 OFFCURVE",
"258 -108 CURVE SMOOTH",
"222 -108 OFFCURVE",
"191 -133 OFFCURVE",
"191 -170 CURVE SMOOTH",
"191 -211 OFFCURVE",
"222 -240 OFFCURVE",
"297 -240 CURVE SMOOTH"
);
}
);
width = 567;
}
);
leftMetricsKey = f;
rightMetricsKey = j;
},
{
color = 8;
glyphname = f_l;
lastChange = "2019-06-06 17:29:56 +0000";
layers = (
{
anchors = (
{
name = bottom_1;
position = "{155, 0}";
},
{
name = bottom_2;
position = "{465, 0}";
},
{
name = caret_1;
position = "{310, 0}";
},
{
name = top_1;
position = "{155, 719}";
},
{
name = top_2;
position = "{465, 719}";
}
);
layerId = "78A9F7DD-241B-40F2-ADB9-3345ED68833B";
paths = (
{
closed = 1;
nodes = (
"284 0 LINE",
"284 10 LINE",
"259 16 LINE SMOOTH",
"233 23 OFFCURVE",
"219 38 OFFCURVE",
"219 65 CURVE SMOOTH",
"219 113 OFFCURVE",
"219 162 OFFCURVE",
"219 210 CURVE SMOOTH",
"219 461 LINE",
"331 461 LINE",
"331 481 LINE",
"219 481 LINE",
"219 541 OFFCURVE",
"224 608 OFFCURVE",
"233 655 CURVE SMOOTH",
"239 676 OFFCURVE",
"256 677 OFFCURVE",
"271 658 CURVE SMOOTH",
"285 641 LINE SMOOTH",
"310 597 OFFCURVE",
"336 582 OFFCURVE",
"368 582 CURVE SMOOTH",
"407 582 OFFCURVE",
"429 604 OFFCURVE",
"429 640 CURVE SMOOTH",
"429 690 OFFCURVE",
"376 711 OFFCURVE",
"323 711 CURVE SMOOTH",
"268 711 OFFCURVE",
"209 694 OFFCURVE",
"159 646 CURVE SMOOTH",
"125 612 OFFCURVE",
"98 575 OFFCURVE",
"85 523 CURVE SMOOTH",
"79 495 OFFCURVE",
"70 479 OFFCURVE",
"43 476 CURVE SMOOTH",
"21 472 LINE",
"21 461 LINE",
"77 461 LINE",
"77 210 LINE SMOOTH",
"77 161 OFFCURVE",
"76 112 OFFCURVE",
"76 63 CURVE SMOOTH",
"76 36 OFFCURVE",
"60 20 OFFCURVE",
"35 13 CURVE SMOOTH",
"22 10 LINE",
"22 0 LINE"
);
},
{
closed = 1;
nodes = (
"596 0 LINE",
"596 10 LINE",
"582 13 LINE SMOOTH",
"557 20 OFFCURVE",
"547 37 OFFCURVE",
"547 64 CURVE SMOOTH",
"547 112 OFFCURVE",
"546 161 OFFCURVE",
"546 210 CURVE SMOOTH",
"546 552 LINE",
"550 692 LINE",
"539 701 LINE",
"355 658 LINE",
"355 648 LINE",
"368 645 LINE SMOOTH",
"395 638 OFFCURVE",
"405 626 OFFCURVE",
"405 599 CURVE SMOOTH",
"405 210 LINE SMOOTH",
"405 161 OFFCURVE",
"404 112 OFFCURVE",
"404 64 CURVE SMOOTH",
"404 37 OFFCURVE",
"394 23 OFFCURVE",
"369 14 CURVE SMOOTH",
"356 10 LINE",
"356 0 LINE"
);
}
);
width = 620;
}
);
leftKerningGroup = LAT_f;
rightKerningGroup = LAT_l;
},
{
color = 8;
export = 0;
glyphname = f_f_i;
lastChange = "2019-06-06 17:29:56 +0000";
layers = (
{
anchors = (
{
name = caret_1;
position = "{302, 0}";
},
{
name = caret_2;
position = "{605, 0}";
}
);
layerId = "78A9F7DD-241B-40F2-ADB9-3345ED68833B";
paths = (
{
closed = 1;
nodes = (
"284 0 LINE",
"284 10 LINE",
"259 16 LINE SMOOTH",
"233 23 OFFCURVE",
"219 38 OFFCURVE",
"219 65 CURVE SMOOTH",
"219 113 OFFCURVE",
"219 162 OFFCURVE",
"219 210 CURVE SMOOTH",
"219 461 LINE",
"329 461 LINE",
"329 481 LINE",
"219 481 LINE",
"219 541 OFFCURVE",
"223 608 OFFCURVE",
"233 655 CURVE SMOOTH",
"239 676 OFFCURVE",
"256 677 OFFCURVE",
"271 658 CURVE SMOOTH",
"285 641 LINE SMOOTH",
"310 597 OFFCURVE",
"336 582 OFFCURVE",
"368 582 CURVE SMOOTH",
"407 582 OFFCURVE",
"429 604 OFFCURVE",
"429 640 CURVE SMOOTH",
"429 690 OFFCURVE",
"376 711 OFFCURVE",
"323 711 CURVE SMOOTH",
"268 711 OFFCURVE",
"209 694 OFFCURVE",
"159 646 CURVE SMOOTH",
"125 612 OFFCURVE",
"98 575 OFFCURVE",
"85 523 CURVE SMOOTH",
"79 495 OFFCURVE",
"70 479 OFFCURVE",
"43 476 CURVE SMOOTH",
"21 472 LINE",
"21 461 LINE",
"77 461 LINE",
"77 210 LINE SMOOTH",
"77 161 OFFCURVE",
"76 112 OFFCURVE",
"76 63 CURVE SMOOTH",
"76 36 OFFCURVE",
"60 20 OFFCURVE",
"35 13 CURVE SMOOTH",
"22 10 LINE",
"22 0 LINE"
);
},
{
closed = 1;
nodes = (
"584 0 LINE",
"584 10 LINE",
"565 15 LINE SMOOTH",
"539 22 OFFCURVE",
"526 38 OFFCURVE",
"525 66 CURVE",
"525 114 OFFCURVE",
"525 171 OFFCURVE",
"525 210 CURVE SMOOTH",
"525 461 LINE",
"680 461 LINE",
"682 418 OFFCURVE",
"682 337 OFFCURVE",
"682 277 CURVE SMOOTH",
"682 210 LINE SMOOTH",
"682 177 OFFCURVE",
"684 115 OFFCURVE",
"682 66 CURVE SMOOTH",
"682 39 OFFCURVE",
"670 23 OFFCURVE",
"644 14 CURVE SMOOTH",
"633 10 LINE",
"633 0 LINE",
"868 0 LINE",
"868 11 LINE",
"861 13 LINE SMOOTH",
"836 21 OFFCURVE",
"823 38 OFFCURVE",
"823 65 CURVE SMOOTH",
"823 113 OFFCURVE",
"823 167 OFFCURVE",
"823 205 CURVE",
"823 346 LINE",
"826 485 LINE",
"813 496 LINE",
"798 491 LINE SMOOTH",
"777 484 OFFCURVE",
"760 481 OFFCURVE",
"738 481 CURVE SMOOTH",
"525 481 LINE",
"527 589 OFFCURVE",
"555 654 OFFCURVE",
"605 680 CURVE SMOOTH",
"621 688 OFFCURVE",
"635 681 OFFCURVE",
"644 664 CURVE SMOOTH",
"667 620 LINE SMOOTH",
"685 587 OFFCURVE",
"706 560 OFFCURVE",
"746 560 CURVE SMOOTH",
"784 560 OFFCURVE",
"807 582 OFFCURVE",
"807 618 CURVE SMOOTH",
"807 671 OFFCURVE",
"748 711 OFFCURVE",
"667 711 CURVE SMOOTH",
"529 711 OFFCURVE",
"428 650 OFFCURVE",
"393 524 CURVE SMOOTH",
"387 500 OFFCURVE",
"371 481 OFFCURVE",
"344 481 CURVE SMOOTH",
"327 481 LINE",
"327 461 LINE",
"383 461 LINE",
"383 210 LINE SMOOTH",
"383 170 OFFCURVE",
"384 113 OFFCURVE",
"383 65 CURVE SMOOTH",
"382 37 OFFCURVE",
"368 20 OFFCURVE",
"342 13 CURVE SMOOTH",
"327 10 LINE",
"327 0 LINE"
);
}
);
width = 888;
}
);
leftKerningGroup = LAT_f;
leftMetricsKey = f;
rightKerningGroup = LAT_i;
rightMetricsKey = f_i;
},
{
color = 8;
export = 0;
glyphname = f_f_l;
lastChange = "2019-06-06 17:29:56 +0000";
layers = (
{
anchors = (
{
name = caret_1;
position = "{311, 0}";
},
{
name = caret_2;
position = "{622, 0}";
}
);
layerId = "78A9F7DD-241B-40F2-ADB9-3345ED68833B";
paths = (
{
closed = 1;
nodes = (
"598 0 LINE",
"598 10 LINE",
"573 16 LINE SMOOTH",
"547 23 OFFCURVE",
"533 38 OFFCURVE",
"533 65 CURVE SMOOTH",
"532 113 OFFCURVE",
"532 162 OFFCURVE",
"532 210 CURVE SMOOTH",
"532 461 LINE",
"644 461 LINE",
"644 481 LINE",
"532 481 LINE",
"532 541 OFFCURVE",
"538 608 OFFCURVE",
"547 655 CURVE SMOOTH",
"553 676 OFFCURVE",
"570 677 OFFCURVE",
"584 658 CURVE SMOOTH",
"599 641 LINE SMOOTH",
"623 597 OFFCURVE",
"650 582 OFFCURVE",
"682 582 CURVE SMOOTH",
"721 582 OFFCURVE",
"743 604 OFFCURVE",
"743 640 CURVE SMOOTH",
"743 690 OFFCURVE",
"690 711 OFFCURVE",
"637 711 CURVE SMOOTH",
"582 711 OFFCURVE",
"523 694 OFFCURVE",
"473 646 CURVE SMOOTH",
"439 612 OFFCURVE",
"413 575 OFFCURVE",
"399 523 CURVE SMOOTH",
"392 495 OFFCURVE",
"382 481 OFFCURVE",
"355 481 CURVE SMOOTH",
"335 481 LINE",
"335 461 LINE",
"390 461 LINE",
"390 210 LINE SMOOTH",
"390 161 OFFCURVE",
"390 112 OFFCURVE",
"390 63 CURVE SMOOTH",
"390 36 OFFCURVE",
"374 20 OFFCURVE",
"349 13 CURVE SMOOTH",
"335 10 LINE",
"335 0 LINE"
);
},
{
closed = 1;
nodes = (
"284 0 LINE",
"284 10 LINE",
"259 16 LINE SMOOTH",
"233 23 OFFCURVE",
"219 38 OFFCURVE",
"219 65 CURVE SMOOTH",
"219 113 OFFCURVE",
"219 162 OFFCURVE",
"219 210 CURVE SMOOTH",
"219 461 LINE",
"336 461 LINE",
"336 481 LINE",
"219 481 LINE",
"219 541 OFFCURVE",
"223 608 OFFCURVE",
"233 655 CURVE SMOOTH",
"239 676 OFFCURVE",
"256 677 OFFCURVE",
"271 658 CURVE SMOOTH",
"285 641 LINE SMOOTH",
"310 597 OFFCURVE",
"336 582 OFFCURVE",
"368 582 CURVE SMOOTH",
"407 582 OFFCURVE",
"429 604 OFFCURVE",
"429 640 CURVE SMOOTH",
"429 690 OFFCURVE",
"376 711 OFFCURVE",
"323 711 CURVE SMOOTH",
"268 711 OFFCURVE",
"209 694 OFFCURVE",
"159 646 CURVE SMOOTH",
"125 612 OFFCURVE",
"98 575 OFFCURVE",
"85 523 CURVE SMOOTH",
"79 495 OFFCURVE",
"70 479 OFFCURVE",
"43 476 CURVE SMOOTH",
"21 472 LINE",
"21 461 LINE",
"77 461 LINE",
"77 210 LINE SMOOTH",
"77 161 OFFCURVE",
"76 112 OFFCURVE",
"76 63 CURVE SMOOTH",
"76 36 OFFCURVE",
"60 20 OFFCURVE",
"35 13 CURVE SMOOTH",
"22 10 LINE",
"22 0 LINE"
);
},
{
closed = 1;
nodes = (
"909 0 LINE",
"909 10 LINE",
"896 13 LINE SMOOTH",
"870 20 OFFCURVE",
"861 37 OFFCURVE",
"861 64 CURVE SMOOTH",
"860 112 OFFCURVE",
"860 161 OFFCURVE",
"860 210 CURVE SMOOTH",
"860 552 LINE",
"864 692 LINE",
"852 701 LINE",
"669 658 LINE",
"669 648 LINE",
"682 645 LINE SMOOTH",
"708 638 OFFCURVE",
"718 626 OFFCURVE",
"718 599 CURVE SMOOTH",
"718 210 LINE SMOOTH",
"718 161 OFFCURVE",
"718 112 OFFCURVE",
"718 64 CURVE SMOOTH",
"718 37 OFFCURVE",
"707 23 OFFCURVE",
"682 14 CURVE SMOOTH",
"670 10 LINE",
"670 0 LINE"
);
}
);
width = 933;
}
);
leftKerningGroup = LAT_f;
leftMetricsKey = f;
rightKerningGroup = LAT_l;
rightMetricsKey = f_l;
},
{
color = 0;
export = 0;
glyphname = f_t;
lastChange = "2019-06-06 17:29:56 +0000";
layers = (
{
components = (
{
alignment = -1;
name = f;
}
);
layerId = "78A9F7DD-241B-40F2-ADB9-3345ED68833B";
paths = (
{
closed = 1;
nodes = (
"401 25 OFFCURVE",
"452 -15 OFFCURVE",
"538 -15 CURVE SMOOTH",
"606 -15 OFFCURVE",
"651 12 OFFCURVE",
"677 59 CURVE",
"653 84 LINE",
"632 68 OFFCURVE",
"615 60 OFFCURVE",
"596 60 CURVE SMOOTH",
"565 60 OFFCURVE",
"544 81 OFFCURVE",
"544 130 CURVE SMOOTH",
"544 442 LINE",
"547 621 LINE",
"467 621 LINE",
"410 449 LINE",
"453 481 LINE",
"320 481 LINE",
"320 416 LINE",
"402 416 LINE",
"402 215 LINE SMOOTH",
"402 176 OFFCURVE",
"401 151 OFFCURVE",
"401 119 CURVE SMOOTH"
);
},
{
closed = 1;
nodes = (
"656 416 LINE",
"656 481 LINE",
"473 481 LINE",
"473 416 LINE"
);
}
);
width = 673;
}
);
leftKerningGroup = LAT_f;
rightKerningGroup = LAT_t;
},
{
color = 0;
export = 0;
glyphname = A.sc;
lastChange = "2019-06-06 17:29:56 +0000";
layers = (
{
anchors = (
{
name = aboveUC;
position = "{302, 565}";
},
{
name = belowLC;
position = "{276, -18}";
},
{
name = ogonek;
position = "{509, 0}";
}
);
layerId = "78A9F7DD-241B-40F2-ADB9-3345ED68833B";
paths = (
{
closed = 1;
nodes = (
"209 0 LINE",
"209 48 LINE",
"121 61 LINE",
"104 61 LINE",
"8 48 LINE",
"8 0 LINE"
);
},
{
closed = 1;
nodes = (
"432 157 LINE",
"410 210 LINE",
"172 210 LINE",
"155 157 LINE"
);
},
{
closed = 1;
nodes = (
"596 0 LINE",
"596 46 LINE",
"481 60 LINE",
"428 60 LINE",
"326 46 LINE",
"326 0 LINE"
);
},
{
closed = 1;
nodes = (
"116 0 LINE",
"270 416 LINE",
"418 0 LINE",
"560 0 LINE",
"357 544 LINE",
"270 544 LINE",
"62 0 LINE"
);
}
);
width = 615;
}
);
leftKerningGroup = LAT_A.sc;
rightKerningGroup = LAT_A.sc;
},
{
color = 0;
export = 0;
glyphname = AE.sc;
lastChange = "2019-06-06 17:29:56 +0000";
layers = (
{
anchors = (
{
name = aboveUC;
position = "{524, 564}";
}
);
layerId = "78A9F7DD-241B-40F2-ADB9-3345ED68833B";
paths = (
{
closed = 1;
nodes = (
"209 0 LINE",
"209 48 LINE",
"126 61 LINE",
"109 61 LINE",
"10 48 LINE",
"10 0 LINE"
);
},
{
closed = 1;
nodes = (
"108 0 LINE",
"402 542 LINE",
"339 542 LINE",
"40 0 LINE"
);
},
{
closed = 1;
nodes = (
"449 198 LINE",
"449 251 LINE",
"205 251 LINE",
"176 198 LINE"
);
},
{
closed = 1;
nodes = (
"347 481 LINE",
"449 481 LINE",
"449 542 LINE",
"225 542 LINE",
"225 494 LINE"
);
},
{
closed = 1;
nodes = (
"449 0 LINE",
"449 61 LINE",
"436 61 LINE",
"310 48 LINE",
"310 0 LINE"
);
},
{
closed = 1;
nodes = (
"521 0 LINE",
"518 85 OFFCURVE",
"518 170 OFFCURVE",
"518 258 CURVE SMOOTH",
"518 289 LINE SMOOTH",
"518 374 OFFCURVE",
"518 459 OFFCURVE",
"521 542 CURVE",
"379 542 LINE",
"379 226 LINE SMOOTH",
"379 146 OFFCURVE",
"379 71 OFFCURVE",
"376 0 CURVE"
);
},
{
closed = 1;
nodes = (
"783 0 LINE",
"792 143 LINE",
"714 143 LINE",
"692 0 LINE",
"752 51 LINE",
"449 51 LINE",
"449 0 LINE"
);
},
{
closed = 1;
nodes = (
"734 490 LINE",
"673 542 LINE",
"696 398 LINE",
"773 398 LINE",
"765 542 LINE",
"449 542 LINE",
"449 490 LINE"
);
},
{
closed = 1;
nodes = (
"649 253 LINE",
"649 307 LINE",
"450 307 LINE",
"450 253 LINE"
);
},
{
closed = 1;
nodes = (
"686 189 LINE",
"686 371 LINE",
"633 371 LINE",
"619 290 LINE",
"619 275 LINE",
"633 189 LINE"
);
}
);
width = 824;
}
);
rightKerningGroup = LAT_E.sc;
},
{
color = 0;
export = 0;
glyphname = B.sc;
lastChange = "2019-06-06 17:29:56 +0000";
layers = (
{
anchors = (
{
name = aboveUC;
position = "{295, 565}";
},
{
name = belowLC;
position = "{322, -18}";
}
);
layerId = "78A9F7DD-241B-40F2-ADB9-3345ED68833B";
paths = (
{
closed = 1;
nodes = (
"118 169 OFFCURVE",
"118 84 OFFCURVE",
"116 0 CURVE",
"259 0 LINE",
"256 85 OFFCURVE",
"256 170 OFFCURVE",
"256 259 CURVE SMOOTH",
"256 284 LINE SMOOTH",
"256 370 OFFCURVE",
"256 458 OFFCURVE",
"259 542 CURVE",
"116 542 LINE",
"118 456 OFFCURVE",
"118 369 OFFCURVE",
"118 283 CURVE SMOOTH",
"118 256 LINE SMOOTH"
);
},
{
closed = 1;
nodes = (
"188 481 LINE",
"188 542 LINE",
"46 542 LINE",
"46 494 LINE",
"175 481 LINE"
);
},
{
closed = 1;
nodes = (
"46 48 LINE",
"46 0 LINE",
"188 0 LINE",
"188 61 LINE",
"175 61 LINE"
);
},
{
closed = 1;
nodes = (
"289 257 LINE SMOOTH",
"385 257 OFFCURVE",
"430 226 OFFCURVE",
"430 153 CURVE SMOOTH",
"430 87 OFFCURVE",
"380 52 OFFCURVE",
"289 52 CURVE SMOOTH",
"188 52 LINE",
"188 0 LINE",
"302 0 LINE SMOOTH",
"516 0 OFFCURVE",
"573 83 OFFCURVE",
"573 152 CURVE SMOOTH",
"573 228 OFFCURVE",
"513 281 OFFCURVE",
"362 291 CURVE",
"362 283 LINE",
"499 299 OFFCURVE",
"540 350 OFFCURVE",
"540 412 CURVE SMOOTH",
"540 487 OFFCURVE",
"478 542 OFFCURVE",
"334 542 CURVE SMOOTH",
"188 542 LINE",
"188 490 LINE",
"295 490 LINE SMOOTH",
"368 490 OFFCURVE",
"405 466 OFFCURVE",
"405 402 CURVE SMOOTH",
"405 335 OFFCURVE",
"368 307 OFFCURVE",
"285 307 CURVE SMOOTH",
"188 307 LINE",
"188 257 LINE"
);
}
);
width = 611;
}
);
leftKerningGroup = LAT_E.sc;
},
{
color = 0;
export = 0;
glyphname = C.sc;
lastChange = "2019-06-06 17:29:56 +0000";
layers = (
{
anchors = (
{
name = aboveUC;
position = "{351, 565}";
},
{
name = baseLC;
position = "{356, 0}";
},
{
name = belowLC;
position = "{355, -18}";
}
);
layerId = "78A9F7DD-241B-40F2-ADB9-3345ED68833B";
paths = (
{
closed = 1;
nodes = (
"278 38 OFFCURVE",
"197 109 OFFCURVE",
"197 271 CURVE SMOOTH",
"197 434 OFFCURVE",
"285 505 OFFCURVE",
"382 505 CURVE SMOOTH",
"422 505 OFFCURVE",
"462 490 OFFCURVE",
"508 448 CURVE",
"508 503 LINE",
"449 514 LINE",
"474 393 LINE",
"545 393 LINE",
"540 517 LINE",
"483 546 OFFCURVE",
"424 557 OFFCURVE",
"362 557 CURVE SMOOTH",
"192 557 OFFCURVE",
"48 457 OFFCURVE",
"48 271 CURVE SMOOTH",
"48 86 OFFCURVE",
"183 -15 OFFCURVE",
"358 -15 CURVE SMOOTH",
"432 -15 OFFCURVE",
"497 1 OFFCURVE",
"547 26 CURVE",
"552 149 LINE",
"481 149 LINE",
"457 28 LINE",
"516 39 LINE",
"516 89 LINE",
"472 55 OFFCURVE",
"422 38 OFFCURVE",
"376 38 CURVE SMOOTH"
);
}
);
width = 588;
}
);
leftKerningGroup = LAT_O.sc;
rightKerningGroup = LAT_C.sc;
},
{
color = 0;
export = 0;
glyphname = D.sc;
lastChange = "2019-06-06 17:29:56 +0000";
layers = (
{
anchors = (
{
name = aboveUC;
position = "{307, 565}";
},
{
name = belowLC;
position = "{308, -18}";
}
);
layerId = "78A9F7DD-241B-40F2-ADB9-3345ED68833B";
paths = (
{
closed = 1;
nodes = (
"118 168 OFFCURVE",
"118 83 OFFCURVE",
"116 0 CURVE",
"261 0 LINE",
"258 85 OFFCURVE",
"258 170 OFFCURVE",
"258 258 CURVE SMOOTH",
"258 288 LINE SMOOTH",
"258 374 OFFCURVE",
"258 459 OFFCURVE",
"261 542 CURVE",
"116 542 LINE",
"118 457 OFFCURVE",
"118 372 OFFCURVE",
"118 288 CURVE SMOOTH",
"118 257 LINE SMOOTH"
);
},
{
closed = 1;
nodes = (
"188 481 LINE",
"188 542 LINE",
"46 542 LINE",
"46 494 LINE",
"175 481 LINE"
);
},
{
closed = 1;
nodes = (
"46 48 LINE",
"46 0 LINE",
"188 0 LINE",
"188 61 LINE",
"175 61 LINE"
);
},
{
closed = 1;
nodes = (
"299 0 LINE SMOOTH",
"488 0 OFFCURVE",
"619 97 OFFCURVE",
"619 272 CURVE SMOOTH",
"619 442 OFFCURVE",
"502 542 OFFCURVE",
"316 542 CURVE SMOOTH",
"188 542 LINE",
"188 490 LINE",
"301 490 LINE SMOOTH",
"406 490 OFFCURVE",
"471 414 OFFCURVE",
"471 271 CURVE SMOOTH",
"471 130 OFFCURVE",
"406 52 OFFCURVE",
"298 52 CURVE SMOOTH",
"188 52 LINE",
"188 0 LINE"
);
}
);
width = 666;
}
);
leftKerningGroup = LAT_E.sc;
rightKerningGroup = LAT_D.sc;
},
{
color = 0;
export = 0;
glyphname = Eth.sc;
lastChange = "2019-06-06 17:29:56 +0000";
layers = (
{
components = (
{
alignment = -1;
name = D.sc;
}
);
layerId = "78A9F7DD-241B-40F2-ADB9-3345ED68833B";
paths = (
{
closed = 1;
nodes = (
"367 303 LINE",
"45 303 LINE",
"45 252 LINE",
"367 252 LINE"
);
}
);
width = 666;
}
);
leftKerningGroup = LAT_E.sc;
rightKerningGroup = LAT_D.sc;
},
{
color = 0;
export = 0;
glyphname = E.sc;
lastChange = "2019-06-06 17:29:56 +0000";
layers = (
{
anchors = (
{
name = aboveUC;
position = "{301, 565}";
},
{
name = belowLC;
position = "{318, -18}";
},
{
name = ogonek;
position = "{434, 0}";
}
);
layerId = "78A9F7DD-241B-40F2-ADB9-3345ED68833B";
paths = (
{
closed = 1;
nodes = (
"188 481 LINE",
"188 542 LINE",
"46 542 LINE",
"46 494 LINE",
"175 481 LINE"
);
},
{
closed = 1;
nodes = (
"46 48 LINE",
"46 0 LINE",
"188 0 LINE",
"188 61 LINE",
"175 61 LINE"
);
},
{
closed = 1;
nodes = (
"118 168 OFFCURVE",
"118 83 OFFCURVE",
"116 0 CURVE",
"261 0 LINE",
"258 85 OFFCURVE",
"258 170 OFFCURVE",
"258 258 CURVE SMOOTH",
"258 289 LINE SMOOTH",
"258 374 OFFCURVE",
"258 459 OFFCURVE",
"261 542 CURVE",
"116 542 LINE",
"118 457 OFFCURVE",
"118 372 OFFCURVE",
"118 287 CURVE SMOOTH",
"118 255 LINE SMOOTH"
);
},
{
closed = 1;
nodes = (
"372 189 LINE",
"425 189 LINE",
"425 371 LINE",
"372 371 LINE",
"358 290 LINE",
"358 275 LINE"
);
},
{
closed = 1;
nodes = (
"188 307 LINE",
"188 253 LINE",
"388 253 LINE",
"388 307 LINE"
);
},
{
closed = 1;
nodes = (
"513 398 LINE",
"504 542 LINE",
"188 542 LINE",
"188 490 LINE",
"421 490 LINE",
"435 398 LINE"
);
},
{
closed = 1;
nodes = (
"439 51 LINE",
"188 51 LINE",
"188 0 LINE",
"523 0 LINE",
"531 143 LINE",
"454 143 LINE"
);
}
);
width = 563;
}
);
leftKerningGroup = LAT_E.sc;
rightKerningGroup = LAT_E.sc;
},
{
color = 0;
export = 0;
glyphname = F.sc;
lastChange = "2019-06-06 17:29:56 +0000";
layers = (
{
anchors = (
{
name = aboveUC;
position = "{305, 565}";
},
{
name = belowLC;
position = "{194, -18}";
}
);
layerId = "78A9F7DD-241B-40F2-ADB9-3345ED68833B";
paths = (
{
closed = 1;
nodes = (
"46 48 LINE",
"46 0 LINE",
"339 0 LINE",
"339 48 LINE",
"211 61 LINE",
"175 61 LINE"
);
},
{
closed = 1;
nodes = (
"118 168 OFFCURVE",
"118 83 OFFCURVE",
"116 0 CURVE",
"261 0 LINE",
"258 85 OFFCURVE",
"258 170 OFFCURVE",
"258 258 CURVE SMOOTH",
"258 289 LINE SMOOTH",
"258 374 OFFCURVE",
"258 459 OFFCURVE",
"261 542 CURVE",
"116 542 LINE",
"118 457 OFFCURVE",
"118 372 OFFCURVE",
"118 287 CURVE SMOOTH",
"118 255 LINE SMOOTH"
);
},
{
closed = 1;
nodes = (
"188 481 LINE",
"188 542 LINE",
"46 542 LINE",
"46 494 LINE",
"175 481 LINE"
);
},
{
closed = 1;
nodes = (
"376 179 LINE",
"430 179 LINE",
"430 371 LINE",
"376 371 LINE",
"362 290 LINE",
"362 265 LINE"
);
},
{
closed = 1;
nodes = (
"188 307 LINE",
"188 253 LINE",
"392 253 LINE",
"392 307 LINE"
);
},
{
closed = 1;
nodes = (
"517 398 LINE",
"509 542 LINE",
"188 542 LINE",
"188 490 LINE",
"426 490 LINE",
"440 398 LINE"
);
}
);
width = 547;
}
);
leftKerningGroup = LAT_E.sc;
},
{
color = 0;
export = 0;
glyphname = G.sc;
lastChange = "2019-06-06 17:29:56 +0000";
layers = (
{
anchors = (
{
name = aboveUC;
position = "{353, 565}";
},
{
name = belowLC;
position = "{372, -18}";
}
);
layerId = "78A9F7DD-241B-40F2-ADB9-3345ED68833B";
paths = (
{
closed = 1;
nodes = (
"504 205 LINE",
"610 217 LINE",
"610 265 LINE",
"343 265 LINE",
"343 217 LINE",
"454 205 LINE"
);
},
{
closed = 1;
nodes = (
"560 132 OFFCURVE",
"561 198 OFFCURVE",
"563 265 CURVE",
"425 265 LINE",
"427 199 OFFCURVE",
"428 135 OFFCURVE",
"428 69 CURVE SMOOTH",
"428 10 LINE",
"496 70 LINE",
"452 48 OFFCURVE",
"425 38 OFFCURVE",
"384 38 CURVE SMOOTH",
"276 38 OFFCURVE",
"197 111 OFFCURVE",
"197 272 CURVE SMOOTH",
"197 431 OFFCURVE",
"282 505 OFFCURVE",
"382 505 CURVE SMOOTH",
"423 505 OFFCURVE",
"466 491 OFFCURVE",
"511 456 CURVE",
"511 507 LINE",
"450 517 LINE",
"475 395 LINE",
"548 395 LINE",
"543 520 LINE",
"490 546 OFFCURVE",
"427 557 OFFCURVE",
"366 557 CURVE SMOOTH",
"164 557 OFFCURVE",
"48 441 OFFCURVE",
"48 272 CURVE SMOOTH",
"48 97 OFFCURVE",
"173 -15 OFFCURVE",
"356 -15 CURVE SMOOTH",
"436 -15 OFFCURVE",
"498 2 OFFCURVE",
"560 33 CURVE",
"560 67 LINE SMOOTH"
);
}
);
width = 631;
}
);
leftKerningGroup = LAT_O.sc;
rightKerningGroup = LAT_G.sc;
},
{
color = 0;
export = 0;
glyphname = H.sc;
lastChange = "2019-06-06 17:29:56 +0000";
layers = (
{
anchors = (
{
name = aboveUC;
position = "{362, 565}";
},
{
name = belowLC;
position = "{362, -18}";
}
);
layerId = "78A9F7DD-241B-40F2-ADB9-3345ED68833B";
paths = (
{
closed = 1;
nodes = (
"550 481 LINE",
"677 494 LINE",
"677 542 LINE",
"399 542 LINE",
"399 494 LINE",
"526 481 LINE"
);
},
{
closed = 1;
nodes = (
"399 48 LINE",
"399 0 LINE",
"677 0 LINE",
"677 48 LINE",
"550 61 LINE",
"526 61 LINE"
);
},
{
closed = 1;
nodes = (
"467 168 OFFCURVE",
"467 83 OFFCURVE",
"465 0 CURVE",
"609 0 LINE",
"606 85 OFFCURVE",
"606 170 OFFCURVE",
"606 255 CURVE SMOOTH",
"606 287 LINE SMOOTH",
"606 374 OFFCURVE",
"606 459 OFFCURVE",
"609 542 CURVE",
"465 542 LINE",
"467 457 OFFCURVE",
"467 372 OFFCURVE",
"467 287 CURVE SMOOTH",
"467 260 LINE SMOOTH"
);
},
{
closed = 1;
nodes = (
"118 168 OFFCURVE",
"118 83 OFFCURVE",
"115 0 CURVE",
"259 0 LINE",
"257 85 OFFCURVE",
"257 170 OFFCURVE",
"257 260 CURVE SMOOTH",
"257 287 LINE SMOOTH",
"257 374 OFFCURVE",
"257 459 OFFCURVE",
"259 542 CURVE",
"115 542 LINE",
"118 457 OFFCURVE",
"118 372 OFFCURVE",
"118 287 CURVE SMOOTH",
"118 255 LINE SMOOTH"
);
},
{
closed = 1;
nodes = (
"196 481 LINE",
"325 494 LINE",
"325 542 LINE",
"46 542 LINE",
"46 494 LINE",
"171 481 LINE"
);
},
{
closed = 1;
nodes = (
"46 48 LINE",
"46 0 LINE",
"325 0 LINE",
"325 48 LINE",
"196 61 LINE",
"171 61 LINE"
);
},
{
closed = 1;
nodes = (
"537 304 LINE",
"187 304 LINE",
"187 252 LINE",
"537 252 LINE"
);
}
);
width = 724;
}
);
leftKerningGroup = LAT_E.sc;
rightKerningGroup = LAT_H.sc;
},
{
color = 0;
export = 0;
glyphname = Hbar.sc;
lastChange = "2019-06-06 17:29:56 +0000";
layers = (
{
layerId = "78A9F7DD-241B-40F2-ADB9-3345ED68833B";
paths = (
{
closed = 1;
nodes = (
"543 481 LINE",
"671 494 LINE",
"671 542 LINE",
"392 542 LINE",
"392 494 LINE",
"519 481 LINE"
);
},
{
closed = 1;
nodes = (
"392 48 LINE",
"392 0 LINE",
"671 0 LINE",
"671 48 LINE",
"543 61 LINE",
"519 61 LINE"
);
},
{
closed = 1;
nodes = (
"460 168 OFFCURVE",
"460 83 OFFCURVE",
"458 0 CURVE",
"602 0 LINE",
"599 85 OFFCURVE",
"599 170 OFFCURVE",
"599 255 CURVE SMOOTH",
"599 287 LINE SMOOTH",
"599 374 OFFCURVE",
"599 459 OFFCURVE",
"602 542 CURVE",
"458 542 LINE",
"460 457 OFFCURVE",
"460 372 OFFCURVE",
"460 287 CURVE SMOOTH",
"460 260 LINE SMOOTH"
);
},
{
closed = 1;
nodes = (
"113 168 OFFCURVE",
"113 83 OFFCURVE",
"110 0 CURVE",
"255 0 LINE",
"252 85 OFFCURVE",
"252 170 OFFCURVE",
"252 260 CURVE SMOOTH",
"252 287 LINE SMOOTH",
"252 374 OFFCURVE",
"252 459 OFFCURVE",
"255 542 CURVE",
"110 542 LINE",
"113 457 OFFCURVE",
"113 372 OFFCURVE",
"113 287 CURVE SMOOTH",
"113 255 LINE SMOOTH"
);
},
{
closed = 1;
nodes = (
"191 481 LINE",
"320 494 LINE",
"320 542 LINE",
"42 542 LINE",
"42 494 LINE",
"167 481 LINE"
);
},
{
closed = 1;
nodes = (
"42 48 LINE",
"42 0 LINE",
"320 0 LINE",
"320 48 LINE",
"191 61 LINE",
"167 61 LINE"
);
},
{
closed = 1;
nodes = (
"530 280 LINE",
"186 280 LINE",
"186 228 LINE",
"530 228 LINE"
);
},
{
closed = 1;
nodes = (
"681 360 LINE",
"681 413 LINE",
"31 413 LINE",
"31 360 LINE"
);
}
);
width = 712;
}
);
leftKerningGroup = LAT_E.sc;
rightKerningGroup = LAT_H.sc;
},
{
color = 0;
export = 0;
glyphname = I.sc;
lastChange = "2019-06-06 17:29:56 +0000";
layers = (
{
anchors = (
{
name = aboveUC;
position = "{188, 565}";
},
{
name = belowLC;
position = "{188, -18}";
},
{
name = ogonek;
position = "{230, 0}";
}
);
layerId = "78A9F7DD-241B-40F2-ADB9-3345ED68833B";
paths = (
{
closed = 1;
nodes = (
"46 48 LINE",
"46 0 LINE",
"330 0 LINE",
"330 48 LINE",
"200 61 LINE",
"175 61 LINE"
);
},
{
closed = 1;
nodes = (
"200 481 LINE",
"330 494 LINE",
"330 542 LINE",
"46 542 LINE",
"46 494 LINE",
"175 481 LINE"
);
},
{
closed = 1;
nodes = (
"118 168 OFFCURVE",
"118 83 OFFCURVE",
"116 0 CURVE",
"261 0 LINE",
"258 85 OFFCURVE",
"258 170 OFFCURVE",
"258 255 CURVE SMOOTH",
"258 287 LINE SMOOTH",
"258 374 OFFCURVE",
"258 459 OFFCURVE",
"261 542 CURVE",
"116 542 LINE",
"118 457 OFFCURVE",
"118 372 OFFCURVE",
"118 287 CURVE SMOOTH",
"118 255 LINE SMOOTH"
);
}
);
width = 377;
}
);
leftKerningGroup = LAT_E.sc;
rightKerningGroup = LAT_H.sc;
},
{
color = 0;
export = 0;
glyphname = J.sc;
lastChange = "2019-06-06 17:29:56 +0000";
layers = (
{
anchors = (
{
name = aboveUC;
position = "{192, 565}";
},
{
name = belowLC;
position = "{108, -138}";
}
);
layerId = "78A9F7DD-241B-40F2-ADB9-3345ED68833B";
paths = (
{
closed = 1;
nodes = (
"126 232 OFFCURVE",
"131 89 OFFCURVE",
"131 12 CURVE SMOOTH",
"131 -35 OFFCURVE",
"127 -72 OFFCURVE",
"107 -98 CURVE",
"109 -106 LINE",
"115 -107 LINE",
"123 -103 LINE",
"93 -73 LINE SMOOTH",
"65 -45 OFFCURVE",
"42 -31 OFFCURVE",
"12 -31 CURVE SMOOTH",
"-26 -31 OFFCURVE",
"-54 -52 OFFCURVE",
"-57 -89 CURVE",
"-39 -127 OFFCURVE",
"0 -142 OFFCURVE",
"46 -142 CURVE SMOOTH",
"125 -142 OFFCURVE",
"199 -107 OFFCURVE",
"230 -38 CURVE SMOOTH",
"255 16 OFFCURVE",
"264 85 OFFCURVE",
"264 197 CURVE SMOOTH",
"264 294 LINE SMOOTH",
"264 378 OFFCURVE",
"264 461 OFFCURVE",
"267 542 CURVE",
"122 542 LINE"
);
},
{
closed = 1;
nodes = (
"174 481 LINE",
"205 481 LINE",
"337 494 LINE",
"337 542 LINE",
"44 542 LINE",
"44 494 LINE"
);
}
);
width = 376;
}
);
leftKerningGroup = LAT_J.sc;
rightKerningGroup = LAT_J.sc;
},
{
color = 0;
export = 0;
glyphname = K.sc;
lastChange = "2019-06-06 17:29:56 +0000";
layers = (
{
anchors = (
{
name = aboveUC;
position = "{341, 565}";
},
{
name = belowLC;
position = "{348, -18}";
}
);
layerId = "78A9F7DD-241B-40F2-ADB9-3345ED68833B";
paths = (
{
closed = 1;
nodes = (
"118 168 OFFCURVE",
"118 83 OFFCURVE",
"116 0 CURVE",
"254 0 LINE",
"252 85 OFFCURVE",
"252 173 OFFCURVE",
"252 253 CURVE SMOOTH",
"252 287 LINE SMOOTH",
"252 374 OFFCURVE",
"252 459 OFFCURVE",
"254 542 CURVE",
"116 542 LINE",
"118 457 OFFCURVE",
"118 372 OFFCURVE",
"118 287 CURVE SMOOTH",
"118 255 LINE SMOOTH"
);
},
{
closed = 1;
nodes = (
"46 48 LINE",
"46 0 LINE",
"317 0 LINE",
"317 48 LINE",
"200 61 LINE",
"175 61 LINE"
);
},
{
closed = 1;
nodes = (
"200 481 LINE",
"325 494 LINE",
"325 542 LINE",
"46 542 LINE",
"46 494 LINE",
"175 481 LINE"
);
},
{
closed = 1;
nodes = (
"499 481 LINE",
"606 494 LINE",
"606 542 LINE",
"398 542 LINE",
"398 494 LINE",
"475 479 LINE"
);
},
{
closed = 1;
nodes = (
"450 0 LINE",
"601 0 LINE",
"383 375 LINE",
"298 279 LINE"
);
},
{
closed = 1;
nodes = (
"573 542 LINE",
"503 542 LINE",
"186 187 LINE",
"186 122 LINE"
);
},
{
closed = 1;
nodes = (
"627 0 LINE",
"627 48 LINE",
"511 61 LINE",
"492 61 LINE",
"374 48 LINE",
"374 0 LINE"
);
}
);
width = 639;
}
);
leftKerningGroup = LAT_E.sc;
rightKerningGroup = LAT_K.sc;
},
{
color = 0;
export = 0;
glyphname = L.sc;
lastChange = "2019-06-06 17:29:56 +0000";
layers = (
{
anchors = (
{
name = aboveUC;
position = "{195, 565}";
},
{
name = belowLC;
position = "{298, -18}";
}
);
layerId = "78A9F7DD-241B-40F2-ADB9-3345ED68833B";
paths = (
{
closed = 1;
nodes = (
"46 48 LINE",
"46 0 LINE",
"188 0 LINE",
"188 61 LINE",
"175 61 LINE"
);
},
{
closed = 1;
nodes = (
"205 481 LINE",
"335 494 LINE",
"335 542 LINE",
"46 542 LINE",
"46 494 LINE",
"175 481 LINE"
);
},
{
closed = 1;
nodes = (
"118 255 LINE SMOOTH",
"118 169 OFFCURVE",
"118 84 OFFCURVE",
"116 0 CURVE",
"261 0 LINE",
"258 84 OFFCURVE",
"258 170 OFFCURVE",
"258 238 CURVE SMOOTH",
"258 287 LINE SMOOTH",
"258 373 OFFCURVE",
"258 458 OFFCURVE",
"261 542 CURVE",
"116 542 LINE",
"118 458 OFFCURVE",
"118 373 OFFCURVE",
"118 287 CURVE SMOOTH"
);
},
{
closed = 1;
nodes = (
"424 52 LINE",
"188 52 LINE",
"188 0 LINE",
"510 0 LINE",
"522 161 LINE",
"446 161 LINE"
);
}
);
width = 554;
}
);
leftKerningGroup = LAT_E.sc;
rightKerningGroup = LAT_L.sc;
},
{
color = 0;
export = 0;
glyphname = Lcaron.sc;
lastChange = "2019-06-06 17:29:56 +0000";
layers = (
{
components = (
{
alignment = -1;
name = L.sc;
}
);
layerId = "78A9F7DD-241B-40F2-ADB9-3345ED68833B";
paths = (
{
closed = 1;
nodes = (
"497 625 OFFCURVE",
"481 620 OFFCURVE",
"461 610 CURVE",
"457 406 LINE",
"502 406 LINE",
"529 466 LINE SMOOTH",
"546 508 OFFCURVE",
"560 552 OFFCURVE",
"560 580 CURVE SMOOTH",
"560 607 OFFCURVE",
"550 625 OFFCURVE",
"515 625 CURVE SMOOTH"
);
}
);
width = 554;
}
);
leftKerningGroup = LAT_E.sc;
rightKerningGroup = LAT_L.sc;
},
{
color = 0;
export = 0;
glyphname = Lslash.sc;
lastChange = "2019-06-06 17:29:56 +0000";
layers = (
{
components = (
{
alignment = -1;
name = L.sc;
}
);
layerId = "78A9F7DD-241B-40F2-ADB9-3345ED68833B";
paths = (
{
closed = 1;
nodes = (
"208 301 LINE",
"208 229 LINE",
"380 315 LINE",
"380 385 LINE"
);
},
{
closed = 1;
nodes = (
"50 228 LINE",
"50 157 LINE",
"188 225 LINE",
"188 296 LINE"
);
}
);
width = 554;
}
);
leftKerningGroup = LAT_E.sc;
rightKerningGroup = LAT_L.sc;
},
{
color = 0;
export = 0;
glyphname = M.sc;
lastChange = "2019-06-06 17:29:56 +0000";
layers = (
{
anchors = (
{
name = aboveUC;
position = "{410, 560}";
},
{
name = belowLC;
position = "{379, -18}";
}
);
layerId = "78A9F7DD-241B-40F2-ADB9-3345ED68833B";
paths = (
{
closed = 1;
nodes = (
"248 0 LINE",
"248 48 LINE",
"161 61 LINE",
"136 61 LINE",
"32 48 LINE",
"32 0 LINE"
);
},
{
closed = 1;
nodes = (
"156 481 LINE",
"170 481 LINE",
"168 542 LINE",
"38 542 LINE",
"38 494 LINE"
);
},
{
closed = 1;
nodes = (
"177 0 LINE",
"177 269 LINE",
"170 542 LINE",
"116 542 LINE",
"117 0 LINE"
);
},
{
closed = 1;
nodes = (
"417 0 LINE",
"628 542 LINE",
"564 542 LINE",
"403 123 LINE",
"435 123 LINE",
"262 542 LINE",
"121 542 LINE",
"346 0 LINE"
);
},
{
closed = 1;
nodes = (
"787 0 LINE",
"787 48 LINE",
"659 61 LINE",
"619 61 LINE",
"509 48 LINE",
"509 0 LINE"
);
},
{
closed = 1;
nodes = (
"718 0 LINE",
"715 84 OFFCURVE",
"715 169 OFFCURVE",
"715 255 CURVE SMOOTH",
"715 287 LINE SMOOTH",
"715 373 OFFCURVE",
"715 458 OFFCURVE",
"718 542 CURVE",
"579 542 LINE",
"577 243 LINE SMOOTH",
"577 170 OFFCURVE",
"577 84 OFFCURVE",
"574 0 CURVE"
);
},
{
closed = 1;
nodes = (
"659 481 LINE",
"784 494 LINE",
"784 542 LINE",
"645 542 LINE",
"645 481 LINE"
);
}
);
width = 833;
}
);
leftKerningGroup = LAT_M.sc;
rightKerningGroup = LAT_H.sc;
},
{
color = 0;
export = 0;
glyphname = N.sc;
lastChange = "2019-06-06 17:29:56 +0000";
layers = (
{
anchors = (
{
name = aboveUC;
position = "{338, 565}";
},
{
name = belowLC;
position = "{355, -18}";
}
);
layerId = "78A9F7DD-241B-40F2-ADB9-3345ED68833B";
paths = (
{
closed = 1;
nodes = (
"280 0 LINE",
"280 48 LINE",
"166 61 LINE",
"142 61 LINE",
"44 48 LINE",
"44 0 LINE"
);
},
{
closed = 1;
nodes = (
"566 -3 LINE",
"566 132 LINE",
"234 542 LINE",
"45 542 LINE",
"45 494 LINE",
"144 485 LINE",
"91 511 LINE",
"500 -3 LINE"
);
},
{
closed = 1;
nodes = (
"179 0 LINE",
"181 519 LINE",
"120 519 LINE",
"120 0 LINE"
);
},
{
closed = 1;
nodes = (
"525 481 LINE",
"549 481 LINE",
"642 494 LINE",
"642 542 LINE",
"405 542 LINE",
"405 494 LINE"
);
},
{
closed = 1;
nodes = (
"566 -3 LINE",
"566 542 LINE",
"506 542 LINE",
"504 55 LINE"
);
}
);
width = 684;
}
);
leftKerningGroup = LAT_M.sc;
rightKerningGroup = LAT_N.sc;
},
{
color = 0;
export = 0;
glyphname = O.sc;
lastChange = "2019-06-06 17:29:56 +0000";
layers = (
{
anchors = (
{
name = aboveUC;
position = "{332, 565}";
},
{
name = belowLC;
position = "{331, -18}";
},
{
name = hornLC;
position = "{463, 543}";
},
{
name = ogonek;
position = "{413, 0}";
}
);
layerId = "78A9F7DD-241B-40F2-ADB9-3345ED68833B";
paths = (
{
closed = 1;
nodes = (
"198 398 OFFCURVE",
"235 504 OFFCURVE",
"332 504 CURVE SMOOTH",
"430 504 OFFCURVE",
"466 398 OFFCURVE",
"466 271 CURVE SMOOTH",
"466 144 OFFCURVE",
"430 38 OFFCURVE",
"332 38 CURVE SMOOTH",
"235 38 OFFCURVE",
"198 144 OFFCURVE",
"198 271 CURVE SMOOTH"
);
},
{
closed = 1;
nodes = (
"188 557 OFFCURVE",
"48 460 OFFCURVE",
"48 271 CURVE SMOOTH",
"48 79 OFFCURVE",
"187 -15 OFFCURVE",
"332 -15 CURVE SMOOTH",
"478 -15 OFFCURVE",
"616 83 OFFCURVE",
"616 271 CURVE SMOOTH",
"616 464 OFFCURVE",
"477 557 OFFCURVE",
"332 557 CURVE SMOOTH"
);
}
);
width = 664;
}
);
leftKerningGroup = LAT_O.sc;
rightKerningGroup = LAT_O.sc;
},
{
color = 0;
export = 0;
glyphname = Oslash.sc;
lastChange = "2019-06-06 17:29:56 +0000";
layers = (
{
anchors = (
{
name = aboveUC;
position = "{323, 565}";
}
);
components = (
{
alignment = -1;
name = O.sc;
}
);
layerId = "78A9F7DD-241B-40F2-ADB9-3345ED68833B";
paths = (
{
closed = 1;
nodes = (
"552 567 LINE",
"60 15 LINE",
"113 -26 LINE",
"605 527 LINE"
);
}
);
width = 664;
}
);
leftKerningGroup = LAT_O.sc;
rightKerningGroup = LAT_O.sc;
},
{
color = 0;
export = 0;
glyphname = OE.sc;
lastChange = "2019-06-06 17:29:56 +0000";
layers = (
{
anchors = (
{
name = aboveUC;
position = "{479, 565}";
}
);
layerId = "78A9F7DD-241B-40F2-ADB9-3345ED68833B";
paths = (
{
closed = 1;
nodes = (
"197 404 OFFCURVE",
"254 504 OFFCURVE",
"375 504 CURVE SMOOTH",
"416 504 OFFCURVE",
"449 498 OFFCURVE",
"488 478 CURVE",
"488 542 LINE",
"447 552 OFFCURVE",
"404 557 OFFCURVE",
"365 557 CURVE SMOOTH",
"193 557 OFFCURVE",
"48 464 OFFCURVE",
"48 271 CURVE SMOOTH",
"48 78 OFFCURVE",
"193 -15 OFFCURVE",
"365 -15 CURVE SMOOTH",
"406 -15 OFFCURVE",
"449 -9 OFFCURVE",
"488 0 CURVE",
"488 64 LINE",
"449 44 OFFCURVE",
"417 38 OFFCURVE",
"374 38 CURVE SMOOTH",
"254 38 OFFCURVE",
"197 138 OFFCURVE",
"197 271 CURVE SMOOTH"
);
},
{
closed = 1;
nodes = (
"422 168 OFFCURVE",
"422 83 OFFCURVE",
"419 0 CURVE",
"564 0 LINE",
"561 85 OFFCURVE",
"561 170 OFFCURVE",
"561 258 CURVE SMOOTH",
"561 289 LINE SMOOTH",
"561 374 OFFCURVE",
"561 459 OFFCURVE",
"564 542 CURVE",
"419 542 LINE",
"422 457 OFFCURVE",
"422 372 OFFCURVE",
"422 287 CURVE SMOOTH",
"422 255 LINE SMOOTH"
);
},
{
closed = 1;
nodes = (
"675 189 LINE",
"728 189 LINE",
"728 371 LINE",
"675 371 LINE",
"661 290 LINE",
"661 275 LINE"
);
},
{
closed = 1;
nodes = (
"494 307 LINE",
"494 253 LINE",
"691 253 LINE",
"691 307 LINE"
);
},
{
closed = 1;
nodes = (
"816 398 LINE",
"808 542 LINE",
"494 542 LINE",
"494 490 LINE",
"724 490 LINE",
"739 398 LINE"
);
},
{
closed = 1;
nodes = (
"742 51 LINE",
"494 51 LINE",
"494 0 LINE",
"826 0 LINE",
"834 143 LINE",
"757 143 LINE"
);
}
);
width = 867;
}
);
leftKerningGroup = LAT_O.sc;
rightKerningGroup = LAT_E.sc;
},
{
color = 0;
export = 0;
glyphname = P.sc;
lastChange = "2019-06-06 17:29:56 +0000";
layers = (
{
anchors = (
{
name = aboveUC;
position = "{283, 565}";
},
{
name = belowLC;
position = "{192, -18}";
}
);
layerId = "78A9F7DD-241B-40F2-ADB9-3345ED68833B";
paths = (
{
closed = 1;
nodes = (
"188 481 LINE",
"188 542 LINE",
"46 542 LINE",
"46 494 LINE",
"175 481 LINE"
);
},
{
closed = 1;
nodes = (
"46 48 LINE",
"46 0 LINE",
"339 0 LINE",
"339 48 LINE",
"211 61 LINE",
"175 61 LINE"
);
},
{
closed = 1;
nodes = (
"118 168 OFFCURVE",
"118 83 OFFCURVE",
"116 0 CURVE",
"261 0 LINE",
"258 85 OFFCURVE",
"258 166 OFFCURVE",
"258 238 CURVE SMOOTH",
"258 287 LINE SMOOTH",
"258 374 OFFCURVE",
"258 459 OFFCURVE",
"261 542 CURVE",
"116 542 LINE",
"118 457 OFFCURVE",
"118 372 OFFCURVE",
"118 287 CURVE SMOOTH",
"118 255 LINE SMOOTH"
);
},
{
closed = 1;
nodes = (
"547 475 OFFCURVE",
"472 542 OFFCURVE",
"291 542 CURVE SMOOTH",
"188 542 LINE",
"188 490 LINE",
"286 490 LINE SMOOTH",
"370 490 OFFCURVE",
"414 452 OFFCURVE",
"414 379 CURVE SMOOTH",
"414 306 OFFCURVE",
"375 256 OFFCURVE",
"293 256 CURVE SMOOTH",
"188 256 LINE",
"188 206 LINE",
"287 206 LINE SMOOTH",
"482 206 OFFCURVE",
"547 285 OFFCURVE",
"547 378 CURVE SMOOTH"
);
}
);
width = 569;
}
);
leftKerningGroup = LAT_E.sc;
},
{
color = 0;
export = 0;
glyphname = Thorn.sc;
lastChange = "2019-06-06 17:29:56 +0000";
layers = (
{
layerId = "78A9F7DD-241B-40F2-ADB9-3345ED68833B";
paths = (
{
closed = 1;
nodes = (
"203 481 LINE",
"334 494 LINE",
"334 542 LINE",
"46 542 LINE",
"46 494 LINE",
"171 481 LINE"
);
},
{
closed = 1;
nodes = (
"46 48 LINE",
"46 0 LINE",
"334 0 LINE",
"334 48 LINE",
"211 61 LINE",
"175 61 LINE"
);
},
{
closed = 1;
nodes = (
"118 168 OFFCURVE",
"118 83 OFFCURVE",
"116 0 CURVE",
"258 0 LINE",
"256 84 OFFCURVE",
"255 172 OFFCURVE",
"255 255 CURVE SMOOTH",
"255 288 LINE SMOOTH",
"255 374 OFFCURVE",
"256 459 OFFCURVE",
"258 542 CURVE",
"116 542 LINE",
"118 457 OFFCURVE",
"118 372 OFFCURVE",
"118 287 CURVE SMOOTH",
"118 255 LINE SMOOTH"
);
},
{
closed = 1;
nodes = (
"557 380 OFFCURVE",
"483 439 OFFCURVE",
"301 439 CURVE SMOOTH",
"190 439 LINE",
"190 387 LINE",
"293 387 LINE SMOOTH",
"383 387 OFFCURVE",
"424 349 OFFCURVE",
"424 280 CURVE SMOOTH",
"424 214 OFFCURVE",
"376 168 OFFCURVE",
"293 168 CURVE SMOOTH",
"190 168 LINE",
"190 116 LINE",
"285 116 LINE SMOOTH",
"500 116 OFFCURVE",
"557 191 OFFCURVE",
"557 281 CURVE SMOOTH"
);
}
);
width = 581;
}
);
leftKerningGroup = LAT_E.sc;
},
{
color = 0;
export = 0;
glyphname = Q.sc;
lastChange = "2019-06-06 17:29:56 +0000";
layers = (
{
anchors = (
{
name = aboveUC;
position = "{323, 565}";
}
);
components = (
{
alignment = -1;
name = O.sc;
}
);
layerId = "78A9F7DD-241B-40F2-ADB9-3345ED68833B";
paths = (
{
closed = 1;
nodes = (
"506 -174 OFFCURVE",
"551 -167 OFFCURVE",
"582 -148 CURVE",
"562 -98 LINE",
"538 -106 OFFCURVE",
"512 -107 OFFCURVE",
"495 -107 CURVE SMOOTH",
"425 -107 OFFCURVE",
"383 -58 OFFCURVE",
"394 25 CURVE",
"260 33 LINE",
"260 6 LINE SMOOTH",
"260 -98 OFFCURVE",
"333 -174 OFFCURVE",
"459 -174 CURVE SMOOTH"
);
}
);
width = 664;
}
);
leftKerningGroup = LAT_O.sc;
rightKerningGroup = LAT_O.sc;
},
{
color = 0;
export = 0;
glyphname = R.sc;
lastChange = "2019-06-06 17:29:56 +0000";
layers = (
{
anchors = (
{
name = aboveUC;
position = "{303, 565}";
},
{
name = belowLC;
position = "{351, -18}";
}
);
layerId = "78A9F7DD-241B-40F2-ADB9-3345ED68833B";
paths = (
{
closed = 1;
nodes = (
"46 48 LINE",
"46 0 LINE",
"330 0 LINE",
"330 48 LINE",
"201 61 LINE",
"175 61 LINE"
);
},
{
closed = 1;
nodes = (
"118 168 OFFCURVE",
"118 83 OFFCURVE",
"116 0 CURVE",
"259 0 LINE",
"256 85 OFFCURVE",
"256 170 OFFCURVE",
"256 260 CURVE SMOOTH",
"256 287 LINE SMOOTH",
"256 375 OFFCURVE",
"256 458 OFFCURVE",
"259 542 CURVE",
"116 542 LINE",
"118 457 OFFCURVE",
"118 372 OFFCURVE",
"118 287 CURVE SMOOTH",
"118 255 LINE SMOOTH"
);
},
{
closed = 1;
nodes = (
"188 481 LINE",
"188 542 LINE",
"46 542 LINE",
"46 494 LINE",
"175 481 LINE"
);
},
{
closed = 1;
nodes = (
"289 248 LINE SMOOTH",
"346 248 OFFCURVE",
"372 228 OFFCURVE",
"382 171 CURVE SMOOTH",
"403 68 LINE SMOOTH",
"412 7 OFFCURVE",
"453 -12 OFFCURVE",
"526 -12 CURVE SMOOTH",
"564 -12 OFFCURVE",
"578 -9 OFFCURVE",
"617 0 CURVE",
"617 48 LINE",
"492 62 LINE",
"557 22 LINE",
"530 145 LINE SMOOTH",
"512 232 OFFCURVE",
"475 272 OFFCURVE",
"353 276 CURVE",
"352 268 LINE",
"499 276 OFFCURVE",
"551 341 OFFCURVE",
"551 404 CURVE SMOOTH",
"551 490 OFFCURVE",
"472 542 OFFCURVE",
"330 542 CURVE SMOOTH",
"188 542 LINE",
"188 490 LINE",
"302 490 LINE SMOOTH",
"378 490 OFFCURVE",
"416 460 OFFCURVE",
"416 395 CURVE SMOOTH",
"416 343 OFFCURVE",
"386 298 OFFCURVE",
"295 298 CURVE SMOOTH",
"189 298 LINE",
"189 248 LINE"
);
}
);
width = 625;
}
);
leftKerningGroup = LAT_E.sc;
rightKerningGroup = LAT_R.sc;
},
{
color = 0;
export = 0;
glyphname = S.sc;
lastChange = "2019-06-06 17:29:56 +0000";
layers = (
{
anchors = (
{
name = aboveUC;
position = "{268, 565}";
},
{
name = baseLC;
position = "{241, 0}";
},
{
name = belowLC;
position = "{244, -18}";
}
);
layerId = "78A9F7DD-241B-40F2-ADB9-3345ED68833B";
paths = (
{
closed = 1;
nodes = (
"178 39 OFFCURVE",
"142 56 OFFCURVE",
"84 86 CURVE",
"81 41 LINE",
"152 19 LINE",
"135 149 LINE",
"48 149 LINE",
"43 28 LINE",
"93 0 OFFCURVE",
"168 -15 OFFCURVE",
"236 -15 CURVE SMOOTH",
"383 -15 OFFCURVE",
"466 52 OFFCURVE",
"466 150 CURVE SMOOTH",
"466 233 OFFCURVE",
"418 280 OFFCURVE",
"304 324 CURVE SMOOTH",
"264 341 LINE SMOOTH",
"208 362 OFFCURVE",
"178 386 OFFCURVE",
"178 428 CURVE SMOOTH",
"178 474 OFFCURVE",
"221 503 OFFCURVE",
"272 503 CURVE SMOOTH",
"320 503 OFFCURVE",
"356 485 OFFCURVE",
"403 450 CURVE",
"406 497 LINE",
"333 524 LINE",
"349 401 LINE",
"435 401 LINE",
"442 514 LINE",
"399 541 OFFCURVE",
"339 557 OFFCURVE",
"275 557 CURVE SMOOTH",
"142 557 OFFCURVE",
"55 495 OFFCURVE",
"55 397 CURVE SMOOTH",
"55 305 OFFCURVE",
"118 256 OFFCURVE",
"221 215 CURVE SMOOTH",
"257 200 LINE SMOOTH",
"314 179 OFFCURVE",
"341 161 OFFCURVE",
"341 117 CURVE SMOOTH",
"341 73 OFFCURVE",
"303 39 OFFCURVE",
"238 39 CURVE SMOOTH"
);
}
);
width = 508;
}
);
leftKerningGroup = LAT_S.sc;
rightKerningGroup = LAT_S.sc;
},
{
color = 0;
export = 0;
glyphname = Germandbls.sc;
lastChange = "2019-06-06 17:29:56 +0000";
layers = (
{
layerId = "78A9F7DD-241B-40F2-ADB9-3345ED68833B";
paths = (
{
closed = 1;
nodes = (
"193 0 LINE",
"193 59 LINE",
"175 59 LINE",
"46 45 LINE",
"46 0 LINE"
);
},
{
closed = 1;
nodes = (
"261 0 LINE",
"258 84 OFFCURVE",
"258 170 OFFCURVE",
"258 241 CURVE SMOOTH",
"258 344 LINE SMOOTH",
"258 457 OFFCURVE",
"287 503 OFFCURVE",
"403 503 CURVE SMOOTH",
"457 503 OFFCURVE",
"493 497 OFFCURVE",
"544 488 CURVE",
"544 513 LINE",
"439 492 OFFCURVE",
"370 422 OFFCURVE",
"370 348 CURVE SMOOTH",
"370 290 OFFCURVE",
"395 254 OFFCURVE",
"446 212 CURVE SMOOTH",
"472 192 LINE SMOOTH",
"509 163 OFFCURVE",
"524 139 OFFCURVE",
"524 109 CURVE SMOOTH",
"524 67 OFFCURVE",
"497 38 OFFCURVE",
"454 38 CURVE SMOOTH",
"435 38 OFFCURVE",
"417 42 OFFCURVE",
"390 56 CURVE",
"436 4 LINE",
"408 140 LINE",
"332 140 LINE",
"328 24 LINE",
"364 -3 OFFCURVE",
"417 -15 OFFCURVE",
"467 -15 CURVE SMOOTH",
"594 -15 OFFCURVE",
"652 69 OFFCURVE",
"652 140 CURVE SMOOTH",
"652 194 OFFCURVE",
"624 242 OFFCURVE",
"565 286 CURVE SMOOTH",
"540 304 LINE SMOOTH",
"513 323 OFFCURVE",
"494 343 OFFCURVE",
"494 391 CURVE SMOOTH",
"494 435 OFFCURVE",
"519 468 OFFCURVE",
"566 487 CURVE",
"566 518 LINE",
"516 544 OFFCURVE",
"451 557 OFFCURVE",
"391 557 CURVE SMOOTH",
"192 557 OFFCURVE",
"118 489 OFFCURVE",
"118 331 CURVE SMOOTH",
"118 259 LINE SMOOTH",
"118 174 OFFCURVE",
"118 84 OFFCURVE",
"116 0 CURVE"
);
}
);
width = 679;
}
);
},
{
color = 0;
export = 0;
glyphname = Schwa.sc;
lastChange = "2019-06-06 17:29:56 +0000";
layers = (
{
anchors = (
{
name = aboveUC;
position = "{312, 565}";
},
{
name = belowLC;
position = "{317, -18}";
}
);
layerId = "78A9F7DD-241B-40F2-ADB9-3345ED68833B";
paths = (
{
closed = 1;
nodes = (
"48 81 OFFCURVE",
"143 -15 OFFCURVE",
"312 -15 CURVE SMOOTH",
"455 -15 OFFCURVE",
"579 87 OFFCURVE",
"579 275 CURVE SMOOTH",
"579 450 OFFCURVE",
"461 557 OFFCURVE",
"296 557 CURVE SMOOTH",
"214 557 OFFCURVE",
"139 525 OFFCURVE",
"91 470 CURVE",
"121 435 LINE",
"161 472 OFFCURVE",
"215 495 OFFCURVE",
"277 495 CURVE SMOOTH",
"377 495 OFFCURVE",
"431 421 OFFCURVE",
"431 265 CURVE SMOOTH",
"431 109 OFFCURVE",
"387 38 OFFCURVE",
"315 38 CURVE SMOOTH",
"248 38 OFFCURVE",
"194 86 OFFCURVE",
"194 182 CURVE SMOOTH",
"194 208 OFFCURVE",
"196 230 OFFCURVE",
"199 250 CURVE",
"502 250 LINE",
"501 302 LINE",
"54 302 LINE",
"50 283 OFFCURVE",
"48 255 OFFCURVE",
"48 228 CURVE SMOOTH"
);
}
);
width = 627;
}
);
leftKerningGroup = LAT_O.sc;
rightKerningGroup = LAT_O.sc;
},
{
color = 0;
export = 0;
glyphname = T.sc;
lastChange = "2019-06-06 17:29:56 +0000";
layers = (
{
anchors = (
{
name = aboveUC;
position = "{291, 565}";
},
{
name = baseLC;
position = "{291, 0}";
},
{
name = belowLC;
position = "{291, -18}";
}
);
layerId = "78A9F7DD-241B-40F2-ADB9-3345ED68833B";
paths = (
{
closed = 1;
nodes = (
"141 48 LINE",
"141 0 LINE",
"442 0 LINE",
"442 48 LINE",
"307 61 LINE",
"273 61 LINE"
);
},
{
closed = 1;
nodes = (
"221 168 OFFCURVE",
"221 83 OFFCURVE",
"218 0 CURVE",
"363 0 LINE",
"360 85 OFFCURVE",
"360 170 OFFCURVE",
"360 255 CURVE SMOOTH",
"360 287 LINE SMOOTH",
"360 374 OFFCURVE",
"360 459 OFFCURVE",
"363 542 CURVE",
"218 542 LINE",
"221 457 OFFCURVE",
"221 372 OFFCURVE",
"221 287 CURVE SMOOTH",
"221 255 LINE SMOOTH"
);
},
{
closed = 1;
nodes = (
"460 542 LINE",
"479 391 LINE",
"555 391 LINE",
"551 542 LINE",
"31 542 LINE",
"27 391 LINE",
"104 391 LINE",
"122 542 LINE",
"63 490 LINE",
"519 490 LINE"
);
}
);
width = 582;
}
);
leftKerningGroup = LAT_T.sc;
rightKerningGroup = LAT_T.sc;
},
{
color = 0;
export = 0;
glyphname = U.sc;
lastChange = "2019-06-06 17:29:56 +0000";
layers = (
{
anchors = (
{
name = aboveUC;
position = "{377, 565}";
},
{
name = belowLC;
position = "{356, -18}";
},
{
name = hornLC;
position = "{555, 554}";
},
{
name = ogonek;
position = "{422, 0}";
}
);
layerId = "78A9F7DD-241B-40F2-ADB9-3345ED68833B";
paths = (
{
closed = 1;
nodes = (
"645 494 LINE",
"645 542 LINE",
"430 542 LINE",
"430 494 LINE",
"525 486 LINE",
"550 486 LINE"
);
},
{
closed = 1;
nodes = (
"198 481 LINE",
"329 494 LINE",
"329 542 LINE",
"42 542 LINE",
"42 494 LINE",
"173 481 LINE"
);
},
{
closed = 1;
nodes = (
"249 294 LINE SMOOTH",
"249 378 OFFCURVE",
"249 461 OFFCURVE",
"252 542 CURVE",
"107 542 LINE",
"110 459 OFFCURVE",
"110 376 OFFCURVE",
"110 294 CURVE SMOOTH",
"110 203 LINE SMOOTH",
"110 48 OFFCURVE",
"205 -15 OFFCURVE",
"337 -15 CURVE SMOOTH",
"480 -15 OFFCURVE",
"573 54 OFFCURVE",
"572 234 CURVE SMOOTH",
"571 542 LINE",
"511 542 LINE",
"510 239 LINE SMOOTH",
"510 111 OFFCURVE",
"462 63 OFFCURVE",
"379 63 CURVE SMOOTH",
"294 63 OFFCURVE",
"249 105 OFFCURVE",
"249 234 CURVE SMOOTH"
);
}
);
width = 682;
}
);
leftKerningGroup = LAT_U.sc;
rightKerningGroup = LAT_U.sc;
},
{
color = 0;
export = 0;
glyphname = Uhorn.sc;
lastChange = "2019-06-06 17:29:56 +0000";
layers = (
{
anchors = (
{
name = aboveUC;
position = "{366, 565}";
},
{
name = belowLC;
position = "{356, -18}";
}
);
layerId = "78A9F7DD-241B-40F2-ADB9-3345ED68833B";
paths = (
{
closed = 1;
nodes = (
"249 294 LINE SMOOTH",
"249 378 OFFCURVE",
"249 461 OFFCURVE",
"252 542 CURVE",
"107 542 LINE",
"110 459 OFFCURVE",
"110 376 OFFCURVE",
"110 294 CURVE SMOOTH",
"110 203 LINE SMOOTH",
"110 48 OFFCURVE",
"205 -15 OFFCURVE",
"337 -15 CURVE SMOOTH",
"480 -15 OFFCURVE",
"573 54 OFFCURVE",
"572 234 CURVE SMOOTH",
"571 542 LINE",
"511 542 LINE",
"510 239 LINE SMOOTH",
"510 111 OFFCURVE",
"462 63 OFFCURVE",
"379 63 CURVE SMOOTH",
"294 63 OFFCURVE",
"249 105 OFFCURVE",
"249 234 CURVE SMOOTH"
);
},
{
closed = 1;
nodes = (
"198 481 LINE",
"329 494 LINE",
"329 542 LINE",
"42 542 LINE",
"42 494 LINE",
"173 481 LINE"
);
},
{
closed = 1;
nodes = (
"550 542 LINE",
"430 542 LINE",
"430 494 LINE",
"525 486 LINE",
"550 486 LINE"
);
},
{
closed = 1;
nodes = (
"635 493 OFFCURVE",
"692 531 OFFCURVE",
"692 611 CURVE SMOOTH",
"692 626 OFFCURVE",
"690 638 OFFCURVE",
"681 654 CURVE",
"668 665 OFFCURVE",
"655 667 OFFCURVE",
"640 667 CURVE SMOOTH",
"611 667 OFFCURVE",
"591 646 OFFCURVE",
"591 626 CURVE SMOOTH",
"591 594 OFFCURVE",
"618 583 OFFCURVE",
"618 562 CURVE SMOOTH",
"618 545 OFFCURVE",
"598 542 OFFCURVE",
"538 542 CURVE",
"538 490 LINE"
);
}
);
width = 659;
}
);
leftKerningGroup = LAT_U.sc;
rightKerningGroup = LAT_U.sc;
},
{
color = 0;
export = 0;
glyphname = Uogonek.sc;
lastChange = "2019-06-06 17:29:56 +0000";
layers = (
{
anchors = (
{
name = aboveUC;
position = "{377, 565}";
}
);
layerId = "78A9F7DD-241B-40F2-ADB9-3345ED68833B";
paths = (
{
closed = 1;
nodes = (
"173 481 LINE",
"198 481 LINE",
"329 494 LINE",
"329 542 LINE",
"42 542 LINE",
"42 494 LINE"
);
},
{
closed = 1;
nodes = (
"318 -152 OFFCURVE",
"353 -184 OFFCURVE",
"415 -184 CURVE SMOOTH",
"459 -184 OFFCURVE",
"500 -172 OFFCURVE",
"527 -143 CURVE",
"514 -106 LINE",
"499 -111 OFFCURVE",
"483 -114 OFFCURVE",
"466 -114 CURVE SMOOTH",
"430 -114 OFFCURVE",
"406 -94 OFFCURVE",
"406 -62 CURVE SMOOTH",
"406 -36 OFFCURVE",
"419 -10 OFFCURVE",
"460 11 CURVE SMOOTH",
"529 44 OFFCURVE",
"572 113 OFFCURVE",
"572 234 CURVE SMOOTH",
"571 542 LINE",
"511 542 LINE",
"510 239 LINE SMOOTH",
"510 112 OFFCURVE",
"462 63 OFFCURVE",
"377 63 CURVE SMOOTH",
"294 63 OFFCURVE",
"249 106 OFFCURVE",
"249 234 CURVE SMOOTH",
"249 294 LINE SMOOTH",
"249 377 OFFCURVE",
"249 461 OFFCURVE",
"252 542 CURVE",
"107 542 LINE",
"110 460 OFFCURVE",
"110 376 OFFCURVE",
"110 294 CURVE SMOOTH",
"110 203 LINE SMOOTH",
"110 48 OFFCURVE",
"205 -15 OFFCURVE",
"340 -15 CURVE SMOOTH",
"359 -15 OFFCURVE",
"377 -14 OFFCURVE",
"394 -12 CURVE",
"392 -5 LINE",
"346 -27 OFFCURVE",
"318 -62 OFFCURVE",
"318 -107 CURVE SMOOTH"
);
},
{
closed = 1;
nodes = (
"528 486 LINE",
"553 486 LINE",
"645 494 LINE",
"645 542 LINE",
"430 542 LINE",
"430 494 LINE"
);
}
);
width = 682;
}
);
leftKerningGroup = LAT_U.sc;
rightKerningGroup = LAT_U.sc;
},
{
color = 0;
export = 0;
glyphname = V.sc;
lastChange = "2019-06-06 17:29:56 +0000";
layers = (
{
anchors = (
{
name = aboveUC;
position = "{330, 565}";
},
{
name = belowLC;
position = "{309, -18}";
}
);
layerId = "78A9F7DD-241B-40F2-ADB9-3345ED68833B";
paths = (
{
closed = 1;
nodes = (
"600 494 LINE",
"600 542 LINE",
"402 542 LINE",
"402 494 LINE",
"496 481 LINE",
"510 481 LINE"
);
},
{
closed = 1;
nodes = (
"296 494 LINE",
"296 542 LINE",
"15 542 LINE",
"15 494 LINE",
"144 481 LINE",
"173 481 LINE"
);
},
{
closed = 1;
nodes = (
"345 -3 LINE",
"553 542 LINE",
"493 542 LINE",
"343 157 LINE",
"199 542 LINE",
"50 542 LINE",
"266 -3 LINE"
);
}
);
width = 607;
}
);
},
{
color = 0;
export = 0;
glyphname = W.sc;
lastChange = "2019-06-06 17:29:56 +0000";
layers = (
{
anchors = (
{
name = aboveUC;
position = "{481, 565}";
},
{
name = belowLC;
position = "{450, -18}";
}
);
layerId = "78A9F7DD-241B-40F2-ADB9-3345ED68833B";
paths = (
{
closed = 1;
nodes = (
"880 494 LINE",
"880 542 LINE",
"687 542 LINE",
"687 494 LINE",
"773 481 LINE",
"795 481 LINE"
);
},
{
closed = 1;
nodes = (
"620 494 LINE",
"620 542 LINE",
"353 542 LINE",
"353 494 LINE",
"468 481 LINE",
"508 481 LINE"
);
},
{
closed = 1;
nodes = (
"287 494 LINE",
"287 542 LINE",
"14 542 LINE",
"14 494 LINE",
"140 481 LINE",
"168 481 LINE"
);
},
{
closed = 1;
nodes = (
"653 -3 LINE",
"827 542 LINE",
"770 542 LINE",
"647 160 LINE",
"521 542 LINE",
"442 542 LINE",
"311 165 LINE",
"203 542 LINE",
"57 542 LINE",
"234 -3 LINE",
"313 -3 LINE",
"441 373 LINE",
"574 -3 LINE"
);
}
);
width = 884;
}
);
leftKerningGroup = LAT_W.sc;
rightKerningGroup = LAT_W.sc;
},
{
color = 0;
export = 0;
glyphname = X.sc;
lastChange = "2019-06-06 17:29:56 +0000";
layers = (
{
anchors = (
{
name = aboveUC;
position = "{299, 565}";
},
{
name = belowLC;
position = "{275, -18}";
}
);
layerId = "78A9F7DD-241B-40F2-ADB9-3345ED68833B";
paths = (
{
closed = 1;
nodes = (
"202 0 LINE",
"202 48 LINE",
"114 56 LINE",
"93 55 LINE",
"5 48 LINE",
"5 0 LINE"
);
},
{
closed = 1;
nodes = (
"127 481 LINE",
"166 481 LINE",
"287 494 LINE",
"287 542 LINE",
"12 542 LINE",
"12 494 LINE"
);
},
{
closed = 1;
nodes = (
"110 0 LINE",
"302 271 LINE",
"256 291 LINE",
"40 0 LINE"
);
},
{
closed = 1;
nodes = (
"552 0 LINE",
"196 542 LINE",
"42 542 LINE",
"398 0 LINE"
);
},
{
closed = 1;
nodes = (
"325 261 LINE",
"524 542 LINE",
"453 542 LINE",
"281 284 LINE"
);
},
{
closed = 1;
nodes = (
"584 0 LINE",
"584 48 LINE",
"453 61 LINE",
"418 61 LINE",
"295 48 LINE",
"295 0 LINE"
);
},
{
closed = 1;
nodes = (
"448 487 LINE",
"469 487 LINE",
"555 494 LINE",
"555 542 LINE",
"362 542 LINE",
"362 494 LINE"
);
}
);
width = 592;
}
);
},
{
color = 0;
export = 0;
glyphname = Y.sc;
lastChange = "2019-06-06 17:29:56 +0000";
layers = (
{
anchors = (
{
name = aboveUC;
position = "{317, 565}";
},
{
name = belowLC;
position = "{285, -18}";
}
);
layerId = "78A9F7DD-241B-40F2-ADB9-3345ED68833B";
paths = (
{
closed = 1;
nodes = (
"137 48 LINE",
"137 0 LINE",
"439 0 LINE",
"439 48 LINE",
"304 61 LINE",
"270 61 LINE"
);
},
{
closed = 1;
nodes = (
"181 481 LINE",
"297 494 LINE",
"297 542 LINE",
"12 542 LINE",
"12 494 LINE",
"146 481 LINE"
);
},
{
closed = 1;
nodes = (
"562 494 LINE",
"562 542 LINE",
"371 542 LINE",
"371 494 LINE",
"459 481 LINE",
"480 481 LINE"
);
},
{
closed = 1;
nodes = (
"360 0 LINE",
"357 74 OFFCURVE",
"357 145 OFFCURVE",
"357 254 CURVE",
"218 254 LINE",
"218 144 OFFCURVE",
"218 72 OFFCURVE",
"215 0 CURVE"
);
},
{
closed = 1;
nodes = (
"524 542 LINE",
"463 542 LINE",
"313 247 LINE",
"343 251 LINE",
"201 542 LINE",
"41 542 LINE",
"236 176 LINE",
"329 176 LINE"
);
}
);
width = 570;
}
);
leftKerningGroup = LAT_Y.sc;
rightKerningGroup = LAT_Y.sc;
},
{
color = 0;
export = 0;
glyphname = Z.sc;
lastChange = "2019-06-06 17:29:56 +0000";
layers = (
{
anchors = (
{
name = aboveUC;
position = "{271, 565}";
},
{
name = belowLC;
position = "{267, -18}";
}
);
layerId = "78A9F7DD-241B-40F2-ADB9-3345ED68833B";
paths = (
{
closed = 1;
nodes = (
"127 490 LINE",
"320 490 LINE",
"26 37 LINE",
"26 0 LINE",
"487 0 LINE",
"496 150 LINE",
"420 150 LINE",
"401 52 LINE",
"189 52 LINE",
"482 505 LINE",
"482 542 LINE",
"41 542 LINE",
"34 391 LINE",
"107 391 LINE"
);
}
);
width = 520;
}
);
leftKerningGroup = LAT_Z.sc;
rightKerningGroup = LAT_Z.sc;
},
{
color = 0;
export = 0;
glyphname = A.sups;
lastChange = "2019-06-06 17:29:56 +0000";
layers = (
{
layerId = "78A9F7DD-241B-40F2-ADB9-3345ED68833B";
paths = (
{
closed = 1;
nodes = (
"153 415 LINE",
"153 450 LINE",
"89 460 LINE",
"76 460 LINE",
"9 450 LINE",
"9 415 LINE"
);
},
{
closed = 1;
nodes = (
"88 415 LINE",
"216 789 LINE",
"190 753 LINE",
"306 415 LINE",
"411 415 LINE",
"260 833 LINE",
"198 833 LINE",
"48 415 LINE"
);
},
{
closed = 1;
nodes = (
"318 535 LINE",
"304 573 LINE",
"126 573 LINE",
"116 535 LINE"
);
},
{
closed = 1;
nodes = (
"439 415 LINE",
"439 448 LINE",
"355 458 LINE",
"317 458 LINE",
"241 448 LINE",
"241 415 LINE"
);
}
);
width = 451;
}
);
leftKerningGroup = sups_corner;
rightKerningGroup = sups_corner;
},
{
color = 0;
export = 0;
glyphname = B.sups;
lastChange = "2019-06-06 17:29:56 +0000";
layers = (
{
layerId = "78A9F7DD-241B-40F2-ADB9-3345ED68833B";
paths = (
{
closed = 1;
nodes = (
"180 415 LINE",
"180 833 LINE",
"78 833 LINE",
"78 415 LINE"
);
},
{
closed = 1;
nodes = (
"130 788 LINE",
"130 833 LINE",
"28 833 LINE",
"28 798 LINE",
"121 788 LINE"
);
},
{
closed = 1;
nodes = (
"28 450 LINE",
"28 415 LINE",
"130 415 LINE",
"130 460 LINE",
"121 460 LINE"
);
},
{
closed = 1;
nodes = (
"204 616 LINE SMOOTH",
"276 616 OFFCURVE",
"308 591 OFFCURVE",
"308 533 CURVE SMOOTH",
"308 479 OFFCURVE",
"272 452 OFFCURVE",
"206 452 CURVE SMOOTH",
"130 452 LINE",
"130 415 LINE",
"214 415 LINE SMOOTH",
"370 415 OFFCURVE",
"412 479 OFFCURVE",
"412 532 CURVE SMOOTH",
"412 595 OFFCURVE",
"367 634 OFFCURVE",
"253 641 CURVE",
"253 635 LINE",
"356 648 OFFCURVE",
"387 687 OFFCURVE",
"387 735 CURVE SMOOTH",
"387 791 OFFCURVE",
"343 833 OFFCURVE",
"236 833 CURVE SMOOTH",
"130 833 LINE",
"130 796 LINE",
"209 796 LINE SMOOTH",
"264 796 OFFCURVE",
"290 772 OFFCURVE",
"290 727 CURVE SMOOTH",
"290 677 OFFCURVE",
"262 650 OFFCURVE",
"201 650 CURVE SMOOTH",
"130 650 LINE",
"130 616 LINE"
);
}
);
width = 434;
}
);
leftKerningGroup = sups_corner;
rightKerningGroup = sups_round;
},
{
color = 0;
export = 0;
glyphname = C.sups;
lastChange = "2019-06-06 17:29:56 +0000";
layers = (
{
layerId = "78A9F7DD-241B-40F2-ADB9-3345ED68833B";
paths = (
{
closed = 1;
nodes = (
"195 439 OFFCURVE",
"136 493 OFFCURVE",
"136 623 CURVE SMOOTH",
"136 754 OFFCURVE",
"199 808 OFFCURVE",
"273 808 CURVE SMOOTH",
"305 808 OFFCURVE",
"332 798 OFFCURVE",
"365 771 CURVE",
"321 815 LINE",
"343 714 LINE",
"391 714 LINE",
"388 813 LINE",
"348 834 OFFCURVE",
"306 845 OFFCURVE",
"259 845 CURVE SMOOTH",
"135 845 OFFCURVE",
"28 777 OFFCURVE",
"28 624 CURVE SMOOTH",
"28 473 OFFCURVE",
"127 403 OFFCURVE",
"256 403 CURVE SMOOTH",
"310 403 OFFCURVE",
"357 416 OFFCURVE",
"393 436 CURVE",
"396 534 LINE",
"347 534 LINE",
"327 434 LINE",
"370 475 LINE",
"338 453 OFFCURVE",
"303 439 OFFCURVE",
"270 439 CURVE SMOOTH"
);
}
);
width = 419;
}
);
leftKerningGroup = sups_round;
rightKerningGroup = sups_round;
},
{
color = 0;
export = 0;
glyphname = D.sups;
lastChange = "2019-06-06 17:29:56 +0000";
layers = (
{
layerId = "78A9F7DD-241B-40F2-ADB9-3345ED68833B";
paths = (
{
closed = 1;
nodes = (
"182 415 LINE",
"182 833 LINE",
"78 833 LINE",
"78 415 LINE"
);
},
{
closed = 1;
nodes = (
"130 788 LINE",
"130 833 LINE",
"28 833 LINE",
"28 798 LINE",
"121 788 LINE"
);
},
{
closed = 1;
nodes = (
"28 450 LINE",
"28 415 LINE",
"130 415 LINE",
"130 460 LINE",
"121 460 LINE"
);
},
{
closed = 1;
nodes = (
"210 415 LINE SMOOTH",
"350 415 OFFCURVE",
"445 493 OFFCURVE",
"445 625 CURVE SMOOTH",
"445 753 OFFCURVE",
"358 833 OFFCURVE",
"223 833 CURVE SMOOTH",
"130 833 LINE",
"130 796 LINE",
"213 796 LINE SMOOTH",
"289 796 OFFCURVE",
"340 736 OFFCURVE",
"340 624 CURVE SMOOTH",
"340 513 OFFCURVE",
"289 452 OFFCURVE",
"213 452 CURVE SMOOTH",
"130 452 LINE",
"130 415 LINE"
);
}
);
width = 473;
}
);
leftKerningGroup = sups_corner;
rightKerningGroup = sups_round;
},
{
color = 0;
export = 0;
glyphname = E.sups;
lastChange = "2019-06-06 17:29:56 +0000";
layers = (
{
layerId = "78A9F7DD-241B-40F2-ADB9-3345ED68833B";
paths = (
{
closed = 1;
nodes = (
"130 788 LINE",
"130 833 LINE",
"28 833 LINE",
"28 798 LINE",
"121 788 LINE"
);
},
{
closed = 1;
nodes = (
"28 450 LINE",
"28 415 LINE",
"130 415 LINE",
"130 460 LINE",
"121 460 LINE"
);
},
{
closed = 1;
nodes = (
"182 415 LINE",
"182 833 LINE",
"78 833 LINE",
"78 415 LINE"
);
},
{
closed = 1;
nodes = (
"266 563 LINE",
"303 563 LINE",
"303 699 LINE",
"266 699 LINE",
"256 638 LINE",
"256 627 LINE"
);
},
{
closed = 1;
nodes = (
"309 415 LINE",
"353 451 LINE",
"130 451 LINE",
"130 415 LINE",
"375 415 LINE",
"380 524 LINE",
"328 524 LINE"
);
},
{
closed = 1;
nodes = (
"366 723 LINE",
"362 833 LINE",
"130 833 LINE",
"130 796 LINE",
"340 796 LINE",
"296 833 LINE",
"315 723 LINE"
);
},
{
closed = 1;
nodes = (
"130 650 LINE",
"130 611 LINE",
"276 611 LINE",
"276 650 LINE"
);
}
);
width = 401;
}
);
leftKerningGroup = sups_corner;
rightKerningGroup = sups_corner;
},
{
color = 0;
export = 0;
glyphname = F.sups;
lastChange = "2019-06-06 17:29:56 +0000";
layers = (
{
layerId = "78A9F7DD-241B-40F2-ADB9-3345ED68833B";
paths = (
{
closed = 1;
nodes = (
"28 450 LINE",
"28 415 LINE",
"242 415 LINE",
"242 450 LINE",
"147 460 LINE",
"121 460 LINE"
);
},
{
closed = 1;
nodes = (
"182 415 LINE",
"182 833 LINE",
"78 833 LINE",
"78 415 LINE"
);
},
{
closed = 1;
nodes = (
"130 788 LINE",
"130 833 LINE",
"28 833 LINE",
"28 798 LINE",
"121 788 LINE"
);
},
{
closed = 1;
nodes = (
"370 723 LINE",
"365 833 LINE",
"130 833 LINE",
"130 796 LINE",
"343 796 LINE",
"299 833 LINE",
"319 723 LINE"
);
},
{
closed = 1;
nodes = (
"269 557 LINE",
"305 557 LINE",
"305 699 LINE",
"269 699 LINE",
"259 638 LINE",
"259 620 LINE"
);
},
{
closed = 1;
nodes = (
"130 650 LINE",
"130 611 LINE",
"279 611 LINE",
"279 650 LINE"
);
}
);
width = 390;
}
);
leftKerningGroup = sups_corner;
rightKerningGroup = sups_v;
},
{
color = 0;
export = 0;
glyphname = G.sups;
lastChange = "2019-06-06 17:29:56 +0000";
layers = (
{
layerId = "78A9F7DD-241B-40F2-ADB9-3345ED68833B";
paths = (
{
closed = 1;
nodes = (
"363 580 LINE",
"440 591 LINE",
"440 626 LINE",
"245 626 LINE",
"245 591 LINE",
"326 580 LINE"
);
},
{
closed = 1;
nodes = (
"307 626 LINE",
"307 419 LINE",
"353 461 LINE",
"323 446 OFFCURVE",
"303 439 OFFCURVE",
"273 439 CURVE SMOOTH",
"194 439 OFFCURVE",
"136 498 OFFCURVE",
"136 625 CURVE SMOOTH",
"136 752 OFFCURVE",
"197 808 OFFCURVE",
"273 808 CURVE SMOOTH",
"305 808 OFFCURVE",
"333 800 OFFCURVE",
"367 776 CURVE",
"322 818 LINE",
"344 716 LINE",
"393 716 LINE",
"390 816 LINE",
"352 835 OFFCURVE",
"307 845 OFFCURVE",
"261 845 CURVE SMOOTH",
"115 845 OFFCURVE",
"28 760 OFFCURVE",
"28 625 CURVE SMOOTH",
"28 485 OFFCURVE",
"120 403 OFFCURVE",
"255 403 CURVE SMOOTH",
"312 403 OFFCURVE",
"358 414 OFFCURVE",
"405 440 CURVE",
"405 626 LINE"
);
}
);
width = 454;
}
);
leftKerningGroup = sups_round;
rightKerningGroup = sups_round;
},
{
color = 0;
export = 0;
glyphname = H.sups;
lastChange = "2019-06-06 17:29:56 +0000";
layers = (
{
layerId = "78A9F7DD-241B-40F2-ADB9-3345ED68833B";
paths = (
{
closed = 1;
nodes = (
"394 788 LINE",
"486 798 LINE",
"486 833 LINE",
"284 833 LINE",
"284 798 LINE",
"377 788 LINE"
);
},
{
closed = 1;
nodes = (
"284 450 LINE",
"284 415 LINE",
"486 415 LINE",
"486 450 LINE",
"394 460 LINE",
"377 460 LINE"
);
},
{
closed = 1;
nodes = (
"436 415 LINE",
"436 833 LINE",
"333 833 LINE",
"333 415 LINE"
);
},
{
closed = 1;
nodes = (
"181 415 LINE",
"181 833 LINE",
"78 833 LINE",
"78 415 LINE"
);
},
{
closed = 1;
nodes = (
"136 788 LINE",
"230 798 LINE",
"230 833 LINE",
"28 833 LINE",
"28 798 LINE",
"119 788 LINE"
);
},
{
closed = 1;
nodes = (
"28 450 LINE",
"28 415 LINE",
"230 415 LINE",
"230 450 LINE",
"136 460 LINE",
"119 460 LINE"
);
},
{
closed = 1;
nodes = (
"384 648 LINE",
"129 648 LINE",
"129 611 LINE",
"384 611 LINE"
);
}
);
width = 514;
}
);
leftKerningGroup = sups_corner;
rightKerningGroup = sups_corner;
},
{
color = 0;
export = 0;
glyphname = I.sups;
lastChange = "2019-06-06 17:29:56 +0000";
layers = (
{
layerId = "78A9F7DD-241B-40F2-ADB9-3345ED68833B";
paths = (
{
closed = 1;
nodes = (
"28 450 LINE",
"28 415 LINE",
"234 415 LINE",
"234 450 LINE",
"138 460 LINE",
"120 460 LINE"
);
},
{
closed = 1;
nodes = (
"138 788 LINE",
"234 798 LINE",
"234 833 LINE",
"28 833 LINE",
"28 798 LINE",
"120 788 LINE"
);
},
{
closed = 1;
nodes = (
"182 415 LINE",
"182 833 LINE",
"79 833 LINE",
"79 415 LINE"
);
}
);
width = 261;
}
);
leftKerningGroup = sups_corner;
rightKerningGroup = sups_corner;
},
{
color = 0;
export = 0;
glyphname = J.sups;
lastChange = "2019-06-06 17:29:56 +0000";
layers = (
{
layerId = "78A9F7DD-241B-40F2-ADB9-3345ED68833B";
paths = (
{
closed = 1;
nodes = (
"147 788 LINE",
"243 798 LINE",
"243 833 LINE",
"29 833 LINE",
"29 798 LINE",
"123 788 LINE"
);
},
{
closed = 1;
nodes = (
"82 331 LINE",
"60 357 LINE SMOOTH",
"40 382 OFFCURVE",
"23 394 OFFCURVE",
"2 394 CURVE SMOOTH",
"-25 394 OFFCURVE",
"-46 375 OFFCURVE",
"-48 345 CURVE",
"-34 317 OFFCURVE",
"-7 304 OFFCURVE",
"27 304 CURVE SMOOTH",
"85 304 OFFCURVE",
"137 336 OFFCURVE",
"162 389 CURVE SMOOTH",
"182 431 OFFCURVE",
"190 481 OFFCURVE",
"190 571 CURVE SMOOTH",
"190 833 LINE",
"85 833 LINE",
"88 626 OFFCURVE",
"90 506 OFFCURVE",
"90 441 CURVE SMOOTH",
"90 388 OFFCURVE",
"85 357 OFFCURVE",
"69 338 CURVE"
);
}
);
width = 266;
}
);
leftKerningGroup = sups_j;
rightKerningGroup = sups_low;
},
{
color = 0;
export = 0;
glyphname = K.sups;
lastChange = "2019-06-06 17:29:56 +0000";
layers = (
{
layerId = "78A9F7DD-241B-40F2-ADB9-3345ED68833B";
paths = (
{
closed = 1;
nodes = (
"178 415 LINE",
"178 833 LINE",
"78 833 LINE",
"78 415 LINE"
);
},
{
closed = 1;
nodes = (
"28 450 LINE",
"28 415 LINE",
"225 415 LINE",
"225 450 LINE",
"139 460 LINE",
"121 460 LINE"
);
},
{
closed = 1;
nodes = (
"139 788 LINE",
"230 798 LINE",
"230 833 LINE",
"28 833 LINE",
"28 798 LINE",
"121 788 LINE"
);
},
{
closed = 1;
nodes = (
"361 788 LINE",
"437 798 LINE",
"437 833 LINE",
"284 833 LINE",
"284 798 LINE",
"343 788 LINE"
);
},
{
closed = 1;
nodes = (
"326 415 LINE",
"437 415 LINE",
"273 702 LINE",
"211 624 LINE"
);
},
{
closed = 1;
nodes = (
"410 833 LINE",
"363 833 LINE",
"130 556 LINE",
"130 509 LINE"
);
},
{
closed = 1;
nodes = (
"455 415 LINE",
"455 450 LINE",
"370 460 LINE",
"356 460 LINE",
"269 450 LINE",
"269 415 LINE"
);
}
);
width = 463;
}
);
leftKerningGroup = sups_corner;
rightKerningGroup = sups_corner;
},
{
color = 0;
export = 0;
glyphname = L.sups;
lastChange = "2019-06-06 17:29:56 +0000";
layers = (
{
layerId = "78A9F7DD-241B-40F2-ADB9-3345ED68833B";
paths = (
{
closed = 1;
nodes = (
"28 450 LINE",
"28 415 LINE",
"130 415 LINE",
"130 460 LINE",
"121 460 LINE"
);
},
{
closed = 1;
nodes = (
"143 788 LINE",
"238 798 LINE",
"238 833 LINE",
"28 833 LINE",
"28 798 LINE",
"121 788 LINE"
);
},
{
closed = 1;
nodes = (
"182 415 LINE",
"182 833 LINE",
"78 833 LINE",
"78 415 LINE"
);
},
{
closed = 1;
nodes = (
"296 415 LINE",
"343 451 LINE",
"130 451 LINE",
"130 415 LINE",
"366 415 LINE",
"372 540 LINE",
"322 540 LINE"
);
}
);
width = 393;
}
);
leftKerningGroup = sups_corner;
rightKerningGroup = sups_corner;
},
{
color = 0;
export = 0;
glyphname = M.sups;
lastChange = "2019-06-06 17:29:56 +0000";
layers = (
{
layerId = "78A9F7DD-241B-40F2-ADB9-3345ED68833B";
paths = (
{
closed = 1;
nodes = (
"29 798 LINE",
"119 789 LINE",
"74 824 LINE",
"255 415 LINE",
"286 415 LINE",
"466 833 LINE",
"424 833 LINE",
"291 525 LINE",
"316 521 LINE",
"177 833 LINE",
"29 833 LINE"
);
},
{
closed = 1;
nodes = (
"521 415 LINE",
"521 833 LINE",
"447 833 LINE",
"417 768 LINE",
"417 415 LINE"
);
},
{
closed = 1;
nodes = (
"19 450 LINE",
"19 415 LINE",
"178 415 LINE",
"178 450 LINE",
"111 460 LINE",
"88 460 LINE"
);
},
{
closed = 1;
nodes = (
"368 450 LINE",
"368 415 LINE",
"572 415 LINE",
"572 450 LINE",
"477 460 LINE",
"459 460 LINE"
);
},
{
closed = 1;
nodes = (
"477 788 LINE",
"572 798 LINE",
"572 833 LINE",
"459 833 LINE",
"459 788 LINE"
);
},
{
closed = 1;
nodes = (
"81 415 LINE",
"118 415 LINE",
"119 833 LINE",
"84 833 LINE"
);
}
);
width = 599;
}
);
leftKerningGroup = sups_corner;
rightKerningGroup = sups_corner;
},
{
color = 0;
export = 0;
glyphname = N.sups;
lastChange = "2019-06-06 17:29:56 +0000";
layers = (
{
layerId = "78A9F7DD-241B-40F2-ADB9-3345ED68833B";
paths = (
{
closed = 1;
nodes = (
"408 833 LINE",
"368 833 LINE",
"368 450 LINE",
"408 450 LINE"
);
},
{
closed = 1;
nodes = (
"464 798 LINE",
"464 833 LINE",
"294 833 LINE",
"294 798 LINE",
"380 788 LINE",
"398 788 LINE"
);
},
{
closed = 1;
nodes = (
"25 450 LINE",
"25 415 LINE",
"195 415 LINE",
"195 450 LINE",
"112 460 LINE",
"94 460 LINE"
);
},
{
closed = 1;
nodes = (
"80 415 LINE",
"121 415 LINE",
"121 797 LINE",
"80 833 LINE"
);
},
{
closed = 1;
nodes = (
"25 797 LINE",
"98 792 LINE",
"60 810 LINE",
"360 409 LINE",
"408 409 LINE",
"408 511 LINE",
"167 833 LINE",
"25 833 LINE"
);
}
);
width = 489;
}
);
leftKerningGroup = sups_corner;
rightKerningGroup = sups_corner;
},
{
color = 0;
export = 0;
glyphname = O.sups;
lastChange = "2019-06-06 17:29:56 +0000";
layers = (
{
layerId = "78A9F7DD-241B-40F2-ADB9-3345ED68833B";
paths = (
{
closed = 1;
nodes = (
"136 730 OFFCURVE",
"164 808 OFFCURVE",
"236 808 CURVE SMOOTH",
"308 808 OFFCURVE",
"336 730 OFFCURVE",
"336 624 CURVE SMOOTH",
"336 517 OFFCURVE",
"308 440 OFFCURVE",
"236 440 CURVE SMOOTH",
"164 440 OFFCURVE",
"136 517 OFFCURVE",
"136 624 CURVE SMOOTH"
);
},
{
closed = 1;
nodes = (
"129 845 OFFCURVE",
"28 772 OFFCURVE",
"28 624 CURVE SMOOTH",
"28 475 OFFCURVE",
"128 403 OFFCURVE",
"236 403 CURVE SMOOTH",
"343 403 OFFCURVE",
"443 476 OFFCURVE",
"443 624 CURVE SMOOTH",
"443 772 OFFCURVE",
"343 845 OFFCURVE",
"236 845 CURVE SMOOTH"
);
}
);
width = 471;
}
);
leftKerningGroup = sups_round;
rightKerningGroup = sups_round;
},
{
color = 0;
export = 0;
glyphname = P.sups;
lastChange = "2019-06-06 17:29:56 +0000";
layers = (
{
layerId = "78A9F7DD-241B-40F2-ADB9-3345ED68833B";
paths = (
{
closed = 1;
nodes = (
"130 788 LINE",
"130 833 LINE",
"28 833 LINE",
"28 798 LINE",
"121 788 LINE"
);
},
{
closed = 1;
nodes = (
"28 450 LINE",
"28 415 LINE",
"242 415 LINE",
"242 450 LINE",
"147 460 LINE",
"121 460 LINE"
);
},
{
closed = 1;
nodes = (
"182 415 LINE",
"182 833 LINE",
"78 833 LINE",
"78 415 LINE"
);
},
{
closed = 1;
nodes = (
"393 786 OFFCURVE",
"338 833 OFFCURVE",
"206 833 CURVE SMOOTH",
"130 833 LINE",
"130 796 LINE",
"203 796 LINE SMOOTH",
"265 796 OFFCURVE",
"297 766 OFFCURVE",
"297 707 CURVE SMOOTH",
"297 650 OFFCURVE",
"266 610 OFFCURVE",
"200 610 CURVE SMOOTH",
"130 610 LINE",
"130 574 LINE",
"197 574 LINE SMOOTH",
"343 574 OFFCURVE",
"393 634 OFFCURVE",
"393 707 CURVE SMOOTH"
);
}
);
width = 409;
}
);
leftKerningGroup = sups_corner;
rightKerningGroup = sups_v;
},
{
color = 0;
export = 0;
glyphname = Q.sups;
lastChange = "2019-06-06 17:29:56 +0000";
layers = (
{
components = (
{
alignment = -1;
name = O.sups;
}
);
layerId = "78A9F7DD-241B-40F2-ADB9-3345ED68833B";
paths = (
{
closed = 1;
nodes = (
"364 284 OFFCURVE",
"396 290 OFFCURVE",
"419 304 CURVE",
"406 341 LINE",
"389 335 OFFCURVE",
"371 333 OFFCURVE",
"358 333 CURVE SMOOTH",
"305 333 OFFCURVE",
"274 372 OFFCURVE",
"282 433 CURVE",
"185 435 LINE",
"185 421 LINE SMOOTH",
"185 341 OFFCURVE",
"237 284 OFFCURVE",
"330 284 CURVE SMOOTH"
);
}
);
width = 471;
}
);
leftKerningGroup = sups_round;
rightKerningGroup = sups_low;
},
{
color = 0;
export = 0;
glyphname = R.sups;
lastChange = "2019-06-06 17:29:56 +0000";
layers = (
{
layerId = "78A9F7DD-241B-40F2-ADB9-3345ED68833B";
paths = (
{
closed = 1;
nodes = (
"28 450 LINE",
"28 415 LINE",
"234 415 LINE",
"234 450 LINE",
"140 460 LINE",
"121 460 LINE"
);
},
{
closed = 1;
nodes = (
"181 415 LINE",
"181 833 LINE",
"78 833 LINE",
"78 415 LINE"
);
},
{
closed = 1;
nodes = (
"130 788 LINE",
"130 833 LINE",
"28 833 LINE",
"28 798 LINE",
"121 788 LINE"
);
},
{
closed = 1;
nodes = (
"203 607 LINE SMOOTH",
"245 607 OFFCURVE",
"263 586 OFFCURVE",
"271 544 CURVE SMOOTH",
"285 473 LINE SMOOTH",
"294 422 OFFCURVE",
"325 406 OFFCURVE",
"378 406 CURVE SMOOTH",
"406 406 OFFCURVE",
"418 408 OFFCURVE",
"446 415 CURVE",
"446 450 LINE",
"353 461 LINE",
"398 426 LINE",
"377 523 LINE SMOOTH",
"364 593 OFFCURVE",
"338 627 OFFCURVE",
"246 630 CURVE",
"246 623 LINE",
"360 629 OFFCURVE",
"396 679 OFFCURVE",
"396 728 CURVE SMOOTH",
"396 793 OFFCURVE",
"338 833 OFFCURVE",
"235 833 CURVE SMOOTH",
"130 833 LINE",
"130 796 LINE",
"214 796 LINE SMOOTH",
"271 796 OFFCURVE",
"299 771 OFFCURVE",
"299 721 CURVE SMOOTH",
"299 680 OFFCURVE",
"276 643 OFFCURVE",
"210 643 CURVE SMOOTH",
"132 643 LINE",
"132 607 LINE"
);
}
);
width = 454;
}
);
leftKerningGroup = sups_corner;
rightKerningGroup = sups_corner;
},
{
color = 0;
export = 0;
glyphname = S.sups;
lastChange = "2019-06-06 17:29:56 +0000";
layers = (
{
layerId = "78A9F7DD-241B-40F2-ADB9-3345ED68833B";
paths = (
{
closed = 1;
nodes = (
"124 441 OFFCURVE",
"97 452 OFFCURVE",
"56 474 CURVE",
"105 427 LINE",
"88 531 LINE",
"31 531 LINE",
"27 436 LINE",
"64 413 OFFCURVE",
"118 403 OFFCURVE",
"164 403 CURVE SMOOTH",
"268 403 OFFCURVE",
"334 454 OFFCURVE",
"334 524 CURVE SMOOTH",
"334 589 OFFCURVE",
"301 619 OFFCURVE",
"222 660 CURVE SMOOTH",
"187 679 LINE SMOOTH",
"147 699 OFFCURVE",
"125 716 OFFCURVE",
"125 750 CURVE SMOOTH",
"125 783 OFFCURVE",
"156 807 OFFCURVE",
"196 807 CURVE SMOOTH",
"230 807 OFFCURVE",
"256 793 OFFCURVE",
"291 769 CURVE",
"239 819 LINE",
"256 723 LINE",
"312 723 LINE",
"317 813 LINE",
"286 833 OFFCURVE",
"242 845 OFFCURVE",
"196 845 CURVE SMOOTH",
"100 845 OFFCURVE",
"37 798 OFFCURVE",
"37 721 CURVE SMOOTH",
"37 657 OFFCURVE",
"78 622 OFFCURVE",
"148 586 CURVE SMOOTH",
"183 568 LINE SMOOTH",
"224 547 OFFCURVE",
"244 533 OFFCURVE",
"244 498 CURVE SMOOTH",
"244 465 OFFCURVE",
"217 441 OFFCURVE",
"167 441 CURVE SMOOTH"
);
}
);
width = 361;
}
);
leftKerningGroup = sups_round;
rightKerningGroup = sups_round;
},
{
color = 0;
export = 0;
glyphname = T.sups;
lastChange = "2019-06-06 17:29:56 +0000";
layers = (
{
layerId = "78A9F7DD-241B-40F2-ADB9-3345ED68833B";
paths = (
{
closed = 1;
nodes = (
"101 450 LINE",
"101 415 LINE",
"321 415 LINE",
"321 450 LINE",
"223 460 LINE",
"197 460 LINE"
);
},
{
closed = 1;
nodes = (
"263 415 LINE",
"263 833 LINE",
"159 833 LINE",
"159 415 LINE"
);
},
{
closed = 1;
nodes = (
"335 833 LINE",
"353 714 LINE",
"404 714 LINE",
"402 833 LINE",
"20 833 LINE",
"17 714 LINE",
"69 714 LINE",
"87 833 LINE",
"42 796 LINE",
"379 796 LINE"
);
}
);
width = 421;
}
);
leftKerningGroup = sups_diag;
rightKerningGroup = sups_v;
},
{
color = 0;
export = 0;
glyphname = U.sups;
lastChange = "2019-06-06 17:29:56 +0000";
layers = (
{
layerId = "78A9F7DD-241B-40F2-ADB9-3345ED68833B";
paths = (
{
closed = 1;
nodes = (
"120 788 LINE",
"138 788 LINE",
"234 798 LINE",
"234 833 LINE",
"25 833 LINE",
"25 798 LINE"
);
},
{
closed = 1;
nodes = (
"348 403 OFFCURVE",
"412 462 OFFCURVE",
"412 596 CURVE SMOOTH",
"412 833 LINE",
"371 833 LINE",
"371 595 LINE SMOOTH",
"371 500 OFFCURVE",
"335 462 OFFCURVE",
"273 462 CURVE SMOOTH",
"210 462 OFFCURVE",
"177 498 OFFCURVE",
"177 593 CURVE SMOOTH",
"177 833 LINE",
"74 833 LINE",
"74 577 LINE SMOOTH",
"74 449 OFFCURVE",
"145 403 OFFCURVE",
"244 403 CURVE SMOOTH"
);
},
{
closed = 1;
nodes = (
"380 792 LINE",
"398 792 LINE",
"467 798 LINE",
"467 833 LINE",
"310 833 LINE",
"310 798 LINE"
);
}
);
width = 489;
}
);
leftKerningGroup = sups_round;
rightKerningGroup = sups_round;
},
{
color = 0;
export = 0;
glyphname = V.sups;
lastChange = "2019-06-06 17:29:56 +0000";
layers = (
{
layerId = "78A9F7DD-241B-40F2-ADB9-3345ED68833B";
paths = (
{
closed = 1;
nodes = (
"439 798 LINE",
"439 833 LINE",
"294 833 LINE",
"294 800 LINE",
"364 788 LINE",
"374 788 LINE"
);
},
{
closed = 1;
nodes = (
"216 800 LINE",
"216 833 LINE",
"10 833 LINE",
"10 798 LINE",
"103 788 LINE",
"125 788 LINE"
);
},
{
closed = 1;
nodes = (
"252 413 LINE",
"403 833 LINE",
"361 833 LINE",
"243 499 LINE",
"260 509 LINE",
"146 833 LINE",
"37 833 LINE",
"195 413 LINE"
);
}
);
width = 445;
}
);
leftKerningGroup = sups_diag;
rightKerningGroup = sups_v;
},
{
color = 0;
export = 0;
glyphname = W.sups;
lastChange = "2019-06-06 17:29:56 +0000";
layers = (
{
layerId = "78A9F7DD-241B-40F2-ADB9-3345ED68833B";
paths = (
{
closed = 1;
nodes = (
"645 798 LINE",
"645 833 LINE",
"503 833 LINE",
"503 798 LINE",
"566 788 LINE",
"583 788 LINE"
);
},
{
closed = 1;
nodes = (
"455 798 LINE",
"455 833 LINE",
"260 833 LINE",
"260 798 LINE",
"342 788 LINE",
"373 788 LINE"
);
},
{
closed = 1;
nodes = (
"210 798 LINE",
"210 833 LINE",
"10 833 LINE",
"10 798 LINE",
"102 788 LINE",
"122 788 LINE"
);
},
{
closed = 1;
nodes = (
"238 503 LINE",
"148 833 LINE",
"42 833 LINE",
"172 413 LINE",
"228 413 LINE",
"340 758 LINE",
"313 737 LINE",
"421 413 LINE",
"478 413 LINE",
"606 833 LINE",
"565 833 LINE",
"451 442 LINE",
"487 503 LINE",
"383 833 LINE",
"325 833 LINE",
"202 442 LINE"
);
}
);
width = 652;
}
);
leftKerningGroup = sups_diag;
rightKerningGroup = sups_v;
},
{
color = 0;
export = 0;
glyphname = X.sups;
lastChange = "2019-06-06 17:29:56 +0000";
layers = (
{
layerId = "78A9F7DD-241B-40F2-ADB9-3345ED68833B";
paths = (
{
closed = 1;
nodes = (
"12 450 LINE",
"12 415 LINE",
"154 415 LINE",
"154 450 LINE",
"90 454 LINE",
"74 454 LINE"
);
},
{
closed = 1;
nodes = (
"307 460 LINE",
"216 450 LINE",
"216 415 LINE",
"427 415 LINE",
"427 450 LINE",
"334 460 LINE"
);
},
{
closed = 1;
nodes = (
"417 798 LINE",
"417 833 LINE",
"272 833 LINE",
"272 798 LINE",
"336 793 LINE",
"352 793 LINE"
);
},
{
closed = 1;
nodes = (
"136 788 LINE",
"227 798 LINE",
"227 833 LINE",
"18 833 LINE",
"18 798 LINE",
"106 788 LINE"
);
},
{
closed = 1;
nodes = (
"37 415 LINE",
"85 415 LINE",
"219 632 LINE",
"188 646 LINE"
);
},
{
closed = 1;
nodes = (
"157 833 LINE",
"41 833 LINE",
"287 415 LINE",
"403 415 LINE"
);
},
{
closed = 1;
nodes = (
"391 833 LINE",
"343 833 LINE",
"218 629 LINE",
"248 613 LINE"
);
}
);
width = 439;
}
);
leftKerningGroup = sups_corner;
rightKerningGroup = sups_corner;
},
{
color = 0;
export = 0;
glyphname = Y.sups;
lastChange = "2019-06-06 17:29:56 +0000";
layers = (
{
layerId = "78A9F7DD-241B-40F2-ADB9-3345ED68833B";
paths = (
{
closed = 1;
nodes = (
"100 450 LINE",
"100 415 LINE",
"321 415 LINE",
"321 450 LINE",
"222 460 LINE",
"197 460 LINE"
);
},
{
closed = 1;
nodes = (
"133 788 LINE",
"217 798 LINE",
"217 833 LINE",
"10 833 LINE",
"10 798 LINE",
"107 788 LINE"
);
},
{
closed = 1;
nodes = (
"413 798 LINE",
"413 833 LINE",
"274 833 LINE",
"274 798 LINE",
"339 788 LINE",
"353 788 LINE"
);
},
{
closed = 1;
nodes = (
"261 415 LINE",
"261 613 LINE",
"158 613 LINE",
"158 415 LINE"
);
},
{
closed = 1;
nodes = (
"385 833 LINE",
"341 833 LINE",
"232 610 LINE",
"253 612 LINE",
"148 833 LINE",
"32 833 LINE",
"175 552 LINE",
"241 552 LINE"
);
}
);
width = 421;
}
);
leftKerningGroup = sups_diag;
rightKerningGroup = sups_v;
},
{
color = 0;
export = 0;
glyphname = Z.sups;
lastChange = "2019-06-06 17:29:56 +0000";
layers = (
{
layerId = "78A9F7DD-241B-40F2-ADB9-3345ED68833B";
paths = (
{
closed = 1;
nodes = (
"286 415 LINE",
"333 451 LINE",
"64 451 LINE",
"64 415 LINE",
"355 415 LINE",
"361 534 LINE",
"310 534 LINE"
);
},
{
closed = 1;
nodes = (
"98 833 LINE",
"52 796 LINE",
"304 796 LINE",
"304 833 LINE",
"29 833 LINE",
"24 714 LINE",
"73 714 LINE"
);
},
{
closed = 1;
nodes = (
"17 445 LINE",
"17 415 LINE",
"114 415 LINE",
"352 803 LINE",
"352 833 LINE",
"255 833 LINE"
);
}
);
width = 378;
}
);
leftKerningGroup = sups_corner;
rightKerningGroup = sups_corner;
},
{
color = 0;
export = 0;
glyphname = a.sups;
lastChange = "2019-06-06 17:29:56 +0000";
layers = (
{
layerId = "78A9F7DD-241B-40F2-ADB9-3345ED68833B";
paths = (
{
closed = 1;
nodes = (
"297 619 LINE SMOOTH",
"297 705 OFFCURVE",
"263 739 OFFCURVE",
"182 739 CURVE SMOOTH",
"93 739 OFFCURVE",
"40 703 OFFCURVE",
"34 651 CURVE",
"38 630 OFFCURVE",
"53 619 OFFCURVE",
"75 619 CURVE SMOOTH",
"98 619 OFFCURVE",
"118 635 OFFCURVE",
"121 671 CURVE SMOOTH",
"129 720 LINE",
"87 697 LINE",
"115 705 OFFCURVE",
"134 707 OFFCURVE",
"150 707 CURVE SMOOTH",
"194 707 OFFCURVE",
"207 690 OFFCURVE",
"207 631 CURVE SMOOTH",
"207 476 LINE SMOOTH",
"210 433 OFFCURVE",
"233 407 OFFCURVE",
"281 407 CURVE SMOOTH",
"316 407 OFFCURVE",
"337 418 OFFCURVE",
"353 452 CURVE",
"337 464 LINE",
"328 453 OFFCURVE",
"321 450 OFFCURVE",
"314 450 CURVE SMOOTH",
"302 450 OFFCURVE",
"297 458 OFFCURVE",
"297 474 CURVE SMOOTH"
);
},
{
closed = 1;
nodes = (
"111 531 OFFCURVE",
"128 554 OFFCURVE",
"166 569 CURVE SMOOTH",
"186 578 OFFCURVE",
"223 587 OFFCURVE",
"254 595 CURVE",
"254 621 LINE",
"223 614 OFFCURVE",
"176 602 OFFCURVE",
"148 594 CURVE SMOOTH",
"48 565 OFFCURVE",
"24 532 OFFCURVE",
"24 489 CURVE SMOOTH",
"24 435 OFFCURVE",
"61 405 OFFCURVE",
"112 405 CURVE SMOOTH",
"158 405 OFFCURVE",
"179 426 OFFCURVE",
"214 461 CURVE SMOOTH",
"241 487 LINE",
"233 498 LINE",
"211 483 LINE SMOOTH",
"182 463 OFFCURVE",
"171 455 OFFCURVE",
"155 455 CURVE SMOOTH",
"132 455 OFFCURVE",
"111 470 OFFCURVE",
"111 503 CURVE SMOOTH"
);
}
);
width = 354;
}
);
leftKerningGroup = sups_round;
rightKerningGroup = sups_corner;
},
{
color = 0;
export = 0;
glyphname = b.sups;
lastChange = "2019-06-06 17:29:56 +0000";
layers = (
{
layerId = "78A9F7DD-241B-40F2-ADB9-3345ED68833B";
paths = (
{
closed = 1;
nodes = (
"86 457 LINE",
"19 444 LINE",
"19 415 LINE",
"138 405 LINE",
"152 468 LINE",
"152 878 LINE",
"140 884 LINE",
"13 854 LINE",
"13 827 LINE",
"61 822 LINE",
"61 415 LINE"
);
},
{
closed = 1;
nodes = (
"284 488 OFFCURVE",
"252 455 OFFCURVE",
"211 455 CURVE SMOOTH",
"175 455 OFFCURVE",
"151 477 OFFCURVE",
"119 514 CURVE",
"113 500 LINE",
"144 434 OFFCURVE",
"182 405 OFFCURVE",
"238 405 CURVE SMOOTH",
"314 405 OFFCURVE",
"380 467 OFFCURVE",
"380 574 CURVE SMOOTH",
"380 684 OFFCURVE",
"321 739 OFFCURVE",
"249 739 CURVE SMOOTH",
"192 739 OFFCURVE",
"148 707 OFFCURVE",
"109 643 CURVE",
"115 630 LINE",
"146 661 OFFCURVE",
"178 689 OFFCURVE",
"214 689 CURVE SMOOTH",
"255 689 OFFCURVE",
"284 657 OFFCURVE",
"284 572 CURVE SMOOTH"
);
}
);
width = 403;
}
);
leftKerningGroup = sups_corner;
rightKerningGroup = sups_round;
},
{
color = 0;
export = 0;
glyphname = c.sups;
lastChange = "2019-06-06 17:29:56 +0000";
layers = (
{
layerId = "78A9F7DD-241B-40F2-ADB9-3345ED68833B";
paths = (
{
closed = 1;
nodes = (
"231 705 OFFCURVE",
"245 701 OFFCURVE",
"267 691 CURVE",
"225 719 LINE",
"231 672 LINE SMOOTH",
"236 631 OFFCURVE",
"255 615 OFFCURVE",
"280 615 CURVE SMOOTH",
"302 615 OFFCURVE",
"315 625 OFFCURVE",
"321 647 CURVE",
"315 699 OFFCURVE",
"265 739 OFFCURVE",
"197 739 CURVE SMOOTH",
"103 739 OFFCURVE",
"24 677 OFFCURVE",
"24 571 CURVE SMOOTH",
"24 465 OFFCURVE",
"94 405 OFFCURVE",
"184 405 CURVE SMOOTH",
"250 405 OFFCURVE",
"298 434 OFFCURVE",
"320 489 CURVE",
"299 504 LINE",
"279 477 OFFCURVE",
"252 461 OFFCURVE",
"213 461 CURVE SMOOTH",
"158 461 OFFCURVE",
"118 503 OFFCURVE",
"118 581 CURVE SMOOTH",
"118 667 OFFCURVE",
"159 705 OFFCURVE",
"207 705 CURVE SMOOTH"
);
}
);
width = 333;
}
);
leftKerningGroup = sups_round;
rightKerningGroup = sups_round;
},
{
color = 0;
export = 0;
glyphname = d.sups;
lastChange = "2019-06-06 17:29:56 +0000";
layers = (
{
layerId = "78A9F7DD-241B-40F2-ADB9-3345ED68833B";
paths = (
{
closed = 1;
nodes = (
"119 656 OFFCURVE",
"151 689 OFFCURVE",
"196 689 CURVE SMOOTH",
"224 689 OFFCURVE",
"249 672 OFFCURVE",
"279 638 CURVE",
"286 653 LINE",
"254 709 OFFCURVE",
"224 739 OFFCURVE",
"168 739 CURVE SMOOTH",
"93 739 OFFCURVE",
"23 679 OFFCURVE",
"23 571 CURVE SMOOTH",
"23 459 OFFCURVE",
"84 405 OFFCURVE",
"156 405 CURVE SMOOTH",
"214 405 OFFCURVE",
"253 438 OFFCURVE",
"290 499 CURVE",
"282 512 LINE",
"254 477 OFFCURVE",
"228 455 OFFCURVE",
"195 455 CURVE SMOOTH",
"152 455 OFFCURVE",
"119 488 OFFCURVE",
"119 571 CURVE SMOOTH"
);
},
{
closed = 1;
nodes = (
"342 415 LINE",
"342 878 LINE",
"331 884 LINE",
"201 854 LINE",
"201 827 LINE",
"250 820 LINE",
"250 468 LINE",
"259 408 LINE",
"382 415 LINE",
"382 443 LINE",
"307 459 LINE"
);
}
);
width = 389;
}
);
leftKerningGroup = sups_round;
rightKerningGroup = sups_corner;
},
{
color = 0;
export = 0;
glyphname = e.sups;
lastChange = "2019-06-06 17:29:56 +0000";
layers = (
{
layerId = "78A9F7DD-241B-40F2-ADB9-3345ED68833B";
paths = (
{
closed = 1;
nodes = (
"250 405 OFFCURVE",
"297 434 OFFCURVE",
"324 486 CURVE",
"303 503 LINE",
"281 478 OFFCURVE",
"255 461 OFFCURVE",
"215 461 CURVE SMOOTH",
"160 461 OFFCURVE",
"118 499 OFFCURVE",
"118 580 CURVE SMOOTH",
"118 676 OFFCURVE",
"153 705 OFFCURVE",
"185 705 CURVE SMOOTH",
"216 705 OFFCURVE",
"242 683 OFFCURVE",
"242 640 CURVE SMOOTH",
"242 614 OFFCURVE",
"233 601 OFFCURVE",
"201 601 CURVE SMOOTH",
"62 601 LINE",
"62 569 LINE",
"322 569 LINE",
"325 579 OFFCURVE",
"326 591 OFFCURVE",
"326 604 CURVE SMOOTH",
"326 683 OFFCURVE",
"274 739 OFFCURVE",
"191 739 CURVE SMOOTH",
"104 739 OFFCURVE",
"24 675 OFFCURVE",
"24 571 CURVE SMOOTH",
"24 468 OFFCURVE",
"90 405 OFFCURVE",
"187 405 CURVE SMOOTH"
);
}
);
width = 349;
}
);
leftKerningGroup = sups_round;
rightKerningGroup = sups_round;
},
{
color = 0;
export = 0;
glyphname = eacute.sups;
lastChange = "2019-06-06 17:29:56 +0000";
layers = (
{
components = (
{
alignment = -1;
name = e.sups;
}
);
layerId = "78A9F7DD-241B-40F2-ADB9-3345ED68833B";
paths = (
{
closed = 1;
nodes = (
"171 764 LINE",
"232 814 LINE SMOOTH",
"274 847 OFFCURVE",
"282 863 OFFCURVE",
"282 878 CURVE SMOOTH",
"282 897 OFFCURVE",
"266 909 OFFCURVE",
"248 909 CURVE SMOOTH",
"228 909 OFFCURVE",
"213 897 OFFCURVE",
"188 850 CURVE SMOOTH",
"149 782 LINE"
);
}
);
width = 349;
}
);
leftKerningGroup = sups_round;
rightKerningGroup = sups_round;
},
{
color = 0;
export = 0;
glyphname = egrave.sups;
lastChange = "2019-06-06 17:29:56 +0000";
layers = (
{
components = (
{
alignment = -1;
name = e.sups;
}
);
layerId = "78A9F7DD-241B-40F2-ADB9-3345ED68833B";
paths = (
{
closed = 1;
nodes = (
"185 850 LINE SMOOTH",
"159 897 OFFCURVE",
"144 909 OFFCURVE",
"125 909 CURVE SMOOTH",
"106 909 OFFCURVE",
"90 897 OFFCURVE",
"90 878 CURVE SMOOTH",
"90 863 OFFCURVE",
"99 847 OFFCURVE",
"140 814 CURVE SMOOTH",
"202 764 LINE",
"223 782 LINE"
);
}
);
width = 349;
}
);
leftKerningGroup = sups_round;
rightKerningGroup = sups_round;
},
{
color = 0;
export = 0;
glyphname = f.sups;
lastChange = "2019-06-06 17:29:56 +0000";
layers = (
{
layerId = "78A9F7DD-241B-40F2-ADB9-3345ED68833B";
paths = (
{
closed = 1;
nodes = (
"87 458 LINE",
"17 445 LINE",
"17 415 LINE",
"207 415 LINE",
"207 445 LINE",
"137 458 LINE"
);
},
{
closed = 1;
nodes = (
"106 684 LINE",
"227 684 LINE",
"227 727 LINE",
"106 727 LINE"
);
},
{
closed = 1;
nodes = (
"152 415 LINE",
"152 694 LINE",
"147 775 OFFCURVE",
"153 822 OFFCURVE",
"178 853 CURVE SMOOTH",
"187 866 OFFCURVE",
"208 878 OFFCURVE",
"229 878 CURVE SMOOTH",
"238 878 OFFCURVE",
"247 876 OFFCURVE",
"254 872 CURVE",
"238 889 LINE",
"178 877 LINE",
"196 855 LINE SMOOTH",
"215 828 OFFCURVE",
"232 815 OFFCURVE",
"253 815 CURVE SMOOTH",
"280 815 OFFCURVE",
"297 832 OFFCURVE",
"297 855 CURVE",
"290 885 OFFCURVE",
"258 897 OFFCURVE",
"223 897 CURVE SMOOTH",
"187 897 OFFCURVE",
"149 887 OFFCURVE",
"118 857 CURVE SMOOTH",
"86 827 OFFCURVE",
"67 790 OFFCURVE",
"60 715 CURVE",
"92 731 LINE",
"16 722 LINE",
"16 684 LINE",
"60 684 LINE",
"60 415 LINE"
);
}
);
width = 233;
}
);
leftKerningGroup = sups_corner;
rightKerningGroup = sups_corner;
},
{
color = 0;
export = 0;
glyphname = g.sups;
lastChange = "2019-06-06 17:29:56 +0000";
layers = (
{
layerId = "78A9F7DD-241B-40F2-ADB9-3345ED68833B";
paths = (
{
closed = 1;
nodes = (
"107 300 OFFCURVE",
"75 316 OFFCURVE",
"75 357 CURVE SMOOTH",
"75 378 OFFCURVE",
"82 392 OFFCURVE",
"100 414 CURVE",
"92 418 LINE",
"37 398 OFFCURVE",
"13 373 OFFCURVE",
"13 341 CURVE SMOOTH",
"13 299 OFFCURVE",
"49 264 OFFCURVE",
"157 264 CURVE SMOOTH",
"282 264 OFFCURVE",
"348 319 OFFCURVE",
"348 382 CURVE SMOOTH",
"348 438 OFFCURVE",
"312 475 OFFCURVE",
"216 475 CURVE SMOOTH",
"145 475 LINE SMOOTH",
"110 475 OFFCURVE",
"97 485 OFFCURVE",
"97 506 CURVE SMOOTH",
"97 522 OFFCURVE",
"104 534 OFFCURVE",
"116 547 CURVE",
"101 556 LINE",
"54 529 OFFCURVE",
"34 504 OFFCURVE",
"34 469 CURVE SMOOTH",
"34 432 OFFCURVE",
"65 393 OFFCURVE",
"146 393 CURVE SMOOTH",
"216 393 LINE SMOOTH",
"256 393 OFFCURVE",
"270 375 OFFCURVE",
"270 355 CURVE SMOOTH",
"270 324 OFFCURVE",
"235 300 OFFCURVE",
"165 300 CURVE SMOOTH"
);
},
{
closed = 1;
nodes = (
"30 570 OFFCURVE",
"77 529 OFFCURVE",
"166 529 CURVE SMOOTH",
"254 529 OFFCURVE",
"301 572 OFFCURVE",
"301 634 CURVE SMOOTH",
"301 698 OFFCURVE",
"255 739 OFFCURVE",
"166 739 CURVE SMOOTH",
"78 739 OFFCURVE",
"30 696 OFFCURVE",
"30 634 CURVE SMOOTH"
);
},
{
closed = 1;
nodes = (
"199 710 OFFCURVE",
"217 680 OFFCURVE",
"217 634 CURVE SMOOTH",
"217 588 OFFCURVE",
"199 558 OFFCURVE",
"165 558 CURVE SMOOTH",
"130 558 OFFCURVE",
"114 587 OFFCURVE",
"114 633 CURVE SMOOTH",
"114 680 OFFCURVE",
"132 710 OFFCURVE",
"166 710 CURVE SMOOTH"
);
},
{
closed = 1;
nodes = (
"253 685 LINE",
"352 685 LINE",
"352 732 LINE",
"342 739 LINE",
"253 708 LINE"
);
}
);
width = 361;
}
);
leftKerningGroup = sups_desc;
rightKerningGroup = sups_low;
},
